solid BaseBoxRobotArm
facet normal 0.0 -1.0 -9.714451465470122e-17
  outer loop
    vertex 584.4420111426001 211.69658920768097 10.00000000000006
    vertex 401.60866634565446 211.69658920768092 -8.01482679704548e-29
    vertex 584.4420111426001 211.69658920768092 -8.01482679704548e-29
  endloop
endfacet
facet normal 0.0 -1.0 -9.714451465470122e-17
  outer loop
    vertex 401.60866634565446 211.69658920768092 -8.01482679704548e-29
    vertex 584.4420111426001 211.69658920768097 10.00000000000006
    vertex 401.60866634565446 211.69658920768097 10.00000000000006
  endloop
endfacet
facet normal -1.0 0.0 0.0
  outer loop
    vertex 574.4420111426001 220.196589207681 50.00000000000006
    vertex 574.4420111426001 240.19658920768097 30.000000000000092
    vertex 574.4420111426001 220.19658920768097 30.000000000000092
  endloop
endfacet
facet normal -1.0 0.0 0.0
  outer loop
    vertex 574.4420111426001 240.19658920768097 30.000000000000092
    vertex 574.4420111426001 220.196589207681 50.00000000000006
    vertex 574.4420111426001 300.19658920768103 50.000000000000036
  endloop
endfacet
facet normal -1.0 0.0 0.0
  outer loop
    vertex 574.4420111426001 240.19658920768097 30.000000000000092
    vertex 574.4420111426001 300.19658920768103 50.000000000000036
    vertex 574.4420111426001 280.196589207681 30.000000000000092
  endloop
endfacet
facet normal -1.0 0.0 0.0
  outer loop
    vertex 574.4420111426001 280.196589207681 30.000000000000092
    vertex 574.4420111426001 300.19658920768103 50.000000000000036
    vertex 574.4420111426001 300.19658920768103 30.000000000000025
  endloop
endfacet
facet normal -1.0 0.0 0.0
  outer loop
    vertex 574.4420111426001 240.19658920768097 30.000000000000092
    vertex 574.4420111426001 280.196589207681 10.000000000000128
    vertex 574.4420111426001 240.19658920768097 10.000000000000037
  endloop
endfacet
facet normal -1.0 0.0 0.0
  outer loop
    vertex 574.4420111426001 280.196589207681 10.000000000000128
    vertex 574.4420111426001 240.19658920768097 30.000000000000092
    vertex 574.4420111426001 280.196589207681 30.000000000000092
  endloop
endfacet
facet normal 0.0 9.714451465470122e-17 -1.0
  outer loop
    vertex 584.4420111426001 240.19658920768097 30.000000000000092
    vertex 574.4420111426001 220.19658920768097 30.000000000000092
    vertex 574.4420111426001 240.19658920768097 30.000000000000092
  endloop
endfacet
facet normal 0.0 9.714451465470122e-17 -1.0
  outer loop
    vertex 574.4420111426001 220.19658920768097 30.000000000000092
    vertex 584.4420111426001 240.19658920768097 30.000000000000092
    vertex 584.4420111426001 220.19658920768097 30.000000000000092
  endloop
endfacet
facet normal 0.0 9.714451465470122e-17 -1.0
  outer loop
    vertex 584.4420111426001 308.6965892076809 9.023892744153264e-14
    vertex 401.60866634565446 211.69658920768092 -8.01482679704548e-29
    vertex 401.60866634565446 308.6965892076809 9.023892744153264e-14
  endloop
endfacet
facet normal 0.0 9.714451465470122e-17 -1.0
  outer loop
    vertex 401.60866634565446 211.69658920768092 -8.01482679704548e-29
    vertex 584.4420111426001 308.6965892076809 9.023892744153264e-14
    vertex 584.4420111426001 211.69658920768092 -8.01482679704548e-29
  endloop
endfacet
facet normal -1.0 0.0 0.0
  outer loop
    vertex 401.60866634565446 211.69658920768097 10.00000000000006
    vertex 401.60866634565446 308.6965892076809 9.023892744153264e-14
    vertex 401.60866634565446 211.69658920768092 -8.01482679704548e-29
  endloop
endfacet
facet normal -1.0 0.0 0.0
  outer loop
    vertex 401.60866634565446 308.6965892076809 9.023892744153264e-14
    vertex 401.60866634565446 211.69658920768097 10.00000000000006
    vertex 401.60866634565446 308.6965892076809 10.000000000000037
  endloop
endfacet
facet normal 1.0 0.0 0.0
  outer loop
    vertex 584.4420111426001 308.6965892076809 9.023892744153264e-14
    vertex 584.4420111426001 211.69658920768097 10.00000000000006
    vertex 584.4420111426001 211.69658920768092 -8.01482679704548e-29
  endloop
endfacet
facet normal 1.0 0.0 0.0
  outer loop
    vertex 584.4420111426001 211.69658920768097 10.00000000000006
    vertex 584.4420111426001 308.6965892076809 9.023892744153264e-14
    vertex 584.4420111426001 240.19658920768097 10.000000000000037
  endloop
endfacet
facet normal 1.0 0.0 0.0
  outer loop
    vertex 584.4420111426001 240.19658920768097 10.000000000000037
    vertex 584.4420111426001 308.6965892076809 9.023892744153264e-14
    vertex 584.4420111426001 280.196589207681 10.000000000000128
  endloop
endfacet
facet normal 1.0 0.0 0.0
  outer loop
    vertex 584.4420111426001 240.19658920768097 10.000000000000037
    vertex 584.4420111426001 280.196589207681 10.000000000000128
    vertex 584.4420111426001 240.19658920768097 30.000000000000092
  endloop
endfacet
facet normal 1.0 0.0 0.0
  outer loop
    vertex 584.4420111426001 240.19658920768097 30.000000000000092
    vertex 584.4420111426001 280.196589207681 10.000000000000128
    vertex 584.4420111426001 280.196589207681 30.000000000000092
  endloop
endfacet
facet normal 1.0 0.0 0.0
  outer loop
    vertex 584.4420111426001 280.196589207681 10.000000000000128
    vertex 584.4420111426001 308.6965892076809 9.023892744153264e-14
    vertex 584.4420111426001 308.6965892076809 10.000000000000037
  endloop
endfacet
facet normal 1.0 0.0 0.0
  outer loop
    vertex 584.4420111426001 240.19658920768097 30.000000000000092
    vertex 584.4420111426001 220.196589207681 50.00000000000006
    vertex 584.4420111426001 220.19658920768097 30.000000000000092
  endloop
endfacet
facet normal 1.0 0.0 0.0
  outer loop
    vertex 584.4420111426001 220.196589207681 50.00000000000006
    vertex 584.4420111426001 240.19658920768097 30.000000000000092
    vertex 584.4420111426001 300.19658920768103 50.000000000000036
  endloop
endfacet
facet normal 1.0 0.0 0.0
  outer loop
    vertex 584.4420111426001 300.19658920768103 50.000000000000036
    vertex 584.4420111426001 240.19658920768097 30.000000000000092
    vertex 584.4420111426001 280.196589207681 30.000000000000092
  endloop
endfacet
facet normal 1.0 0.0 0.0
  outer loop
    vertex 584.4420111426001 300.19658920768103 50.000000000000036
    vertex 584.4420111426001 280.196589207681 30.000000000000092
    vertex 584.4420111426001 300.19658920768103 30.000000000000025
  endloop
endfacet
facet normal 0.0 9.714451465470122e-17 -1.0
  outer loop
    vertex 584.4420111426001 300.19658920768103 30.000000000000025
    vertex 574.4420111426001 280.196589207681 30.000000000000092
    vertex 574.4420111426001 300.19658920768103 30.000000000000025
  endloop
endfacet
facet normal 0.0 9.714451465470122e-17 -1.0
  outer loop
    vertex 574.4420111426001 280.196589207681 30.000000000000092
    vertex 584.4420111426001 300.19658920768103 30.000000000000025
    vertex 584.4420111426001 280.196589207681 30.000000000000092
  endloop
endfacet
facet normal -7.840252310234075e-17 1.0 -2.803667868532762e-15
  outer loop
    vertex 401.60866634565446 308.6965892076809 9.023892744153264e-14
    vertex 447.31700254489084 308.6965892076809 2.500000000000063
    vertex 584.4420111426001 308.6965892076809 9.023892744153264e-14
  endloop
endfacet
facet normal -7.840252310234075e-17 1.0 -2.803667868532762e-15
  outer loop
    vertex 447.31700254489084 308.6965892076809 2.500000000000063
    vertex 401.60866634565446 308.6965892076809 9.023892744153264e-14
    vertex 446.6699549321346 308.6965892076809 2.5851854342773954
  endloop
endfacet
facet normal -7.840252310234075e-17 1.0 -2.803667868532762e-15
  outer loop
    vertex 446.6699549321346 308.6965892076809 2.5851854342773954
    vertex 401.60866634565446 308.6965892076809 9.023892744153264e-14
    vertex 401.60866634565446 308.6965892076809 10.000000000000037
  endloop
endfacet
facet normal -7.840252310234075e-17 1.0 -2.803667868532762e-15
  outer loop
    vertex 446.6699549321346 308.6965892076809 2.5851854342773954
    vertex 401.60866634565446 308.6965892076809 10.000000000000037
    vertex 446.06700254489084 308.6965892076809 2.8349364905389747
  endloop
endfacet
facet normal -7.840252310234075e-17 1.0 -2.803667868532762e-15
  outer loop
    vertex 446.06700254489084 308.6965892076809 2.8349364905389747
    vertex 401.60866634565446 308.6965892076809 10.000000000000037
    vertex 445.54923559192446 308.6965892076809 3.2322330470336964
  endloop
endfacet
facet normal -7.840252310234075e-17 1.0 -2.803667868532762e-15
  outer loop
    vertex 445.54923559192446 308.6965892076809 3.2322330470336964
    vertex 401.60866634565446 308.6965892076809 10.000000000000037
    vertex 445.1519390354298 308.6965892076809 3.750000000000038
  endloop
endfacet
facet normal -7.840252310234075e-17 1.0 -2.803667868532762e-15
  outer loop
    vertex 445.1519390354298 308.6965892076809 3.750000000000038
    vertex 401.60866634565446 308.6965892076809 10.000000000000037
    vertex 444.9021879791682 308.6965892076809 4.352952387243735
  endloop
endfacet
facet normal -7.840252310234075e-17 1.0 -2.803667868532762e-15
  outer loop
    vertex 444.9021879791682 308.6965892076809 4.352952387243735
    vertex 401.60866634565446 308.6965892076809 10.000000000000037
    vertex 444.81700254489084 308.6965892076809 5.000000000000047
  endloop
endfacet
facet normal -7.840252310234075e-17 1.0 -2.803667868532762e-15
  outer loop
    vertex 444.81700254489084 308.6965892076809 5.000000000000047
    vertex 401.60866634565446 308.6965892076809 10.000000000000037
    vertex 444.9021879791682 308.6965892076809 5.64704761275636
  endloop
endfacet
facet normal -7.840252310234075e-17 1.0 -2.803667868532762e-15
  outer loop
    vertex 444.9021879791682 308.6965892076809 5.64704761275636
    vertex 401.60866634565446 308.6965892076809 10.000000000000037
    vertex 445.1519390354298 308.6965892076809 6.250000000000056
  endloop
endfacet
facet normal -7.840252310234075e-17 1.0 -2.803667868532762e-15
  outer loop
    vertex 445.1519390354298 308.6965892076809 6.250000000000056
    vertex 401.60866634565446 308.6965892076809 10.000000000000037
    vertex 445.54923559192446 308.6965892076809 6.76776695296642
  endloop
endfacet
facet normal -7.840252310234075e-17 1.0 -2.803667868532762e-15
  outer loop
    vertex 445.54923559192446 308.6965892076809 6.76776695296642
    vertex 401.60866634565446 308.6965892076809 10.000000000000037
    vertex 446.06700254489084 308.6965892076809 7.165063509461153
  endloop
endfacet
facet normal -7.840252310234075e-17 1.0 -2.803667868532762e-15
  outer loop
    vertex 446.06700254489084 308.6965892076809 7.165063509461153
    vertex 401.60866634565446 308.6965892076809 10.000000000000037
    vertex 446.6699549321346 308.6965892076809 7.414814565722733
  endloop
endfacet
facet normal -7.840252310234075e-17 1.0 -2.803667868532762e-15
  outer loop
    vertex 446.6699549321346 308.6965892076809 7.414814565722733
    vertex 401.60866634565446 308.6965892076809 10.000000000000037
    vertex 447.31700254489084 308.6965892076809 7.500000000000065
  endloop
endfacet
facet normal -7.840252310234075e-17 1.0 -2.803667868532762e-15
  outer loop
    vertex 447.31700254489084 308.6965892076809 7.500000000000065
    vertex 401.60866634565446 308.6965892076809 10.000000000000037
    vertex 493.0253387441273 308.6965892076809 7.500000000000065
  endloop
endfacet
facet normal -7.840252310234075e-17 1.0 -2.803667868532762e-15
  outer loop
    vertex 493.0253387441273 308.6965892076809 7.500000000000065
    vertex 401.60866634565446 308.6965892076809 10.000000000000037
    vertex 538.7336749433637 308.6965892076809 7.500000000000065
  endloop
endfacet
facet normal -7.840252310234075e-17 1.0 -2.803667868532762e-15
  outer loop
    vertex 584.4420111426001 308.6965892076809 9.023892744153264e-14
    vertex 539.38072255612 308.6965892076809 2.5851854342773954
    vertex 584.4420111426001 308.6965892076809 10.000000000000037
  endloop
endfacet
facet normal -7.840252310234075e-17 1.0 -2.803667868532762e-15
  outer loop
    vertex 539.38072255612 308.6965892076809 2.5851854342773954
    vertex 584.4420111426001 308.6965892076809 9.023892744153264e-14
    vertex 538.7336749433637 308.6965892076809 2.500000000000063
  endloop
endfacet
facet normal -7.840252310234075e-17 1.0 -2.803667868532762e-15
  outer loop
    vertex 538.7336749433637 308.6965892076809 2.500000000000063
    vertex 584.4420111426001 308.6965892076809 9.023892744153264e-14
    vertex 447.31700254489084 308.6965892076809 2.500000000000063
  endloop
endfacet
facet normal -7.840252310234075e-17 1.0 -2.803667868532762e-15
  outer loop
    vertex 538.7336749433637 308.6965892076809 2.500000000000063
    vertex 447.31700254489084 308.6965892076809 2.500000000000063
    vertex 493.0253387441273 308.6965892076809 2.500000000000063
  endloop
endfacet
facet normal -7.840252310234075e-17 1.0 -2.803667868532762e-15
  outer loop
    vertex 584.4420111426001 308.6965892076809 10.000000000000037
    vertex 539.38072255612 308.6965892076809 2.5851854342773954
    vertex 539.9836749433637 308.6965892076809 2.8349364905389636
  endloop
endfacet
facet normal -7.840252310234075e-17 1.0 -2.803667868532762e-15
  outer loop
    vertex 584.4420111426001 308.6965892076809 10.000000000000037
    vertex 539.9836749433637 308.6965892076809 2.8349364905389636
    vertex 540.5014418963301 308.6965892076809 3.2322330470336964
  endloop
endfacet
facet normal -7.840252310234075e-17 1.0 -2.803667868532762e-15
  outer loop
    vertex 584.4420111426001 308.6965892076809 10.000000000000037
    vertex 540.5014418963301 308.6965892076809 3.2322330470336964
    vertex 540.8987384528249 308.6965892076809 3.750000000000038
  endloop
endfacet
facet normal -7.840252310234075e-17 1.0 -2.803667868532762e-15
  outer loop
    vertex 584.4420111426001 308.6965892076809 10.000000000000037
    vertex 540.8987384528249 308.6965892076809 3.750000000000038
    vertex 541.1484895090864 308.6965892076809 4.352952387243735
  endloop
endfacet
facet normal -7.840252310234075e-17 1.0 -2.803667868532762e-15
  outer loop
    vertex 584.4420111426001 308.6965892076809 10.000000000000037
    vertex 541.1484895090864 308.6965892076809 4.352952387243735
    vertex 541.2336749433638 308.6965892076809 5.000000000000047
  endloop
endfacet
facet normal -7.840252310234075e-17 1.0 -2.803667868532762e-15
  outer loop
    vertex 584.4420111426001 308.6965892076809 10.000000000000037
    vertex 541.2336749433638 308.6965892076809 5.000000000000047
    vertex 541.1484895090864 308.6965892076809 5.64704761275636
  endloop
endfacet
facet normal -7.840252310234075e-17 1.0 -2.803667868532762e-15
  outer loop
    vertex 584.4420111426001 308.6965892076809 10.000000000000037
    vertex 541.1484895090864 308.6965892076809 5.64704761275636
    vertex 540.8987384528249 308.6965892076809 6.250000000000056
  endloop
endfacet
facet normal -7.840252310234075e-17 1.0 -2.803667868532762e-15
  outer loop
    vertex 584.4420111426001 308.6965892076809 10.000000000000037
    vertex 540.8987384528249 308.6965892076809 6.250000000000056
    vertex 540.5014418963301 308.6965892076809 6.76776695296642
  endloop
endfacet
facet normal -7.840252310234075e-17 1.0 -2.803667868532762e-15
  outer loop
    vertex 584.4420111426001 308.6965892076809 10.000000000000037
    vertex 540.5014418963301 308.6965892076809 6.76776695296642
    vertex 539.9836749433638 308.6965892076809 7.165063509461153
  endloop
endfacet
facet normal -7.840252310234075e-17 1.0 -2.803667868532762e-15
  outer loop
    vertex 584.4420111426001 308.6965892076809 10.000000000000037
    vertex 539.9836749433638 308.6965892076809 7.165063509461153
    vertex 539.38072255612 308.6965892076809 7.414814565722733
  endloop
endfacet
facet normal -7.840252310234075e-17 1.0 -2.803667868532762e-15
  outer loop
    vertex 584.4420111426001 308.6965892076809 10.000000000000037
    vertex 539.38072255612 308.6965892076809 7.414814565722733
    vertex 538.7336749433637 308.6965892076809 7.500000000000065
  endloop
endfacet
facet normal -7.840252310234075e-17 1.0 -2.803667868532762e-15
  outer loop
    vertex 584.4420111426001 308.6965892076809 10.000000000000037
    vertex 538.7336749433637 308.6965892076809 7.500000000000065
    vertex 401.60866634565446 308.6965892076809 10.000000000000037
  endloop
endfacet
facet normal -7.840252310234075e-17 1.0 -2.803667868532762e-15
  outer loop
    vertex 493.6723863568836 308.6965892076809 2.5851854342773954
    vertex 538.7336749433637 308.6965892076809 2.500000000000063
    vertex 493.0253387441273 308.6965892076809 2.500000000000063
  endloop
endfacet
facet normal -7.840252310234075e-17 1.0 -2.803667868532762e-15
  outer loop
    vertex 538.7336749433637 308.6965892076809 2.500000000000063
    vertex 493.6723863568836 308.6965892076809 2.5851854342773954
    vertex 538.0866273306075 308.6965892076809 2.5851854342773954
  endloop
endfacet
facet normal -7.840252310234075e-17 1.0 -2.803667868532762e-15
  outer loop
    vertex 538.0866273306075 308.6965892076809 2.5851854342773954
    vertex 493.6723863568836 308.6965892076809 2.5851854342773954
    vertex 494.2753387441273 308.6965892076809 2.8349364905389636
  endloop
endfacet
facet normal -7.840252310234075e-17 1.0 -2.803667868532762e-15
  outer loop
    vertex 538.0866273306075 308.6965892076809 2.5851854342773954
    vertex 494.2753387441273 308.6965892076809 2.8349364905389636
    vertex 537.4836749433637 308.6965892076809 2.8349364905389747
  endloop
endfacet
facet normal -7.840252310234075e-17 1.0 -2.803667868532762e-15
  outer loop
    vertex 537.4836749433637 308.6965892076809 2.8349364905389747
    vertex 494.2753387441273 308.6965892076809 2.8349364905389636
    vertex 494.7931056970937 308.6965892076809 3.2322330470336964
  endloop
endfacet
facet normal -7.840252310234075e-17 1.0 -2.803667868532762e-15
  outer loop
    vertex 537.4836749433637 308.6965892076809 2.8349364905389747
    vertex 494.7931056970937 308.6965892076809 3.2322330470336964
    vertex 536.9659079903973 308.6965892076809 3.2322330470336964
  endloop
endfacet
facet normal -7.840252310234075e-17 1.0 -2.803667868532762e-15
  outer loop
    vertex 536.9659079903973 308.6965892076809 3.2322330470336964
    vertex 494.7931056970937 308.6965892076809 3.2322330470336964
    vertex 495.1904022535884 308.6965892076809 3.750000000000038
  endloop
endfacet
facet normal -7.840252310234075e-17 1.0 -2.803667868532762e-15
  outer loop
    vertex 536.9659079903973 308.6965892076809 3.2322330470336964
    vertex 495.1904022535884 308.6965892076809 3.750000000000038
    vertex 536.5686114339027 308.6965892076809 3.750000000000038
  endloop
endfacet
facet normal -7.840252310234075e-17 1.0 -2.803667868532762e-15
  outer loop
    vertex 536.5686114339027 308.6965892076809 3.750000000000038
    vertex 495.1904022535884 308.6965892076809 3.750000000000038
    vertex 495.44015330984996 308.6965892076809 4.352952387243735
  endloop
endfacet
facet normal -7.840252310234075e-17 1.0 -2.803667868532762e-15
  outer loop
    vertex 536.5686114339027 308.6965892076809 3.750000000000038
    vertex 495.44015330984996 308.6965892076809 4.352952387243735
    vertex 536.318860377641 308.6965892076809 4.352952387243735
  endloop
endfacet
facet normal -7.840252310234075e-17 1.0 -2.803667868532762e-15
  outer loop
    vertex 536.318860377641 308.6965892076809 4.352952387243735
    vertex 495.44015330984996 308.6965892076809 4.352952387243735
    vertex 495.5253387441273 308.6965892076809 5.000000000000047
  endloop
endfacet
facet normal -7.840252310234075e-17 1.0 -2.803667868532762e-15
  outer loop
    vertex 536.318860377641 308.6965892076809 4.352952387243735
    vertex 495.5253387441273 308.6965892076809 5.000000000000047
    vertex 536.2336749433637 308.6965892076809 5.000000000000047
  endloop
endfacet
facet normal -7.840252310234075e-17 1.0 -2.803667868532762e-15
  outer loop
    vertex 536.2336749433637 308.6965892076809 5.000000000000047
    vertex 495.5253387441273 308.6965892076809 5.000000000000047
    vertex 495.44015330984996 308.6965892076809 5.64704761275636
  endloop
endfacet
facet normal -7.840252310234075e-17 1.0 -2.803667868532762e-15
  outer loop
    vertex 536.2336749433637 308.6965892076809 5.000000000000047
    vertex 495.44015330984996 308.6965892076809 5.64704761275636
    vertex 536.318860377641 308.6965892076809 5.64704761275636
  endloop
endfacet
facet normal -7.840252310234075e-17 1.0 -2.803667868532762e-15
  outer loop
    vertex 536.318860377641 308.6965892076809 5.64704761275636
    vertex 495.44015330984996 308.6965892076809 5.64704761275636
    vertex 495.1904022535884 308.6965892076809 6.250000000000056
  endloop
endfacet
facet normal -7.840252310234075e-17 1.0 -2.803667868532762e-15
  outer loop
    vertex 536.318860377641 308.6965892076809 5.64704761275636
    vertex 495.1904022535884 308.6965892076809 6.250000000000056
    vertex 536.5686114339027 308.6965892076809 6.250000000000056
  endloop
endfacet
facet normal -7.840252310234075e-17 1.0 -2.803667868532762e-15
  outer loop
    vertex 536.5686114339027 308.6965892076809 6.250000000000056
    vertex 495.1904022535884 308.6965892076809 6.250000000000056
    vertex 494.7931056970937 308.6965892076809 6.76776695296642
  endloop
endfacet
facet normal -7.840252310234075e-17 1.0 -2.803667868532762e-15
  outer loop
    vertex 536.5686114339027 308.6965892076809 6.250000000000056
    vertex 494.7931056970937 308.6965892076809 6.76776695296642
    vertex 536.9659079903973 308.6965892076809 6.76776695296642
  endloop
endfacet
facet normal -7.840252310234075e-17 1.0 -2.803667868532762e-15
  outer loop
    vertex 536.9659079903973 308.6965892076809 6.76776695296642
    vertex 494.7931056970937 308.6965892076809 6.76776695296642
    vertex 494.2753387441273 308.6965892076809 7.165063509461153
  endloop
endfacet
facet normal -7.840252310234075e-17 1.0 -2.803667868532762e-15
  outer loop
    vertex 536.9659079903973 308.6965892076809 6.76776695296642
    vertex 494.2753387441273 308.6965892076809 7.165063509461153
    vertex 537.4836749433637 308.6965892076809 7.165063509461153
  endloop
endfacet
facet normal -7.840252310234075e-17 1.0 -2.803667868532762e-15
  outer loop
    vertex 537.4836749433637 308.6965892076809 7.165063509461153
    vertex 494.2753387441273 308.6965892076809 7.165063509461153
    vertex 493.6723863568836 308.6965892076809 7.414814565722733
  endloop
endfacet
facet normal -7.840252310234075e-17 1.0 -2.803667868532762e-15
  outer loop
    vertex 537.4836749433637 308.6965892076809 7.165063509461153
    vertex 493.6723863568836 308.6965892076809 7.414814565722733
    vertex 538.0866273306075 308.6965892076809 7.414814565722733
  endloop
endfacet
facet normal -7.840252310234075e-17 1.0 -2.803667868532762e-15
  outer loop
    vertex 538.0866273306075 308.6965892076809 7.414814565722733
    vertex 493.6723863568836 308.6965892076809 7.414814565722733
    vertex 493.0253387441273 308.6965892076809 7.500000000000065
  endloop
endfacet
facet normal -7.840252310234075e-17 1.0 -2.803667868532762e-15
  outer loop
    vertex 538.0866273306075 308.6965892076809 7.414814565722733
    vertex 493.0253387441273 308.6965892076809 7.500000000000065
    vertex 538.7336749433637 308.6965892076809 7.500000000000065
  endloop
endfacet
facet normal -7.840252310234075e-17 1.0 -2.803667868532762e-15
  outer loop
    vertex 447.9640501576472 308.6965892076809 2.5851854342773954
    vertex 493.0253387441273 308.6965892076809 2.500000000000063
    vertex 447.31700254489084 308.6965892076809 2.500000000000063
  endloop
endfacet
facet normal -7.840252310234075e-17 1.0 -2.803667868532762e-15
  outer loop
    vertex 493.0253387441273 308.6965892076809 2.500000000000063
    vertex 447.9640501576472 308.6965892076809 2.5851854342773954
    vertex 492.378291131371 308.6965892076809 2.5851854342773954
  endloop
endfacet
facet normal -7.840252310234075e-17 1.0 -2.803667868532762e-15
  outer loop
    vertex 492.378291131371 308.6965892076809 2.5851854342773954
    vertex 447.9640501576472 308.6965892076809 2.5851854342773954
    vertex 448.56700254489084 308.6965892076809 2.8349364905389636
  endloop
endfacet
facet normal -7.840252310234075e-17 1.0 -2.803667868532762e-15
  outer loop
    vertex 492.378291131371 308.6965892076809 2.5851854342773954
    vertex 448.56700254489084 308.6965892076809 2.8349364905389636
    vertex 491.7753387441272 308.6965892076809 2.8349364905389747
  endloop
endfacet
facet normal -7.840252310234075e-17 1.0 -2.803667868532762e-15
  outer loop
    vertex 491.7753387441272 308.6965892076809 2.8349364905389747
    vertex 448.56700254489084 308.6965892076809 2.8349364905389636
    vertex 449.0847694978572 308.6965892076809 3.2322330470336964
  endloop
endfacet
facet normal -7.840252310234075e-17 1.0 -2.803667868532762e-15
  outer loop
    vertex 491.7753387441272 308.6965892076809 2.8349364905389747
    vertex 449.0847694978572 308.6965892076809 3.2322330470336964
    vertex 491.2575717911609 308.6965892076809 3.2322330470336964
  endloop
endfacet
facet normal -7.840252310234075e-17 1.0 -2.803667868532762e-15
  outer loop
    vertex 491.2575717911609 308.6965892076809 3.2322330470336964
    vertex 449.0847694978572 308.6965892076809 3.2322330470336964
    vertex 449.482066054352 308.6965892076809 3.750000000000038
  endloop
endfacet
facet normal -7.840252310234075e-17 1.0 -2.803667868532762e-15
  outer loop
    vertex 491.2575717911609 308.6965892076809 3.2322330470336964
    vertex 449.482066054352 308.6965892076809 3.750000000000038
    vertex 490.8602752346662 308.6965892076809 3.750000000000038
  endloop
endfacet
facet normal -7.840252310234075e-17 1.0 -2.803667868532762e-15
  outer loop
    vertex 490.8602752346662 308.6965892076809 3.750000000000038
    vertex 449.482066054352 308.6965892076809 3.750000000000038
    vertex 449.7318171106136 308.6965892076809 4.352952387243735
  endloop
endfacet
facet normal -7.840252310234075e-17 1.0 -2.803667868532762e-15
  outer loop
    vertex 490.8602752346662 308.6965892076809 3.750000000000038
    vertex 449.7318171106136 308.6965892076809 4.352952387243735
    vertex 490.6105241784046 308.6965892076809 4.352952387243735
  endloop
endfacet
facet normal -7.840252310234075e-17 1.0 -2.803667868532762e-15
  outer loop
    vertex 490.6105241784046 308.6965892076809 4.352952387243735
    vertex 449.7318171106136 308.6965892076809 4.352952387243735
    vertex 449.8170025448909 308.6965892076809 5.000000000000047
  endloop
endfacet
facet normal -7.840252310234075e-17 1.0 -2.803667868532762e-15
  outer loop
    vertex 490.6105241784046 308.6965892076809 4.352952387243735
    vertex 449.8170025448909 308.6965892076809 5.000000000000047
    vertex 490.5253387441272 308.6965892076809 5.000000000000047
  endloop
endfacet
facet normal -7.840252310234075e-17 1.0 -2.803667868532762e-15
  outer loop
    vertex 490.5253387441272 308.6965892076809 5.000000000000047
    vertex 449.8170025448909 308.6965892076809 5.000000000000047
    vertex 449.7318171106136 308.6965892076809 5.64704761275636
  endloop
endfacet
facet normal -7.840252310234075e-17 1.0 -2.803667868532762e-15
  outer loop
    vertex 490.5253387441272 308.6965892076809 5.000000000000047
    vertex 449.7318171106136 308.6965892076809 5.64704761275636
    vertex 490.6105241784046 308.6965892076809 5.64704761275636
  endloop
endfacet
facet normal -7.840252310234075e-17 1.0 -2.803667868532762e-15
  outer loop
    vertex 490.6105241784046 308.6965892076809 5.64704761275636
    vertex 449.7318171106136 308.6965892076809 5.64704761275636
    vertex 449.482066054352 308.6965892076809 6.250000000000056
  endloop
endfacet
facet normal -7.840252310234075e-17 1.0 -2.803667868532762e-15
  outer loop
    vertex 490.6105241784046 308.6965892076809 5.64704761275636
    vertex 449.482066054352 308.6965892076809 6.250000000000056
    vertex 490.8602752346662 308.6965892076809 6.250000000000056
  endloop
endfacet
facet normal -7.840252310234075e-17 1.0 -2.803667868532762e-15
  outer loop
    vertex 490.8602752346662 308.6965892076809 6.250000000000056
    vertex 449.482066054352 308.6965892076809 6.250000000000056
    vertex 449.0847694978572 308.6965892076809 6.76776695296642
  endloop
endfacet
facet normal -7.840252310234075e-17 1.0 -2.803667868532762e-15
  outer loop
    vertex 490.8602752346662 308.6965892076809 6.250000000000056
    vertex 449.0847694978572 308.6965892076809 6.76776695296642
    vertex 491.2575717911609 308.6965892076809 6.76776695296642
  endloop
endfacet
facet normal -7.840252310234075e-17 1.0 -2.803667868532762e-15
  outer loop
    vertex 491.2575717911609 308.6965892076809 6.76776695296642
    vertex 449.0847694978572 308.6965892076809 6.76776695296642
    vertex 448.5670025448909 308.6965892076809 7.165063509461153
  endloop
endfacet
facet normal -7.840252310234075e-17 1.0 -2.803667868532762e-15
  outer loop
    vertex 491.2575717911609 308.6965892076809 6.76776695296642
    vertex 448.5670025448909 308.6965892076809 7.165063509461153
    vertex 491.77533874412734 308.6965892076809 7.165063509461153
  endloop
endfacet
facet normal -7.840252310234075e-17 1.0 -2.803667868532762e-15
  outer loop
    vertex 491.77533874412734 308.6965892076809 7.165063509461153
    vertex 448.5670025448909 308.6965892076809 7.165063509461153
    vertex 447.9640501576472 308.6965892076809 7.414814565722733
  endloop
endfacet
facet normal -7.840252310234075e-17 1.0 -2.803667868532762e-15
  outer loop
    vertex 491.77533874412734 308.6965892076809 7.165063509461153
    vertex 447.9640501576472 308.6965892076809 7.414814565722733
    vertex 492.378291131371 308.6965892076809 7.414814565722733
  endloop
endfacet
facet normal -7.840252310234075e-17 1.0 -2.803667868532762e-15
  outer loop
    vertex 492.378291131371 308.6965892076809 7.414814565722733
    vertex 447.9640501576472 308.6965892076809 7.414814565722733
    vertex 447.31700254489084 308.6965892076809 7.500000000000065
  endloop
endfacet
facet normal -7.840252310234075e-17 1.0 -2.803667868532762e-15
  outer loop
    vertex 492.378291131371 308.6965892076809 7.414814565722733
    vertex 447.31700254489084 308.6965892076809 7.500000000000065
    vertex 493.0253387441273 308.6965892076809 7.500000000000065
  endloop
endfacet
facet normal 0.0 -1.0 -9.714451465470122e-17
  outer loop
    vertex 584.4420111426001 220.196589207681 50.00000000000006
    vertex 574.4420111426001 220.19658920768097 30.000000000000092
    vertex 584.4420111426001 220.19658920768097 30.000000000000092
  endloop
endfacet
facet normal 0.0 -1.0 -9.714451465470122e-17
  outer loop
    vertex 574.4420111426001 220.19658920768097 30.000000000000092
    vertex 584.4420111426001 220.196589207681 50.00000000000006
    vertex 574.4420111426001 220.196589207681 50.00000000000006
  endloop
endfacet
facet normal 0.0 -9.714451465470122e-17 1.0
  outer loop
    vertex 584.4420111426001 220.196589207681 50.00000000000006
    vertex 574.4420111426001 300.19658920768103 50.000000000000036
    vertex 574.4420111426001 220.196589207681 50.00000000000006
  endloop
endfacet
facet normal 0.0 -9.714451465470122e-17 1.0
  outer loop
    vertex 574.4420111426001 300.19658920768103 50.000000000000036
    vertex 584.4420111426001 220.196589207681 50.00000000000006
    vertex 584.4420111426001 300.19658920768103 50.000000000000036
  endloop
endfacet
facet normal 0.0 1.0 9.714451465470122e-17
  outer loop
    vertex 574.4420111426001 280.196589207681 30.000000000000092
    vertex 584.4420111426001 280.196589207681 10.000000000000128
    vertex 574.4420111426001 280.196589207681 10.000000000000128
  endloop
endfacet
facet normal 0.0 1.0 9.714451465470122e-17
  outer loop
    vertex 584.4420111426001 280.196589207681 10.000000000000128
    vertex 574.4420111426001 280.196589207681 30.000000000000092
    vertex 584.4420111426001 280.196589207681 30.000000000000092
  endloop
endfacet
facet normal 0.0 1.0 9.714451465470122e-17
  outer loop
    vertex 574.4420111426001 300.19658920768103 50.000000000000036
    vertex 584.4420111426001 300.19658920768103 30.000000000000025
    vertex 574.4420111426001 300.19658920768103 30.000000000000025
  endloop
endfacet
facet normal 0.0 1.0 9.714451465470122e-17
  outer loop
    vertex 584.4420111426001 300.19658920768103 30.000000000000025
    vertex 574.4420111426001 300.19658920768103 50.000000000000036
    vertex 584.4420111426001 300.19658920768103 50.000000000000036
  endloop
endfacet
facet normal 0.0 -1.0 -9.714451465470122e-17
  outer loop
    vertex 584.4420111426001 240.19658920768097 30.000000000000092
    vertex 574.4420111426001 240.19658920768097 10.000000000000037
    vertex 584.4420111426001 240.19658920768097 10.000000000000037
  endloop
endfacet
facet normal 0.0 -1.0 -9.714451465470122e-17
  outer loop
    vertex 574.4420111426001 240.19658920768097 10.000000000000037
    vertex 584.4420111426001 240.19658920768097 30.000000000000092
    vertex 574.4420111426001 240.19658920768097 30.000000000000092
  endloop
endfacet
facet normal 0.0 -9.714451465470122e-17 1.0
  outer loop
    vertex 584.4420111426001 211.69658920768097 10.00000000000006
    vertex 401.60866634565446 308.6965892076809 10.000000000000037
    vertex 401.60866634565446 211.69658920768097 10.00000000000006
  endloop
endfacet
facet normal 0.0 -9.714451465470122e-17 1.0
  outer loop
    vertex 401.60866634565446 308.6965892076809 10.000000000000037
    vertex 584.4420111426001 211.69658920768097 10.00000000000006
    vertex 574.4420111426001 240.19658920768097 10.000000000000037
  endloop
endfacet
facet normal 0.0 -9.714451465470122e-17 1.0
  outer loop
    vertex 574.4420111426001 240.19658920768097 10.000000000000037
    vertex 584.4420111426001 211.69658920768097 10.00000000000006
    vertex 584.4420111426001 240.19658920768097 10.000000000000037
  endloop
endfacet
facet normal 0.0 -9.714451465470122e-17 1.0
  outer loop
    vertex 401.60866634565446 308.6965892076809 10.000000000000037
    vertex 574.4420111426001 280.196589207681 10.000000000000128
    vertex 584.4420111426001 308.6965892076809 10.000000000000037
  endloop
endfacet
facet normal 0.0 -9.714451465470122e-17 1.0
  outer loop
    vertex 574.4420111426001 280.196589207681 10.000000000000128
    vertex 401.60866634565446 308.6965892076809 10.000000000000037
    vertex 574.4420111426001 240.19658920768097 10.000000000000037
  endloop
endfacet
facet normal 0.0 -9.714451465470122e-17 1.0
  outer loop
    vertex 584.4420111426001 308.6965892076809 10.000000000000037
    vertex 574.4420111426001 280.196589207681 10.000000000000128
    vertex 584.4420111426001 280.196589207681 10.000000000000128
  endloop
endfacet
facet normal 3.669415211885406e-30 1.0 -1.6011266386802482e-15
  outer loop
    vertex 446.6699549321346 318.6965892076809 2.585185434277384
    vertex 447.9640501576472 318.6965892076809 2.585185434277384
    vertex 447.31700254489084 318.6965892076809 2.500000000000052
  endloop
endfacet
facet normal 3.669415211885406e-30 1.0 -1.6011266386802482e-15
  outer loop
    vertex 447.9640501576472 318.6965892076809 2.585185434277384
    vertex 446.6699549321346 318.6965892076809 2.585185434277384
    vertex 446.06700254489084 318.6965892076809 2.8349364905389636
  endloop
endfacet
facet normal 3.669415211885406e-30 1.0 -1.6011266386802482e-15
  outer loop
    vertex 447.9640501576472 318.6965892076809 2.585185434277384
    vertex 446.06700254489084 318.6965892076809 2.8349364905389636
    vertex 448.56700254489084 318.6965892076809 2.834936490538952
  endloop
endfacet
facet normal 3.669415211885406e-30 1.0 -1.6011266386802482e-15
  outer loop
    vertex 448.56700254489084 318.6965892076809 2.834936490538952
    vertex 446.06700254489084 318.6965892076809 2.8349364905389636
    vertex 449.0847694978572 318.6965892076809 3.2322330470336853
  endloop
endfacet
facet normal 3.669415211885406e-30 1.0 -1.6011266386802482e-15
  outer loop
    vertex 449.0847694978572 318.6965892076809 3.2322330470336853
    vertex 446.06700254489084 318.6965892076809 2.8349364905389636
    vertex 445.54923559192446 318.6965892076809 3.2322330470336853
  endloop
endfacet
facet normal 3.669415211885406e-30 1.0 -1.6011266386802482e-15
  outer loop
    vertex 449.0847694978572 318.6965892076809 3.2322330470336853
    vertex 445.54923559192446 318.6965892076809 3.2322330470336853
    vertex 445.1519390354298 318.6965892076809 3.7500000000000155
  endloop
endfacet
facet normal 3.669415211885406e-30 1.0 -1.6011266386802482e-15
  outer loop
    vertex 449.0847694978572 318.6965892076809 3.2322330470336853
    vertex 445.1519390354298 318.6965892076809 3.7500000000000155
    vertex 449.482066054352 318.6965892076809 3.7500000000000155
  endloop
endfacet
facet normal 3.669415211885406e-30 1.0 -1.6011266386802482e-15
  outer loop
    vertex 449.482066054352 318.6965892076809 3.7500000000000155
    vertex 445.1519390354298 318.6965892076809 3.7500000000000155
    vertex 444.9021879791682 318.6965892076809 4.352952387243712
  endloop
endfacet
facet normal 3.669415211885406e-30 1.0 -1.6011266386802482e-15
  outer loop
    vertex 449.482066054352 318.6965892076809 3.7500000000000155
    vertex 444.9021879791682 318.6965892076809 4.352952387243712
    vertex 449.7318171106136 318.6965892076809 4.352952387243712
  endloop
endfacet
facet normal 3.669415211885406e-30 1.0 -1.6011266386802482e-15
  outer loop
    vertex 449.7318171106136 318.6965892076809 4.352952387243712
    vertex 444.9021879791682 318.6965892076809 4.352952387243712
    vertex 444.81700254489084 318.6965892076809 5.000000000000025
  endloop
endfacet
facet normal 3.669415211885406e-30 1.0 -1.6011266386802482e-15
  outer loop
    vertex 449.7318171106136 318.6965892076809 4.352952387243712
    vertex 444.81700254489084 318.6965892076809 5.000000000000025
    vertex 449.8170025448909 318.6965892076809 5.000000000000025
  endloop
endfacet
facet normal 3.669415211885406e-30 1.0 -1.6011266386802482e-15
  outer loop
    vertex 449.8170025448909 318.6965892076809 5.000000000000025
    vertex 444.81700254489084 318.6965892076809 5.000000000000025
    vertex 444.9021879791682 318.6965892076809 5.647047612756337
  endloop
endfacet
facet normal 3.669415211885406e-30 1.0 -1.6011266386802482e-15
  outer loop
    vertex 449.8170025448909 318.6965892076809 5.000000000000025
    vertex 444.9021879791682 318.6965892076809 5.647047612756337
    vertex 449.7318171106136 318.6965892076809 5.647047612756337
  endloop
endfacet
facet normal 3.669415211885406e-30 1.0 -1.6011266386802482e-15
  outer loop
    vertex 449.7318171106136 318.6965892076809 5.647047612756337
    vertex 444.9021879791682 318.6965892076809 5.647047612756337
    vertex 445.1519390354298 318.6965892076809 6.250000000000034
  endloop
endfacet
facet normal 3.669415211885406e-30 1.0 -1.6011266386802482e-15
  outer loop
    vertex 449.7318171106136 318.6965892076809 5.647047612756337
    vertex 445.1519390354298 318.6965892076809 6.250000000000034
    vertex 449.482066054352 318.6965892076809 6.250000000000034
  endloop
endfacet
facet normal 3.669415211885406e-30 1.0 -1.6011266386802482e-15
  outer loop
    vertex 449.482066054352 318.6965892076809 6.250000000000034
    vertex 445.1519390354298 318.6965892076809 6.250000000000034
    vertex 445.54923559192446 318.6965892076809 6.767766952966398
  endloop
endfacet
facet normal 3.669415211885406e-30 1.0 -1.6011266386802482e-15
  outer loop
    vertex 449.482066054352 318.6965892076809 6.250000000000034
    vertex 445.54923559192446 318.6965892076809 6.767766952966398
    vertex 449.0847694978572 318.6965892076809 6.767766952966398
  endloop
endfacet
facet normal 3.669415211885406e-30 1.0 -1.6011266386802482e-15
  outer loop
    vertex 449.0847694978572 318.6965892076809 6.767766952966398
    vertex 445.54923559192446 318.6965892076809 6.767766952966398
    vertex 446.06700254489084 318.6965892076809 7.165063509461131
  endloop
endfacet
facet normal 3.669415211885406e-30 1.0 -1.6011266386802482e-15
  outer loop
    vertex 449.0847694978572 318.6965892076809 6.767766952966398
    vertex 446.06700254489084 318.6965892076809 7.165063509461131
    vertex 448.5670025448909 318.6965892076809 7.165063509461131
  endloop
endfacet
facet normal 3.669415211885406e-30 1.0 -1.6011266386802482e-15
  outer loop
    vertex 448.5670025448909 318.6965892076809 7.165063509461131
    vertex 446.06700254489084 318.6965892076809 7.165063509461131
    vertex 446.6699549321346 318.6965892076809 7.41481456572271
  endloop
endfacet
facet normal 3.669415211885406e-30 1.0 -1.6011266386802482e-15
  outer loop
    vertex 448.5670025448909 318.6965892076809 7.165063509461131
    vertex 446.6699549321346 318.6965892076809 7.41481456572271
    vertex 447.9640501576472 318.6965892076809 7.41481456572271
  endloop
endfacet
facet normal 3.669415211885406e-30 1.0 -1.6011266386802482e-15
  outer loop
    vertex 447.9640501576472 318.6965892076809 7.41481456572271
    vertex 446.6699549321346 318.6965892076809 7.41481456572271
    vertex 447.31700254489084 318.696589207681 7.500000000000043
  endloop
endfacet
facet normal -0.9914448613738102 -2.0898896340902322e-16 -0.13052619222005388
  outer loop
    vertex 444.81700254489084 318.6965892076809 5.000000000000025
    vertex 444.9021879791682 308.6965892076809 4.352952387243735
    vertex 444.81700254489084 308.6965892076809 5.000000000000047
  endloop
endfacet
facet normal -0.9914448613738102 -2.0898896340902322e-16 -0.13052619222005388
  outer loop
    vertex 444.9021879791682 308.6965892076809 4.352952387243735
    vertex 444.81700254489084 318.6965892076809 5.000000000000025
    vertex 444.9021879791682 318.6965892076809 4.352952387243712
  endloop
endfacet
facet normal -0.9914448613738102 2.0898896340903046e-16 0.13052619222005388
  outer loop
    vertex 444.9021879791682 318.6965892076809 5.647047612756337
    vertex 444.81700254489084 308.6965892076809 5.000000000000047
    vertex 444.9021879791682 308.6965892076809 5.64704761275636
  endloop
endfacet
facet normal -0.9914448613738102 2.0898896340903046e-16 0.13052619222005388
  outer loop
    vertex 444.81700254489084 308.6965892076809 5.000000000000047
    vertex 444.9021879791682 318.6965892076809 5.647047612756337
    vertex 444.81700254489084 318.6965892076809 5.000000000000025
  endloop
endfacet
facet normal -0.9238795325112836 6.127246377413523e-16 0.3826834323650976
  outer loop
    vertex 445.1519390354298 318.6965892076809 6.250000000000034
    vertex 444.9021879791682 308.6965892076809 5.64704761275636
    vertex 445.1519390354298 308.6965892076809 6.250000000000056
  endloop
endfacet
facet normal -0.9238795325112836 6.127246377413523e-16 0.3826834323650976
  outer loop
    vertex 444.9021879791682 308.6965892076809 5.64704761275636
    vertex 445.1519390354298 318.6965892076809 6.250000000000034
    vertex 444.9021879791682 318.6965892076809 5.647047612756337
  endloop
endfacet
facet normal -0.7933533402912453 9.74704140586899e-16 0.6087614290087074
  outer loop
    vertex 445.54923559192446 318.6965892076809 6.767766952966398
    vertex 445.1519390354298 308.6965892076809 6.250000000000056
    vertex 445.54923559192446 308.6965892076809 6.76776695296642
  endloop
endfacet
facet normal -0.7933533402912453 9.74704140586899e-16 0.6087614290087074
  outer loop
    vertex 445.1519390354298 308.6965892076809 6.250000000000056
    vertex 445.54923559192446 318.6965892076809 6.767766952966398
    vertex 445.1519390354298 318.6965892076809 6.250000000000034
  endloop
endfacet
facet normal -0.6087614290086959 1.2702591670262853e-15 0.7933533402912544
  outer loop
    vertex 446.06700254489084 308.6965892076809 7.165063509461153
    vertex 445.54923559192446 318.6965892076809 6.767766952966398
    vertex 445.54923559192446 308.6965892076809 6.76776695296642
  endloop
endfacet
facet normal -0.6087614290086959 1.2702591670262853e-15 0.7933533402912544
  outer loop
    vertex 445.54923559192446 318.6965892076809 6.767766952966398
    vertex 446.06700254489084 308.6965892076809 7.165063509461153
    vertex 446.06700254489084 318.6965892076809 7.165063509461131
  endloop
endfacet
facet normal -0.3826834323650976 1.4792481304352718e-15 0.9238795325112836
  outer loop
    vertex 446.6699549321346 308.6965892076809 7.414814565722733
    vertex 446.06700254489084 318.6965892076809 7.165063509461131
    vertex 446.06700254489084 308.6965892076809 7.165063509461153
  endloop
endfacet
facet normal -0.3826834323650976 1.4792481304352718e-15 0.9238795325112836
  outer loop
    vertex 446.06700254489084 318.6965892076809 7.165063509461131
    vertex 446.6699549321346 308.6965892076809 7.414814565722733
    vertex 446.6699549321346 318.6965892076809 7.41481456572271
  endloop
endfacet
facet normal -0.13052619222005837 1.5874287783282527e-15 0.9914448613738096
  outer loop
    vertex 447.31700254489084 308.6965892076809 7.500000000000065
    vertex 446.6699549321346 318.6965892076809 7.41481456572271
    vertex 446.6699549321346 308.6965892076809 7.414814565722733
  endloop
endfacet
facet normal -0.13052619222005837 1.5874287783282527e-15 0.9914448613738096
  outer loop
    vertex 446.6699549321346 318.6965892076809 7.41481456572271
    vertex 447.31700254489084 308.6965892076809 7.500000000000065
    vertex 447.31700254489084 318.696589207681 7.500000000000043
  endloop
endfacet
facet normal 0.13052619222005837 1.5874287783282518e-15 0.9914448613738096
  outer loop
    vertex 447.9640501576472 308.6965892076809 7.414814565722733
    vertex 447.31700254489084 318.696589207681 7.500000000000043
    vertex 447.31700254489084 308.6965892076809 7.500000000000065
  endloop
endfacet
facet normal 0.13052619222005837 1.5874287783282518e-15 0.9914448613738096
  outer loop
    vertex 447.31700254489084 318.696589207681 7.500000000000043
    vertex 447.9640501576472 308.6965892076809 7.414814565722733
    vertex 447.9640501576472 318.6965892076809 7.41481456572271
  endloop
endfacet
facet normal 0.3826834323650732 1.4792481304352852e-15 0.9238795325112937
  outer loop
    vertex 448.5670025448909 308.6965892076809 7.165063509461153
    vertex 447.9640501576472 318.6965892076809 7.41481456572271
    vertex 447.9640501576472 308.6965892076809 7.414814565722733
  endloop
endfacet
facet normal 0.3826834323650732 1.4792481304352852e-15 0.9238795325112937
  outer loop
    vertex 447.9640501576472 318.6965892076809 7.41481456572271
    vertex 448.5670025448909 308.6965892076809 7.165063509461153
    vertex 448.5670025448909 318.6965892076809 7.165063509461131
  endloop
endfacet
facet normal 0.6087614290087292 1.27025916702624e-15 0.7933533402912287
  outer loop
    vertex 449.0847694978572 308.6965892076809 6.76776695296642
    vertex 448.5670025448909 318.6965892076809 7.165063509461131
    vertex 448.5670025448909 308.6965892076809 7.165063509461153
  endloop
endfacet
facet normal 0.6087614290087292 1.27025916702624e-15 0.7933533402912287
  outer loop
    vertex 448.5670025448909 318.6965892076809 7.165063509461131
    vertex 449.0847694978572 308.6965892076809 6.76776695296642
    vertex 449.0847694978572 318.6965892076809 6.767766952966398
  endloop
endfacet
facet normal 0.7933533402912453 9.747041405868933e-16 0.6087614290087074
  outer loop
    vertex 449.482066054352 318.6965892076809 6.250000000000034
    vertex 449.0847694978572 308.6965892076809 6.76776695296642
    vertex 449.482066054352 308.6965892076809 6.250000000000056
  endloop
endfacet
facet normal 0.7933533402912453 9.747041405868933e-16 0.6087614290087074
  outer loop
    vertex 449.0847694978572 308.6965892076809 6.76776695296642
    vertex 449.482066054352 318.6965892076809 6.250000000000034
    vertex 449.0847694978572 318.6965892076809 6.767766952966398
  endloop
endfacet
facet normal 0.9238795325112836 6.127246377413456e-16 0.3826834323650976
  outer loop
    vertex 449.7318171106136 318.6965892076809 5.647047612756337
    vertex 449.482066054352 308.6965892076809 6.250000000000056
    vertex 449.7318171106136 308.6965892076809 5.64704761275636
  endloop
endfacet
facet normal 0.9238795325112836 6.127246377413456e-16 0.3826834323650976
  outer loop
    vertex 449.482066054352 308.6965892076809 6.250000000000056
    vertex 449.7318171106136 318.6965892076809 5.647047612756337
    vertex 449.482066054352 318.6965892076809 6.250000000000034
  endloop
endfacet
facet normal 0.9914448613738102 2.0898896340902322e-16 0.13052619222005388
  outer loop
    vertex 449.8170025448909 318.6965892076809 5.000000000000025
    vertex 449.7318171106136 308.6965892076809 5.64704761275636
    vertex 449.8170025448909 308.6965892076809 5.000000000000047
  endloop
endfacet
facet normal 0.9914448613738102 2.0898896340902322e-16 0.13052619222005388
  outer loop
    vertex 449.7318171106136 308.6965892076809 5.64704761275636
    vertex 449.8170025448909 318.6965892076809 5.000000000000025
    vertex 449.7318171106136 318.6965892076809 5.647047612756337
  endloop
endfacet
facet normal 0.9914448613738102 -2.0898896340903046e-16 -0.13052619222005388
  outer loop
    vertex 449.7318171106136 318.6965892076809 4.352952387243712
    vertex 449.8170025448909 308.6965892076809 5.000000000000047
    vertex 449.7318171106136 308.6965892076809 4.352952387243735
  endloop
endfacet
facet normal 0.9914448613738102 -2.0898896340903046e-16 -0.13052619222005388
  outer loop
    vertex 449.8170025448909 308.6965892076809 5.000000000000047
    vertex 449.7318171106136 318.6965892076809 4.352952387243712
    vertex 449.8170025448909 318.6965892076809 5.000000000000025
  endloop
endfacet
facet normal 0.9238795325112836 -6.127246377413523e-16 -0.3826834323650976
  outer loop
    vertex 449.482066054352 318.6965892076809 3.7500000000000155
    vertex 449.7318171106136 308.6965892076809 4.352952387243735
    vertex 449.482066054352 308.6965892076809 3.750000000000038
  endloop
endfacet
facet normal 0.9238795325112836 -6.127246377413523e-16 -0.3826834323650976
  outer loop
    vertex 449.7318171106136 308.6965892076809 4.352952387243735
    vertex 449.482066054352 318.6965892076809 3.7500000000000155
    vertex 449.7318171106136 318.6965892076809 4.352952387243712
  endloop
endfacet
facet normal 0.793353340291239 -9.747041405869126e-16 -0.6087614290087159
  outer loop
    vertex 449.0847694978572 318.6965892076809 3.2322330470336853
    vertex 449.482066054352 308.6965892076809 3.750000000000038
    vertex 449.0847694978572 308.6965892076809 3.2322330470336964
  endloop
endfacet
facet normal 0.793353340291239 -9.747041405869126e-16 -0.6087614290087159
  outer loop
    vertex 449.482066054352 308.6965892076809 3.750000000000038
    vertex 449.0847694978572 318.6965892076809 3.2322330470336853
    vertex 449.482066054352 318.6965892076809 3.7500000000000155
  endloop
endfacet
facet normal 0.6087614290086959 -1.2702591670262853e-15 -0.7933533402912544
  outer loop
    vertex 449.0847694978572 318.6965892076809 3.2322330470336853
    vertex 448.56700254489084 308.6965892076809 2.8349364905389636
    vertex 448.56700254489084 318.6965892076809 2.834936490538952
  endloop
endfacet
facet normal 0.6087614290086959 -1.2702591670262853e-15 -0.7933533402912544
  outer loop
    vertex 448.56700254489084 308.6965892076809 2.8349364905389636
    vertex 449.0847694978572 318.6965892076809 3.2322330470336853
    vertex 449.0847694978572 308.6965892076809 3.2322330470336964
  endloop
endfacet
facet normal 0.38268343236508284 -1.4792481304352817e-15 -0.9238795325112896
  outer loop
    vertex 448.56700254489084 318.6965892076809 2.834936490538952
    vertex 447.9640501576472 308.6965892076809 2.5851854342773954
    vertex 447.9640501576472 318.6965892076809 2.585185434277384
  endloop
endfacet
facet normal 0.38268343236508284 -1.4792481304352817e-15 -0.9238795325112896
  outer loop
    vertex 447.9640501576472 308.6965892076809 2.5851854342773954
    vertex 448.56700254489084 318.6965892076809 2.834936490538952
    vertex 448.56700254489084 308.6965892076809 2.8349364905389636
  endloop
endfacet
facet normal 0.13052619222005837 -1.5874287783282527e-15 -0.9914448613738096
  outer loop
    vertex 447.9640501576472 318.6965892076809 2.585185434277384
    vertex 447.31700254489084 308.6965892076809 2.500000000000063
    vertex 447.31700254489084 318.6965892076809 2.500000000000052
  endloop
endfacet
facet normal 0.13052619222005837 -1.5874287783282527e-15 -0.9914448613738096
  outer loop
    vertex 447.31700254489084 308.6965892076809 2.500000000000063
    vertex 447.9640501576472 318.6965892076809 2.585185434277384
    vertex 447.9640501576472 308.6965892076809 2.5851854342773954
  endloop
endfacet
facet normal -0.13052619222005837 -1.5874287783282518e-15 -0.9914448613738096
  outer loop
    vertex 447.31700254489084 318.6965892076809 2.500000000000052
    vertex 446.6699549321346 308.6965892076809 2.5851854342773954
    vertex 446.6699549321346 318.6965892076809 2.585185434277384
  endloop
endfacet
facet normal -0.13052619222005837 -1.5874287783282518e-15 -0.9914448613738096
  outer loop
    vertex 446.6699549321346 308.6965892076809 2.5851854342773954
    vertex 447.31700254489084 318.6965892076809 2.500000000000052
    vertex 447.31700254489084 308.6965892076809 2.500000000000063
  endloop
endfacet
facet normal -0.3826834323650732 -1.4792481304352852e-15 -0.9238795325112937
  outer loop
    vertex 446.6699549321346 318.6965892076809 2.585185434277384
    vertex 446.06700254489084 308.6965892076809 2.8349364905389747
    vertex 446.06700254489084 318.6965892076809 2.8349364905389636
  endloop
endfacet
facet normal -0.3826834323650732 -1.4792481304352852e-15 -0.9238795325112937
  outer loop
    vertex 446.06700254489084 308.6965892076809 2.8349364905389747
    vertex 446.6699549321346 318.6965892076809 2.585185434277384
    vertex 446.6699549321346 308.6965892076809 2.5851854342773954
  endloop
endfacet
facet normal -0.6087614290087184 -1.2702591670262533e-15 -0.793353340291237
  outer loop
    vertex 446.06700254489084 318.6965892076809 2.8349364905389636
    vertex 445.54923559192446 308.6965892076809 3.2322330470336964
    vertex 445.54923559192446 318.6965892076809 3.2322330470336853
  endloop
endfacet
facet normal -0.6087614290087184 -1.2702591670262533e-15 -0.793353340291237
  outer loop
    vertex 445.54923559192446 308.6965892076809 3.2322330470336964
    vertex 446.06700254489084 318.6965892076809 2.8349364905389636
    vertex 446.06700254489084 308.6965892076809 2.8349364905389747
  endloop
endfacet
facet normal -0.793353340291239 -9.747041405869069e-16 -0.6087614290087159
  outer loop
    vertex 445.1519390354298 318.6965892076809 3.7500000000000155
    vertex 445.54923559192446 308.6965892076809 3.2322330470336964
    vertex 445.1519390354298 308.6965892076809 3.750000000000038
  endloop
endfacet
facet normal -0.793353340291239 -9.747041405869069e-16 -0.6087614290087159
  outer loop
    vertex 445.54923559192446 308.6965892076809 3.2322330470336964
    vertex 445.1519390354298 318.6965892076809 3.7500000000000155
    vertex 445.54923559192446 318.6965892076809 3.2322330470336853
  endloop
endfacet
facet normal -0.9238795325112836 -6.127246377413456e-16 -0.3826834323650976
  outer loop
    vertex 444.9021879791682 318.6965892076809 4.352952387243712
    vertex 445.1519390354298 308.6965892076809 3.750000000000038
    vertex 444.9021879791682 308.6965892076809 4.352952387243735
  endloop
endfacet
facet normal -0.9238795325112836 -6.127246377413456e-16 -0.3826834323650976
  outer loop
    vertex 445.1519390354298 308.6965892076809 3.750000000000038
    vertex 444.9021879791682 318.6965892076809 4.352952387243712
    vertex 445.1519390354298 318.6965892076809 3.7500000000000155
  endloop
endfacet
facet normal 1.0758181052961575e-29 1.0 -4.506596990426975e-15
  outer loop
    vertex 492.378291131371 318.6965892076809 2.58518543427735
    vertex 493.6723863568836 318.6965892076809 2.58518543427735
    vertex 493.0253387441273 318.6965892076809 2.5000000000000178
  endloop
endfacet
facet normal 1.0758181052961575e-29 1.0 -4.506596990426975e-15
  outer loop
    vertex 493.6723863568836 318.6965892076809 2.58518543427735
    vertex 492.378291131371 318.6965892076809 2.58518543427735
    vertex 491.7753387441272 318.6965892076809 2.8349364905389294
  endloop
endfacet
facet normal 1.0758181052961575e-29 1.0 -4.506596990426975e-15
  outer loop
    vertex 493.6723863568836 318.6965892076809 2.58518543427735
    vertex 491.7753387441272 318.6965892076809 2.8349364905389294
    vertex 494.2753387441273 318.6965892076809 2.8349364905389183
  endloop
endfacet
facet normal 1.0758181052961575e-29 1.0 -4.506596990426975e-15
  outer loop
    vertex 494.2753387441273 318.6965892076809 2.8349364905389183
    vertex 491.7753387441272 318.6965892076809 2.8349364905389294
    vertex 494.7931056970937 318.6965892076809 3.2322330470336516
  endloop
endfacet
facet normal 1.0758181052961575e-29 1.0 -4.506596990426975e-15
  outer loop
    vertex 494.7931056970937 318.6965892076809 3.2322330470336516
    vertex 491.7753387441272 318.6965892076809 2.8349364905389294
    vertex 491.2575717911609 318.6965892076809 3.2322330470336516
  endloop
endfacet
facet normal 1.0758181052961575e-29 1.0 -4.506596990426975e-15
  outer loop
    vertex 494.7931056970937 318.6965892076809 3.2322330470336516
    vertex 491.2575717911609 318.6965892076809 3.2322330470336516
    vertex 490.8602752346662 318.6965892076809 3.7499999999999933
  endloop
endfacet
facet normal 1.0758181052961575e-29 1.0 -4.506596990426975e-15
  outer loop
    vertex 494.7931056970937 318.6965892076809 3.2322330470336516
    vertex 490.8602752346662 318.6965892076809 3.7499999999999933
    vertex 495.1904022535884 318.6965892076809 3.7499999999999933
  endloop
endfacet
facet normal 1.0758181052961575e-29 1.0 -4.506596990426975e-15
  outer loop
    vertex 495.1904022535884 318.6965892076809 3.7499999999999933
    vertex 490.8602752346662 318.6965892076809 3.7499999999999933
    vertex 490.6105241784046 318.6965892076809 4.35295238724369
  endloop
endfacet
facet normal 1.0758181052961575e-29 1.0 -4.506596990426975e-15
  outer loop
    vertex 495.1904022535884 318.6965892076809 3.7499999999999933
    vertex 490.6105241784046 318.6965892076809 4.35295238724369
    vertex 495.44015330984996 318.6965892076809 4.35295238724369
  endloop
endfacet
facet normal 1.0758181052961575e-29 1.0 -4.506596990426975e-15
  outer loop
    vertex 495.44015330984996 318.6965892076809 4.35295238724369
    vertex 490.6105241784046 318.6965892076809 4.35295238724369
    vertex 490.5253387441272 318.6965892076809 5.000000000000002
  endloop
endfacet
facet normal 1.0758181052961575e-29 1.0 -4.506596990426975e-15
  outer loop
    vertex 495.44015330984996 318.6965892076809 4.35295238724369
    vertex 490.5253387441272 318.6965892076809 5.000000000000002
    vertex 495.5253387441273 318.6965892076809 5.000000000000002
  endloop
endfacet
facet normal 1.0758181052961575e-29 1.0 -4.506596990426975e-15
  outer loop
    vertex 495.5253387441273 318.6965892076809 5.000000000000002
    vertex 490.5253387441272 318.6965892076809 5.000000000000002
    vertex 490.6105241784046 318.6965892076809 5.647047612756315
  endloop
endfacet
facet normal 1.0758181052961575e-29 1.0 -4.506596990426975e-15
  outer loop
    vertex 495.5253387441273 318.6965892076809 5.000000000000002
    vertex 490.6105241784046 318.6965892076809 5.647047612756315
    vertex 495.44015330984996 318.6965892076809 5.647047612756315
  endloop
endfacet
facet normal 1.0758181052961575e-29 1.0 -4.506596990426975e-15
  outer loop
    vertex 495.44015330984996 318.6965892076809 5.647047612756315
    vertex 490.6105241784046 318.6965892076809 5.647047612756315
    vertex 490.8602752346662 318.6965892076809 6.2500000000000115
  endloop
endfacet
facet normal 1.0758181052961575e-29 1.0 -4.506596990426975e-15
  outer loop
    vertex 495.44015330984996 318.6965892076809 5.647047612756315
    vertex 490.8602752346662 318.6965892076809 6.2500000000000115
    vertex 495.1904022535884 318.6965892076809 6.2500000000000115
  endloop
endfacet
facet normal 1.0758181052961575e-29 1.0 -4.506596990426975e-15
  outer loop
    vertex 495.1904022535884 318.6965892076809 6.2500000000000115
    vertex 490.8602752346662 318.6965892076809 6.2500000000000115
    vertex 491.2575717911609 318.6965892076809 6.767766952966375
  endloop
endfacet
facet normal 1.0758181052961575e-29 1.0 -4.506596990426975e-15
  outer loop
    vertex 495.1904022535884 318.6965892076809 6.2500000000000115
    vertex 491.2575717911609 318.6965892076809 6.767766952966375
    vertex 494.7931056970937 318.6965892076809 6.767766952966375
  endloop
endfacet
facet normal 1.0758181052961575e-29 1.0 -4.506596990426975e-15
  outer loop
    vertex 494.7931056970937 318.6965892076809 6.767766952966375
    vertex 491.2575717911609 318.6965892076809 6.767766952966375
    vertex 491.77533874412734 318.6965892076809 7.165063509461109
  endloop
endfacet
facet normal 1.0758181052961575e-29 1.0 -4.506596990426975e-15
  outer loop
    vertex 494.7931056970937 318.6965892076809 6.767766952966375
    vertex 491.77533874412734 318.6965892076809 7.165063509461109
    vertex 494.2753387441273 318.6965892076809 7.165063509461109
  endloop
endfacet
facet normal 1.0758181052961575e-29 1.0 -4.506596990426975e-15
  outer loop
    vertex 494.2753387441273 318.6965892076809 7.165063509461109
    vertex 491.77533874412734 318.6965892076809 7.165063509461109
    vertex 492.378291131371 318.696589207681 7.414814565722688
  endloop
endfacet
facet normal 1.0758181052961575e-29 1.0 -4.506596990426975e-15
  outer loop
    vertex 494.2753387441273 318.6965892076809 7.165063509461109
    vertex 492.378291131371 318.696589207681 7.414814565722688
    vertex 493.6723863568836 318.696589207681 7.414814565722688
  endloop
endfacet
facet normal 1.0758181052961575e-29 1.0 -4.506596990426975e-15
  outer loop
    vertex 493.6723863568836 318.696589207681 7.414814565722688
    vertex 492.378291131371 318.696589207681 7.414814565722688
    vertex 493.0253387441273 318.696589207681 7.50000000000002
  endloop
endfacet
facet normal -0.9914448613738102 -5.88228945030777e-16 -0.13052619222005388
  outer loop
    vertex 490.5253387441272 318.6965892076809 5.000000000000002
    vertex 490.6105241784046 308.6965892076809 4.352952387243735
    vertex 490.5253387441272 308.6965892076809 5.000000000000047
  endloop
endfacet
facet normal -0.9914448613738102 -5.88228945030777e-16 -0.13052619222005388
  outer loop
    vertex 490.6105241784046 308.6965892076809 4.352952387243735
    vertex 490.5253387441272 318.6965892076809 5.000000000000002
    vertex 490.6105241784046 318.6965892076809 4.35295238724369
  endloop
endfacet
facet normal -0.9914448613738102 5.882289450307983e-16 0.13052619222005388
  outer loop
    vertex 490.6105241784046 318.6965892076809 5.647047612756315
    vertex 490.5253387441272 308.6965892076809 5.000000000000047
    vertex 490.6105241784046 308.6965892076809 5.64704761275636
  endloop
endfacet
facet normal -0.9914448613738102 5.882289450307983e-16 0.13052619222005388
  outer loop
    vertex 490.5253387441272 308.6965892076809 5.000000000000047
    vertex 490.6105241784046 318.6965892076809 5.647047612756315
    vertex 490.5253387441272 318.6965892076809 5.000000000000002
  endloop
endfacet
facet normal -0.9238795325112836 1.7246000045828236e-15 0.3826834323650976
  outer loop
    vertex 490.8602752346662 318.6965892076809 6.2500000000000115
    vertex 490.6105241784046 308.6965892076809 5.64704761275636
    vertex 490.8602752346662 308.6965892076809 6.250000000000056
  endloop
endfacet
facet normal -0.9238795325112836 1.7246000045828236e-15 0.3826834323650976
  outer loop
    vertex 490.6105241784046 308.6965892076809 5.64704761275636
    vertex 490.8602752346662 318.6965892076809 6.2500000000000115
    vertex 490.6105241784046 318.6965892076809 5.647047612756315
  endloop
endfacet
facet normal -0.7933533402912453 2.743442423858674e-15 0.6087614290087074
  outer loop
    vertex 491.2575717911609 318.6965892076809 6.767766952966375
    vertex 490.8602752346662 308.6965892076809 6.250000000000056
    vertex 491.2575717911609 308.6965892076809 6.76776695296642
  endloop
endfacet
facet normal -0.7933533402912453 2.743442423858674e-15 0.6087614290087074
  outer loop
    vertex 490.8602752346662 308.6965892076809 6.250000000000056
    vertex 491.2575717911609 318.6965892076809 6.767766952966375
    vertex 490.8602752346662 318.6965892076809 6.2500000000000115
  endloop
endfacet
facet normal -0.6087614290086959 3.575323775701761e-15 0.7933533402912544
  outer loop
    vertex 491.77533874412734 308.6965892076809 7.165063509461153
    vertex 491.2575717911609 318.6965892076809 6.767766952966375
    vertex 491.2575717911609 308.6965892076809 6.76776695296642
  endloop
endfacet
facet normal -0.6087614290086959 3.575323775701761e-15 0.7933533402912544
  outer loop
    vertex 491.2575717911609 318.6965892076809 6.767766952966375
    vertex 491.77533874412734 308.6965892076809 7.165063509461153
    vertex 491.77533874412734 318.6965892076809 7.165063509461109
  endloop
endfacet
facet normal -0.3826834323650976 4.163552720732435e-15 0.9238795325112836
  outer loop
    vertex 492.378291131371 308.6965892076809 7.414814565722733
    vertex 491.77533874412734 318.6965892076809 7.165063509461109
    vertex 491.77533874412734 308.6965892076809 7.165063509461153
  endloop
endfacet
facet normal -0.3826834323650976 4.163552720732435e-15 0.9238795325112836
  outer loop
    vertex 491.77533874412734 318.6965892076809 7.165063509461109
    vertex 492.378291131371 308.6965892076809 7.414814565722733
    vertex 492.378291131371 318.696589207681 7.414814565722688
  endloop
endfacet
facet normal -0.13052619222005837 4.468042428441501e-15 0.9914448613738096
  outer loop
    vertex 493.0253387441273 308.6965892076809 7.500000000000065
    vertex 492.378291131371 318.696589207681 7.414814565722688
    vertex 492.378291131371 308.6965892076809 7.414814565722733
  endloop
endfacet
facet normal -0.13052619222005837 4.468042428441501e-15 0.9914448613738096
  outer loop
    vertex 492.378291131371 318.696589207681 7.414814565722688
    vertex 493.0253387441273 308.6965892076809 7.500000000000065
    vertex 493.0253387441273 318.696589207681 7.50000000000002
  endloop
endfacet
facet normal 0.13052619222005837 4.468042428441499e-15 0.9914448613738096
  outer loop
    vertex 493.6723863568836 308.6965892076809 7.414814565722733
    vertex 493.0253387441273 318.696589207681 7.50000000000002
    vertex 493.0253387441273 308.6965892076809 7.500000000000065
  endloop
endfacet
facet normal 0.13052619222005837 4.468042428441499e-15 0.9914448613738096
  outer loop
    vertex 493.0253387441273 318.696589207681 7.50000000000002
    vertex 493.6723863568836 308.6965892076809 7.414814565722733
    vertex 493.6723863568836 318.696589207681 7.414814565722688
  endloop
endfacet
facet normal 0.3826834323650732 4.163552720732472e-15 0.9238795325112937
  outer loop
    vertex 494.2753387441273 308.6965892076809 7.165063509461153
    vertex 493.6723863568836 318.696589207681 7.414814565722688
    vertex 493.6723863568836 308.6965892076809 7.414814565722733
  endloop
endfacet
facet normal 0.3826834323650732 4.163552720732472e-15 0.9238795325112937
  outer loop
    vertex 493.6723863568836 318.696589207681 7.414814565722688
    vertex 494.2753387441273 308.6965892076809 7.165063509461153
    vertex 494.2753387441273 318.6965892076809 7.165063509461109
  endloop
endfacet
facet normal 0.6087614290087292 3.575323775701633e-15 0.7933533402912287
  outer loop
    vertex 494.7931056970937 308.6965892076809 6.76776695296642
    vertex 494.2753387441273 318.6965892076809 7.165063509461109
    vertex 494.2753387441273 308.6965892076809 7.165063509461153
  endloop
endfacet
facet normal 0.6087614290087292 3.575323775701633e-15 0.7933533402912287
  outer loop
    vertex 494.2753387441273 318.6965892076809 7.165063509461109
    vertex 494.7931056970937 308.6965892076809 6.76776695296642
    vertex 494.7931056970937 318.6965892076809 6.767766952966375
  endloop
endfacet
facet normal 0.7933533402912453 2.7434424238586565e-15 0.6087614290087074
  outer loop
    vertex 495.1904022535884 318.6965892076809 6.2500000000000115
    vertex 494.7931056970937 308.6965892076809 6.76776695296642
    vertex 495.1904022535884 308.6965892076809 6.250000000000056
  endloop
endfacet
facet normal 0.7933533402912453 2.7434424238586565e-15 0.6087614290087074
  outer loop
    vertex 494.7931056970937 308.6965892076809 6.76776695296642
    vertex 495.1904022535884 318.6965892076809 6.2500000000000115
    vertex 494.7931056970937 318.6965892076809 6.767766952966375
  endloop
endfacet
facet normal 0.9238795325112836 1.7246000045828039e-15 0.3826834323650976
  outer loop
    vertex 495.44015330984996 318.6965892076809 5.647047612756315
    vertex 495.1904022535884 308.6965892076809 6.250000000000056
    vertex 495.44015330984996 308.6965892076809 5.64704761275636
  endloop
endfacet
facet normal 0.9238795325112836 1.7246000045828039e-15 0.3826834323650976
  outer loop
    vertex 495.1904022535884 308.6965892076809 6.250000000000056
    vertex 495.44015330984996 318.6965892076809 5.647047612756315
    vertex 495.1904022535884 318.6965892076809 6.2500000000000115
  endloop
endfacet
facet normal 0.9914448613738102 5.88228945030777e-16 0.13052619222005388
  outer loop
    vertex 495.5253387441273 318.6965892076809 5.000000000000002
    vertex 495.44015330984996 308.6965892076809 5.64704761275636
    vertex 495.5253387441273 308.6965892076809 5.000000000000047
  endloop
endfacet
facet normal 0.9914448613738102 5.88228945030777e-16 0.13052619222005388
  outer loop
    vertex 495.44015330984996 308.6965892076809 5.64704761275636
    vertex 495.5253387441273 318.6965892076809 5.000000000000002
    vertex 495.44015330984996 318.6965892076809 5.647047612756315
  endloop
endfacet
facet normal 0.9914448613738102 -5.882289450307983e-16 -0.13052619222005388
  outer loop
    vertex 495.44015330984996 318.6965892076809 4.35295238724369
    vertex 495.5253387441273 308.6965892076809 5.000000000000047
    vertex 495.44015330984996 308.6965892076809 4.352952387243735
  endloop
endfacet
facet normal 0.9914448613738102 -5.882289450307983e-16 -0.13052619222005388
  outer loop
    vertex 495.5253387441273 308.6965892076809 5.000000000000047
    vertex 495.44015330984996 318.6965892076809 4.35295238724369
    vertex 495.5253387441273 318.6965892076809 5.000000000000002
  endloop
endfacet
facet normal 0.9238795325112836 -1.7246000045828236e-15 -0.3826834323650976
  outer loop
    vertex 495.1904022535884 318.6965892076809 3.7499999999999933
    vertex 495.44015330984996 308.6965892076809 4.352952387243735
    vertex 495.1904022535884 308.6965892076809 3.750000000000038
  endloop
endfacet
facet normal 0.9238795325112836 -1.7246000045828236e-15 -0.3826834323650976
  outer loop
    vertex 495.44015330984996 308.6965892076809 4.352952387243735
    vertex 495.1904022535884 318.6965892076809 3.7499999999999933
    vertex 495.44015330984996 318.6965892076809 4.35295238724369
  endloop
endfacet
facet normal 0.793353340291239 -2.7434424238587125e-15 -0.6087614290087159
  outer loop
    vertex 494.7931056970937 318.6965892076809 3.2322330470336516
    vertex 495.1904022535884 308.6965892076809 3.750000000000038
    vertex 494.7931056970937 308.6965892076809 3.2322330470336964
  endloop
endfacet
facet normal 0.793353340291239 -2.7434424238587125e-15 -0.6087614290087159
  outer loop
    vertex 495.1904022535884 308.6965892076809 3.750000000000038
    vertex 494.7931056970937 318.6965892076809 3.2322330470336516
    vertex 495.1904022535884 318.6965892076809 3.7499999999999933
  endloop
endfacet
facet normal 0.6087614290086959 -3.575323775701761e-15 -0.7933533402912544
  outer loop
    vertex 494.7931056970937 318.6965892076809 3.2322330470336516
    vertex 494.2753387441273 308.6965892076809 2.8349364905389636
    vertex 494.2753387441273 318.6965892076809 2.8349364905389183
  endloop
endfacet
facet normal 0.6087614290086959 -3.575323775701761e-15 -0.7933533402912544
  outer loop
    vertex 494.2753387441273 308.6965892076809 2.8349364905389636
    vertex 494.7931056970937 318.6965892076809 3.2322330470336516
    vertex 494.7931056970937 308.6965892076809 3.2322330470336964
  endloop
endfacet
facet normal 0.38268343236508284 -4.163552720732463e-15 -0.9238795325112896
  outer loop
    vertex 494.2753387441273 318.6965892076809 2.8349364905389183
    vertex 493.6723863568836 308.6965892076809 2.5851854342773954
    vertex 493.6723863568836 318.6965892076809 2.58518543427735
  endloop
endfacet
facet normal 0.38268343236508284 -4.163552720732463e-15 -0.9238795325112896
  outer loop
    vertex 493.6723863568836 308.6965892076809 2.5851854342773954
    vertex 494.2753387441273 318.6965892076809 2.8349364905389183
    vertex 494.2753387441273 308.6965892076809 2.8349364905389636
  endloop
endfacet
facet normal 0.13052619222005837 -4.468042428441501e-15 -0.9914448613738096
  outer loop
    vertex 493.6723863568836 318.6965892076809 2.58518543427735
    vertex 493.0253387441273 308.6965892076809 2.500000000000063
    vertex 493.0253387441273 318.6965892076809 2.5000000000000178
  endloop
endfacet
facet normal 0.13052619222005837 -4.468042428441501e-15 -0.9914448613738096
  outer loop
    vertex 493.0253387441273 308.6965892076809 2.500000000000063
    vertex 493.6723863568836 318.6965892076809 2.58518543427735
    vertex 493.6723863568836 308.6965892076809 2.5851854342773954
  endloop
endfacet
facet normal -0.13052619222005837 -4.468042428441499e-15 -0.9914448613738096
  outer loop
    vertex 493.0253387441273 318.6965892076809 2.5000000000000178
    vertex 492.378291131371 308.6965892076809 2.5851854342773954
    vertex 492.378291131371 318.6965892076809 2.58518543427735
  endloop
endfacet
facet normal -0.13052619222005837 -4.468042428441499e-15 -0.9914448613738096
  outer loop
    vertex 492.378291131371 308.6965892076809 2.5851854342773954
    vertex 493.0253387441273 318.6965892076809 2.5000000000000178
    vertex 493.0253387441273 308.6965892076809 2.500000000000063
  endloop
endfacet
facet normal -0.3826834323650732 -4.163552720732472e-15 -0.9238795325112937
  outer loop
    vertex 492.378291131371 318.6965892076809 2.58518543427735
    vertex 491.7753387441272 308.6965892076809 2.8349364905389747
    vertex 491.7753387441272 318.6965892076809 2.8349364905389294
  endloop
endfacet
facet normal -0.3826834323650732 -4.163552720732472e-15 -0.9238795325112937
  outer loop
    vertex 491.7753387441272 308.6965892076809 2.8349364905389747
    vertex 492.378291131371 318.6965892076809 2.58518543427735
    vertex 492.378291131371 308.6965892076809 2.5851854342773954
  endloop
endfacet
facet normal -0.6087614290087184 -3.57532377570167e-15 -0.793353340291237
  outer loop
    vertex 491.7753387441272 318.6965892076809 2.8349364905389294
    vertex 491.2575717911609 308.6965892076809 3.2322330470336964
    vertex 491.2575717911609 318.6965892076809 3.2322330470336516
  endloop
endfacet
facet normal -0.6087614290087184 -3.57532377570167e-15 -0.793353340291237
  outer loop
    vertex 491.2575717911609 308.6965892076809 3.2322330470336964
    vertex 491.7753387441272 318.6965892076809 2.8349364905389294
    vertex 491.7753387441272 308.6965892076809 2.8349364905389747
  endloop
endfacet
facet normal -0.793353340291239 -2.743442423858695e-15 -0.6087614290087159
  outer loop
    vertex 490.8602752346662 318.6965892076809 3.7499999999999933
    vertex 491.2575717911609 308.6965892076809 3.2322330470336964
    vertex 490.8602752346662 308.6965892076809 3.750000000000038
  endloop
endfacet
facet normal -0.793353340291239 -2.743442423858695e-15 -0.6087614290087159
  outer loop
    vertex 491.2575717911609 308.6965892076809 3.2322330470336964
    vertex 490.8602752346662 318.6965892076809 3.7499999999999933
    vertex 491.2575717911609 318.6965892076809 3.2322330470336516
  endloop
endfacet
facet normal -0.9238795325112836 -1.7246000045828039e-15 -0.3826834323650976
  outer loop
    vertex 490.6105241784046 318.6965892076809 4.35295238724369
    vertex 490.8602752346662 308.6965892076809 3.750000000000038
    vertex 490.6105241784046 308.6965892076809 4.352952387243735
  endloop
endfacet
facet normal -0.9238795325112836 -1.7246000045828039e-15 -0.3826834323650976
  outer loop
    vertex 490.8602752346662 308.6965892076809 3.750000000000038
    vertex 490.6105241784046 318.6965892076809 4.35295238724369
    vertex 490.8602752346662 318.6965892076809 3.7499999999999933
  endloop
endfacet
facet normal 3.590865039154137e-30 1.0 -1.6011266386802482e-15
  outer loop
    vertex 538.0866273306075 318.6965892076809 2.585185434277384
    vertex 539.38072255612 318.6965892076809 2.585185434277384
    vertex 538.7336749433637 318.6965892076809 2.500000000000052
  endloop
endfacet
facet normal 3.590865039154137e-30 1.0 -1.6011266386802482e-15
  outer loop
    vertex 539.38072255612 318.6965892076809 2.585185434277384
    vertex 538.0866273306075 318.6965892076809 2.585185434277384
    vertex 537.4836749433637 318.6965892076809 2.8349364905389636
  endloop
endfacet
facet normal 3.590865039154137e-30 1.0 -1.6011266386802482e-15
  outer loop
    vertex 539.38072255612 318.6965892076809 2.585185434277384
    vertex 537.4836749433637 318.6965892076809 2.8349364905389636
    vertex 539.9836749433637 318.6965892076809 2.834936490538952
  endloop
endfacet
facet normal 3.590865039154137e-30 1.0 -1.6011266386802482e-15
  outer loop
    vertex 539.9836749433637 318.6965892076809 2.834936490538952
    vertex 537.4836749433637 318.6965892076809 2.8349364905389636
    vertex 540.5014418963301 318.6965892076809 3.2322330470336853
  endloop
endfacet
facet normal 3.590865039154137e-30 1.0 -1.6011266386802482e-15
  outer loop
    vertex 540.5014418963301 318.6965892076809 3.2322330470336853
    vertex 537.4836749433637 318.6965892076809 2.8349364905389636
    vertex 536.9659079903973 318.6965892076809 3.2322330470336853
  endloop
endfacet
facet normal 3.590865039154137e-30 1.0 -1.6011266386802482e-15
  outer loop
    vertex 540.5014418963301 318.6965892076809 3.2322330470336853
    vertex 536.9659079903973 318.6965892076809 3.2322330470336853
    vertex 536.5686114339027 318.6965892076809 3.7500000000000155
  endloop
endfacet
facet normal 3.590865039154137e-30 1.0 -1.6011266386802482e-15
  outer loop
    vertex 540.5014418963301 318.6965892076809 3.2322330470336853
    vertex 536.5686114339027 318.6965892076809 3.7500000000000155
    vertex 540.8987384528249 318.6965892076809 3.7500000000000155
  endloop
endfacet
facet normal 3.590865039154137e-30 1.0 -1.6011266386802482e-15
  outer loop
    vertex 540.8987384528249 318.6965892076809 3.7500000000000155
    vertex 536.5686114339027 318.6965892076809 3.7500000000000155
    vertex 536.318860377641 318.6965892076809 4.352952387243712
  endloop
endfacet
facet normal 3.590865039154137e-30 1.0 -1.6011266386802482e-15
  outer loop
    vertex 540.8987384528249 318.6965892076809 3.7500000000000155
    vertex 536.318860377641 318.6965892076809 4.352952387243712
    vertex 541.1484895090864 318.6965892076809 4.352952387243712
  endloop
endfacet
facet normal 3.590865039154137e-30 1.0 -1.6011266386802482e-15
  outer loop
    vertex 541.1484895090864 318.6965892076809 4.352952387243712
    vertex 536.318860377641 318.6965892076809 4.352952387243712
    vertex 536.2336749433637 318.6965892076809 5.000000000000025
  endloop
endfacet
facet normal 3.590865039154137e-30 1.0 -1.6011266386802482e-15
  outer loop
    vertex 541.1484895090864 318.6965892076809 4.352952387243712
    vertex 536.2336749433637 318.6965892076809 5.000000000000025
    vertex 541.2336749433638 318.6965892076809 5.000000000000025
  endloop
endfacet
facet normal 3.590865039154137e-30 1.0 -1.6011266386802482e-15
  outer loop
    vertex 541.2336749433638 318.6965892076809 5.000000000000025
    vertex 536.2336749433637 318.6965892076809 5.000000000000025
    vertex 536.318860377641 318.6965892076809 5.647047612756337
  endloop
endfacet
facet normal 3.590865039154137e-30 1.0 -1.6011266386802482e-15
  outer loop
    vertex 541.2336749433638 318.6965892076809 5.000000000000025
    vertex 536.318860377641 318.6965892076809 5.647047612756337
    vertex 541.1484895090864 318.6965892076809 5.647047612756337
  endloop
endfacet
facet normal 3.590865039154137e-30 1.0 -1.6011266386802482e-15
  outer loop
    vertex 541.1484895090864 318.6965892076809 5.647047612756337
    vertex 536.318860377641 318.6965892076809 5.647047612756337
    vertex 536.5686114339027 318.6965892076809 6.250000000000034
  endloop
endfacet
facet normal 3.590865039154137e-30 1.0 -1.6011266386802482e-15
  outer loop
    vertex 541.1484895090864 318.6965892076809 5.647047612756337
    vertex 536.5686114339027 318.6965892076809 6.250000000000034
    vertex 540.8987384528249 318.6965892076809 6.250000000000034
  endloop
endfacet
facet normal 3.590865039154137e-30 1.0 -1.6011266386802482e-15
  outer loop
    vertex 540.8987384528249 318.6965892076809 6.250000000000034
    vertex 536.5686114339027 318.6965892076809 6.250000000000034
    vertex 536.9659079903973 318.6965892076809 6.767766952966398
  endloop
endfacet
facet normal 3.590865039154137e-30 1.0 -1.6011266386802482e-15
  outer loop
    vertex 540.8987384528249 318.6965892076809 6.250000000000034
    vertex 536.9659079903973 318.6965892076809 6.767766952966398
    vertex 540.5014418963301 318.6965892076809 6.767766952966398
  endloop
endfacet
facet normal 3.590865039154137e-30 1.0 -1.6011266386802482e-15
  outer loop
    vertex 540.5014418963301 318.6965892076809 6.767766952966398
    vertex 536.9659079903973 318.6965892076809 6.767766952966398
    vertex 537.4836749433637 318.6965892076809 7.165063509461131
  endloop
endfacet
facet normal 3.590865039154137e-30 1.0 -1.6011266386802482e-15
  outer loop
    vertex 540.5014418963301 318.6965892076809 6.767766952966398
    vertex 537.4836749433637 318.6965892076809 7.165063509461131
    vertex 539.9836749433638 318.6965892076809 7.165063509461131
  endloop
endfacet
facet normal 3.590865039154137e-30 1.0 -1.6011266386802482e-15
  outer loop
    vertex 539.9836749433638 318.6965892076809 7.165063509461131
    vertex 537.4836749433637 318.6965892076809 7.165063509461131
    vertex 538.0866273306075 318.6965892076809 7.41481456572271
  endloop
endfacet
facet normal 3.590865039154137e-30 1.0 -1.6011266386802482e-15
  outer loop
    vertex 539.9836749433638 318.6965892076809 7.165063509461131
    vertex 538.0866273306075 318.6965892076809 7.41481456572271
    vertex 539.38072255612 318.6965892076809 7.41481456572271
  endloop
endfacet
facet normal 3.590865039154137e-30 1.0 -1.6011266386802482e-15
  outer loop
    vertex 539.38072255612 318.6965892076809 7.41481456572271
    vertex 538.0866273306075 318.6965892076809 7.41481456572271
    vertex 538.7336749433637 318.6965892076809 7.500000000000043
  endloop
endfacet
facet normal -0.9914448613738102 -2.0898896340902326e-16 -0.13052619222005388
  outer loop
    vertex 536.2336749433637 318.6965892076809 5.000000000000025
    vertex 536.318860377641 308.6965892076809 4.352952387243735
    vertex 536.2336749433637 308.6965892076809 5.000000000000047
  endloop
endfacet
facet normal -0.9914448613738102 -2.0898896340902326e-16 -0.13052619222005388
  outer loop
    vertex 536.318860377641 308.6965892076809 4.352952387243735
    vertex 536.2336749433637 318.6965892076809 5.000000000000025
    vertex 536.318860377641 318.6965892076809 4.352952387243712
  endloop
endfacet
facet normal -0.9914448613738102 2.0898896340903041e-16 0.13052619222005388
  outer loop
    vertex 536.318860377641 318.6965892076809 5.647047612756337
    vertex 536.2336749433637 308.6965892076809 5.000000000000047
    vertex 536.318860377641 308.6965892076809 5.64704761275636
  endloop
endfacet
facet normal -0.9914448613738102 2.0898896340903041e-16 0.13052619222005388
  outer loop
    vertex 536.2336749433637 308.6965892076809 5.000000000000047
    vertex 536.318860377641 318.6965892076809 5.647047612756337
    vertex 536.2336749433637 318.6965892076809 5.000000000000025
  endloop
endfacet
facet normal -0.9238795325112836 6.127246377413523e-16 0.3826834323650976
  outer loop
    vertex 536.5686114339027 318.6965892076809 6.250000000000034
    vertex 536.318860377641 308.6965892076809 5.64704761275636
    vertex 536.5686114339027 308.6965892076809 6.250000000000056
  endloop
endfacet
facet normal -0.9238795325112836 6.127246377413523e-16 0.3826834323650976
  outer loop
    vertex 536.318860377641 308.6965892076809 5.64704761275636
    vertex 536.5686114339027 318.6965892076809 6.250000000000034
    vertex 536.318860377641 318.6965892076809 5.647047612756337
  endloop
endfacet
facet normal -0.7933533402912453 9.74704140586899e-16 0.6087614290087074
  outer loop
    vertex 536.9659079903973 318.6965892076809 6.767766952966398
    vertex 536.5686114339027 308.6965892076809 6.250000000000056
    vertex 536.9659079903973 308.6965892076809 6.76776695296642
  endloop
endfacet
facet normal -0.7933533402912453 9.74704140586899e-16 0.6087614290087074
  outer loop
    vertex 536.5686114339027 308.6965892076809 6.250000000000056
    vertex 536.9659079903973 318.6965892076809 6.767766952966398
    vertex 536.5686114339027 318.6965892076809 6.250000000000034
  endloop
endfacet
facet normal -0.6087614290086959 1.2702591670262853e-15 0.7933533402912544
  outer loop
    vertex 537.4836749433637 308.6965892076809 7.165063509461153
    vertex 536.9659079903973 318.6965892076809 6.767766952966398
    vertex 536.9659079903973 308.6965892076809 6.76776695296642
  endloop
endfacet
facet normal -0.6087614290086959 1.2702591670262853e-15 0.7933533402912544
  outer loop
    vertex 536.9659079903973 318.6965892076809 6.767766952966398
    vertex 537.4836749433637 308.6965892076809 7.165063509461153
    vertex 537.4836749433637 318.6965892076809 7.165063509461131
  endloop
endfacet
facet normal -0.3826834323650976 1.4792481304352718e-15 0.9238795325112836
  outer loop
    vertex 538.0866273306075 308.6965892076809 7.414814565722733
    vertex 537.4836749433637 318.6965892076809 7.165063509461131
    vertex 537.4836749433637 308.6965892076809 7.165063509461153
  endloop
endfacet
facet normal -0.3826834323650976 1.4792481304352718e-15 0.9238795325112836
  outer loop
    vertex 537.4836749433637 318.6965892076809 7.165063509461131
    vertex 538.0866273306075 308.6965892076809 7.414814565722733
    vertex 538.0866273306075 318.6965892076809 7.41481456572271
  endloop
endfacet
facet normal -0.13052619222005837 1.5874287783282527e-15 0.9914448613738096
  outer loop
    vertex 538.7336749433637 308.6965892076809 7.500000000000065
    vertex 538.0866273306075 318.6965892076809 7.41481456572271
    vertex 538.0866273306075 308.6965892076809 7.414814565722733
  endloop
endfacet
facet normal -0.13052619222005837 1.5874287783282527e-15 0.9914448613738096
  outer loop
    vertex 538.0866273306075 318.6965892076809 7.41481456572271
    vertex 538.7336749433637 308.6965892076809 7.500000000000065
    vertex 538.7336749433637 318.6965892076809 7.500000000000043
  endloop
endfacet
facet normal 0.13052619222005837 1.5874287783282518e-15 0.9914448613738096
  outer loop
    vertex 539.38072255612 308.6965892076809 7.414814565722733
    vertex 538.7336749433637 318.6965892076809 7.500000000000043
    vertex 538.7336749433637 308.6965892076809 7.500000000000065
  endloop
endfacet
facet normal 0.13052619222005837 1.5874287783282518e-15 0.9914448613738096
  outer loop
    vertex 538.7336749433637 318.6965892076809 7.500000000000043
    vertex 539.38072255612 308.6965892076809 7.414814565722733
    vertex 539.38072255612 318.6965892076809 7.41481456572271
  endloop
endfacet
facet normal 0.3826834323650732 1.4792481304352852e-15 0.9238795325112937
  outer loop
    vertex 539.9836749433638 308.6965892076809 7.165063509461153
    vertex 539.38072255612 318.6965892076809 7.41481456572271
    vertex 539.38072255612 308.6965892076809 7.414814565722733
  endloop
endfacet
facet normal 0.3826834323650732 1.4792481304352852e-15 0.9238795325112937
  outer loop
    vertex 539.38072255612 318.6965892076809 7.41481456572271
    vertex 539.9836749433638 308.6965892076809 7.165063509461153
    vertex 539.9836749433638 318.6965892076809 7.165063509461131
  endloop
endfacet
facet normal 0.6087614290087292 1.27025916702624e-15 0.7933533402912287
  outer loop
    vertex 540.5014418963301 308.6965892076809 6.76776695296642
    vertex 539.9836749433638 318.6965892076809 7.165063509461131
    vertex 539.9836749433638 308.6965892076809 7.165063509461153
  endloop
endfacet
facet normal 0.6087614290087292 1.27025916702624e-15 0.7933533402912287
  outer loop
    vertex 539.9836749433638 318.6965892076809 7.165063509461131
    vertex 540.5014418963301 308.6965892076809 6.76776695296642
    vertex 540.5014418963301 318.6965892076809 6.767766952966398
  endloop
endfacet
facet normal 0.7933533402912453 9.747041405868933e-16 0.6087614290087074
  outer loop
    vertex 540.8987384528249 318.6965892076809 6.250000000000034
    vertex 540.5014418963301 308.6965892076809 6.76776695296642
    vertex 540.8987384528249 308.6965892076809 6.250000000000056
  endloop
endfacet
facet normal 0.7933533402912453 9.747041405868933e-16 0.6087614290087074
  outer loop
    vertex 540.5014418963301 308.6965892076809 6.76776695296642
    vertex 540.8987384528249 318.6965892076809 6.250000000000034
    vertex 540.5014418963301 318.6965892076809 6.767766952966398
  endloop
endfacet
facet normal 0.9238795325112836 6.127246377413456e-16 0.3826834323650976
  outer loop
    vertex 541.1484895090864 318.6965892076809 5.647047612756337
    vertex 540.8987384528249 308.6965892076809 6.250000000000056
    vertex 541.1484895090864 308.6965892076809 5.64704761275636
  endloop
endfacet
facet normal 0.9238795325112836 6.127246377413456e-16 0.3826834323650976
  outer loop
    vertex 540.8987384528249 308.6965892076809 6.250000000000056
    vertex 541.1484895090864 318.6965892076809 5.647047612756337
    vertex 540.8987384528249 318.6965892076809 6.250000000000034
  endloop
endfacet
facet normal 0.9914448613738102 2.0898896340902326e-16 0.13052619222005388
  outer loop
    vertex 541.2336749433638 318.6965892076809 5.000000000000025
    vertex 541.1484895090864 308.6965892076809 5.64704761275636
    vertex 541.2336749433638 308.6965892076809 5.000000000000047
  endloop
endfacet
facet normal 0.9914448613738102 2.0898896340902326e-16 0.13052619222005388
  outer loop
    vertex 541.1484895090864 308.6965892076809 5.64704761275636
    vertex 541.2336749433638 318.6965892076809 5.000000000000025
    vertex 541.1484895090864 318.6965892076809 5.647047612756337
  endloop
endfacet
facet normal 0.9914448613738102 -2.0898896340903041e-16 -0.13052619222005388
  outer loop
    vertex 541.1484895090864 318.6965892076809 4.352952387243712
    vertex 541.2336749433638 308.6965892076809 5.000000000000047
    vertex 541.1484895090864 308.6965892076809 4.352952387243735
  endloop
endfacet
facet normal 0.9914448613738102 -2.0898896340903041e-16 -0.13052619222005388
  outer loop
    vertex 541.2336749433638 308.6965892076809 5.000000000000047
    vertex 541.1484895090864 318.6965892076809 4.352952387243712
    vertex 541.2336749433638 318.6965892076809 5.000000000000025
  endloop
endfacet
facet normal 0.9238795325112836 -6.127246377413523e-16 -0.3826834323650976
  outer loop
    vertex 540.8987384528249 318.6965892076809 3.7500000000000155
    vertex 541.1484895090864 308.6965892076809 4.352952387243735
    vertex 540.8987384528249 308.6965892076809 3.750000000000038
  endloop
endfacet
facet normal 0.9238795325112836 -6.127246377413523e-16 -0.3826834323650976
  outer loop
    vertex 541.1484895090864 308.6965892076809 4.352952387243735
    vertex 540.8987384528249 318.6965892076809 3.7500000000000155
    vertex 541.1484895090864 318.6965892076809 4.352952387243712
  endloop
endfacet
facet normal 0.793353340291239 -9.747041405869126e-16 -0.6087614290087159
  outer loop
    vertex 540.5014418963301 318.6965892076809 3.2322330470336853
    vertex 540.8987384528249 308.6965892076809 3.750000000000038
    vertex 540.5014418963301 308.6965892076809 3.2322330470336964
  endloop
endfacet
facet normal 0.793353340291239 -9.747041405869126e-16 -0.6087614290087159
  outer loop
    vertex 540.8987384528249 308.6965892076809 3.750000000000038
    vertex 540.5014418963301 318.6965892076809 3.2322330470336853
    vertex 540.8987384528249 318.6965892076809 3.7500000000000155
  endloop
endfacet
facet normal 0.6087614290086959 -1.2702591670262853e-15 -0.7933533402912544
  outer loop
    vertex 540.5014418963301 318.6965892076809 3.2322330470336853
    vertex 539.9836749433637 308.6965892076809 2.8349364905389636
    vertex 539.9836749433637 318.6965892076809 2.834936490538952
  endloop
endfacet
facet normal 0.6087614290086959 -1.2702591670262853e-15 -0.7933533402912544
  outer loop
    vertex 539.9836749433637 308.6965892076809 2.8349364905389636
    vertex 540.5014418963301 318.6965892076809 3.2322330470336853
    vertex 540.5014418963301 308.6965892076809 3.2322330470336964
  endloop
endfacet
facet normal 0.38268343236508284 -1.4792481304352817e-15 -0.9238795325112896
  outer loop
    vertex 539.9836749433637 318.6965892076809 2.834936490538952
    vertex 539.38072255612 308.6965892076809 2.5851854342773954
    vertex 539.38072255612 318.6965892076809 2.585185434277384
  endloop
endfacet
facet normal 0.38268343236508284 -1.4792481304352817e-15 -0.9238795325112896
  outer loop
    vertex 539.38072255612 308.6965892076809 2.5851854342773954
    vertex 539.9836749433637 318.6965892076809 2.834936490538952
    vertex 539.9836749433637 308.6965892076809 2.8349364905389636
  endloop
endfacet
facet normal 0.13052619222005837 -1.5874287783282527e-15 -0.9914448613738096
  outer loop
    vertex 539.38072255612 318.6965892076809 2.585185434277384
    vertex 538.7336749433637 308.6965892076809 2.500000000000063
    vertex 538.7336749433637 318.6965892076809 2.500000000000052
  endloop
endfacet
facet normal 0.13052619222005837 -1.5874287783282527e-15 -0.9914448613738096
  outer loop
    vertex 538.7336749433637 308.6965892076809 2.500000000000063
    vertex 539.38072255612 318.6965892076809 2.585185434277384
    vertex 539.38072255612 308.6965892076809 2.5851854342773954
  endloop
endfacet
facet normal -0.13052619222005837 -1.5874287783282518e-15 -0.9914448613738096
  outer loop
    vertex 538.7336749433637 318.6965892076809 2.500000000000052
    vertex 538.0866273306075 308.6965892076809 2.5851854342773954
    vertex 538.0866273306075 318.6965892076809 2.585185434277384
  endloop
endfacet
facet normal -0.13052619222005837 -1.5874287783282518e-15 -0.9914448613738096
  outer loop
    vertex 538.0866273306075 308.6965892076809 2.5851854342773954
    vertex 538.7336749433637 318.6965892076809 2.500000000000052
    vertex 538.7336749433637 308.6965892076809 2.500000000000063
  endloop
endfacet
facet normal -0.3826834323650732 -1.4792481304352852e-15 -0.9238795325112937
  outer loop
    vertex 538.0866273306075 318.6965892076809 2.585185434277384
    vertex 537.4836749433637 308.6965892076809 2.8349364905389747
    vertex 537.4836749433637 318.6965892076809 2.8349364905389636
  endloop
endfacet
facet normal -0.3826834323650732 -1.4792481304352852e-15 -0.9238795325112937
  outer loop
    vertex 537.4836749433637 308.6965892076809 2.8349364905389747
    vertex 538.0866273306075 318.6965892076809 2.585185434277384
    vertex 538.0866273306075 308.6965892076809 2.5851854342773954
  endloop
endfacet
facet normal -0.6087614290087184 -1.2702591670262533e-15 -0.793353340291237
  outer loop
    vertex 537.4836749433637 318.6965892076809 2.8349364905389636
    vertex 536.9659079903973 308.6965892076809 3.2322330470336964
    vertex 536.9659079903973 318.6965892076809 3.2322330470336853
  endloop
endfacet
facet normal -0.6087614290087184 -1.2702591670262533e-15 -0.793353340291237
  outer loop
    vertex 536.9659079903973 308.6965892076809 3.2322330470336964
    vertex 537.4836749433637 318.6965892076809 2.8349364905389636
    vertex 537.4836749433637 308.6965892076809 2.8349364905389747
  endloop
endfacet
facet normal -0.793353340291239 -9.747041405869069e-16 -0.6087614290087159
  outer loop
    vertex 536.5686114339027 318.6965892076809 3.7500000000000155
    vertex 536.9659079903973 308.6965892076809 3.2322330470336964
    vertex 536.5686114339027 308.6965892076809 3.750000000000038
  endloop
endfacet
facet normal -0.793353340291239 -9.747041405869069e-16 -0.6087614290087159
  outer loop
    vertex 536.9659079903973 308.6965892076809 3.2322330470336964
    vertex 536.5686114339027 318.6965892076809 3.7500000000000155
    vertex 536.9659079903973 318.6965892076809 3.2322330470336853
  endloop
endfacet
facet normal -0.9238795325112836 -6.127246377413456e-16 -0.3826834323650976
  outer loop
    vertex 536.318860377641 318.6965892076809 4.352952387243712
    vertex 536.5686114339027 308.6965892076809 3.750000000000038
    vertex 536.318860377641 308.6965892076809 4.352952387243735
  endloop
endfacet
facet normal -0.9238795325112836 -6.127246377413456e-16 -0.3826834323650976
  outer loop
    vertex 536.5686114339027 308.6965892076809 3.750000000000038
    vertex 536.318860377641 318.6965892076809 4.352952387243712
    vertex 536.5686114339027 318.6965892076809 3.7500000000000155
  endloop
endfacet
endsolid BaseBoxRobotArm
