solid BaseBoxRobotArm
facet normal 0.0 -1.0 0.0
  outer loop
    vertex 675.5252670232954 1.127986593019159e-14 77.0409932547079
    vertex 685.5252670232954 1.127986593019159e-14 4.2548550228998574e-15
    vertex 685.5252670232954 1.127986593019159e-14 77.04099325470787
  endloop
endfacet
facet normal 0.0 -1.0 0.0
  outer loop
    vertex 685.5252670232954 1.127986593019159e-14 4.2548550228998574e-15
    vertex 675.5252670232954 1.127986593019159e-14 77.0409932547079
    vertex 675.5252670232954 1.127986593019159e-14 2.173186851727713e-15
  endloop
endfacet
facet normal 2.0816681711721685e-16 0.0 -1.0
  outer loop
    vertex 675.5252670232954 107.82442629008929 2.173186851727713e-15
    vertex 685.5252670232954 1.127986593019159e-14 4.2548550228998574e-15
    vertex 675.5252670232954 1.127986593019159e-14 2.173186851727713e-15
  endloop
endfacet
facet normal 2.0816681711721685e-16 0.0 -1.0
  outer loop
    vertex 685.5252670232954 1.127986593019159e-14 4.2548550228998574e-15
    vertex 675.5252670232954 107.82442629008929 2.173186851727713e-15
    vertex 685.5252670232954 107.82442629008929 4.2548550228998574e-15
  endloop
endfacet
facet normal -1.0 0.0 0.0
  outer loop
    vertex 675.5252670232954 1.127986593019159e-14 2.173186851727713e-15
    vertex 675.5252670232954 3.7499999999999707 43.54327268977531
    vertex 675.5252670232954 107.82442629008929 2.173186851727713e-15
  endloop
endfacet
facet normal -1.0 0.0 0.0
  outer loop
    vertex 675.5252670232954 3.7499999999999707 43.54327268977531
    vertex 675.5252670232954 1.127986593019159e-14 2.173186851727713e-15
    vertex 675.5252670232954 3.2322330470336063 43.940569246270016
  endloop
endfacet
facet normal -1.0 0.0 0.0
  outer loop
    vertex 675.5252670232954 3.2322330470336063 43.940569246270016
    vertex 675.5252670232954 1.127986593019159e-14 2.173186851727713e-15
    vertex 675.5252670232954 2.8349364905388956 44.45833619923643
  endloop
endfacet
facet normal -1.0 0.0 0.0
  outer loop
    vertex 675.5252670232954 2.8349364905388956 44.45833619923643
    vertex 675.5252670232954 1.127986593019159e-14 2.173186851727713e-15
    vertex 675.5252670232954 2.5851854342773164 45.061288586480124
  endloop
endfacet
facet normal -1.0 0.0 0.0
  outer loop
    vertex 675.5252670232954 2.5851854342773164 45.061288586480124
    vertex 675.5252670232954 1.127986593019159e-14 2.173186851727713e-15
    vertex 675.5252670232954 2.499999999999984 45.70833619923641
  endloop
endfacet
facet normal -1.0 0.0 0.0
  outer loop
    vertex 675.5252670232954 2.499999999999984 45.70833619923641
    vertex 675.5252670232954 1.127986593019159e-14 2.173186851727713e-15
    vertex 675.5252670232954 1.127986593019159e-14 77.0409932547079
  endloop
endfacet
facet normal -1.0 0.0 0.0
  outer loop
    vertex 675.5252670232954 107.82442629008929 2.173186851727713e-15
    vertex 675.5252670232954 3.7499999999999707 43.54327268977531
    vertex 675.5252670232954 4.352952387243712 43.29352163351373
  endloop
endfacet
facet normal -1.0 0.0 0.0
  outer loop
    vertex 675.5252670232954 107.82442629008929 2.173186851727713e-15
    vertex 675.5252670232954 4.352952387243712 43.29352163351373
    vertex 675.5252670232954 5.000000000000002 43.2083361992364
  endloop
endfacet
facet normal -1.0 0.0 0.0
  outer loop
    vertex 675.5252670232954 2.499999999999984 45.70833619923641
    vertex 675.5252670232954 1.127986593019159e-14 77.0409932547079
    vertex 675.5252670232954 2.5851854342773164 46.3553838119927
  endloop
endfacet
facet normal -1.0 0.0 0.0
  outer loop
    vertex 675.5252670232954 2.5851854342773164 46.3553838119927
    vertex 675.5252670232954 1.127986593019159e-14 77.0409932547079
    vertex 675.5252670232954 2.8349364905388956 46.95833619923645
  endloop
endfacet
facet normal -1.0 0.0 0.0
  outer loop
    vertex 675.5252670232954 2.8349364905388956 46.95833619923645
    vertex 675.5252670232954 1.127986593019159e-14 77.0409932547079
    vertex 675.5252670232954 3.2322330470336063 47.47610315220281
  endloop
endfacet
facet normal -1.0 0.0 0.0
  outer loop
    vertex 675.5252670232954 3.2322330470336063 47.47610315220281
    vertex 675.5252670232954 1.127986593019159e-14 77.0409932547079
    vertex 675.5252670232954 3.7500000000000155 47.87339970869752
  endloop
endfacet
facet normal -1.0 0.0 0.0
  outer loop
    vertex 675.5252670232954 3.7500000000000155 47.87339970869752
    vertex 675.5252670232954 1.127986593019159e-14 77.0409932547079
    vertex 675.5252670232954 4.352952387243712 48.1231507649591
  endloop
endfacet
facet normal -1.0 0.0 0.0
  outer loop
    vertex 675.5252670232954 4.352952387243712 48.1231507649591
    vertex 675.5252670232954 1.127986593019159e-14 77.0409932547079
    vertex 675.5252670232954 5.000000000000002 48.208336199236435
  endloop
endfacet
facet normal -1.0 0.0 0.0
  outer loop
    vertex 675.5252670232954 107.82442629008929 2.173186851727713e-15
    vertex 675.5252670232954 5.647047612756315 43.29352163351373
    vertex 675.5252670232954 107.82442629008929 77.0409932547079
  endloop
endfacet
facet normal -1.0 0.0 0.0
  outer loop
    vertex 675.5252670232954 5.647047612756315 43.29352163351373
    vertex 675.5252670232954 107.82442629008929 2.173186851727713e-15
    vertex 675.5252670232954 5.000000000000002 43.2083361992364
  endloop
endfacet
facet normal -1.0 0.0 0.0
  outer loop
    vertex 675.5252670232954 107.82442629008929 77.0409932547079
    vertex 675.5252670232954 5.647047612756315 43.29352163351373
    vertex 675.5252670232954 6.2500000000000115 43.54327268977531
  endloop
endfacet
facet normal -1.0 0.0 0.0
  outer loop
    vertex 675.5252670232954 107.82442629008929 77.0409932547079
    vertex 675.5252670232954 6.2500000000000115 43.54327268977531
    vertex 675.5252670232954 6.767766952966375 43.940569246270016
  endloop
endfacet
facet normal -1.0 0.0 0.0
  outer loop
    vertex 675.5252670232954 107.82442629008929 77.0409932547079
    vertex 675.5252670232954 6.767766952966375 43.940569246270016
    vertex 675.5252670232954 7.165063509461109 44.458336199236385
  endloop
endfacet
facet normal -1.0 0.0 0.0
  outer loop
    vertex 675.5252670232954 107.82442629008929 77.0409932547079
    vertex 675.5252670232954 7.165063509461109 44.458336199236385
    vertex 675.5252670232954 7.414814565722688 45.061288586480124
  endloop
endfacet
facet normal -1.0 0.0 0.0
  outer loop
    vertex 675.5252670232954 107.82442629008929 77.0409932547079
    vertex 675.5252670232954 7.414814565722688 45.061288586480124
    vertex 675.5252670232954 7.50000000000002 45.70833619923641
  endloop
endfacet
facet normal -1.0 0.0 0.0
  outer loop
    vertex 675.5252670232954 107.82442629008929 77.0409932547079
    vertex 675.5252670232954 7.50000000000002 45.70833619923641
    vertex 675.5252670232954 7.414814565722688 46.3553838119927
  endloop
endfacet
facet normal -1.0 0.0 0.0
  outer loop
    vertex 675.5252670232954 107.82442629008929 77.0409932547079
    vertex 675.5252670232954 7.414814565722688 46.3553838119927
    vertex 675.5252670232954 7.165063509461109 46.9583361992364
  endloop
endfacet
facet normal -1.0 0.0 0.0
  outer loop
    vertex 675.5252670232954 107.82442629008929 77.0409932547079
    vertex 675.5252670232954 7.165063509461109 46.9583361992364
    vertex 675.5252670232954 6.767766952966375 47.47610315220281
  endloop
endfacet
facet normal -1.0 0.0 0.0
  outer loop
    vertex 675.5252670232954 107.82442629008929 77.0409932547079
    vertex 675.5252670232954 6.767766952966375 47.47610315220281
    vertex 675.5252670232954 6.2500000000000115 47.87339970869752
  endloop
endfacet
facet normal -1.0 0.0 0.0
  outer loop
    vertex 675.5252670232954 107.82442629008929 77.0409932547079
    vertex 675.5252670232954 6.2500000000000115 47.87339970869752
    vertex 675.5252670232954 5.647047612756315 48.1231507649591
  endloop
endfacet
facet normal -1.0 0.0 0.0
  outer loop
    vertex 675.5252670232954 107.82442629008929 77.0409932547079
    vertex 675.5252670232954 5.647047612756315 48.1231507649591
    vertex 675.5252670232954 5.000000000000002 48.208336199236435
  endloop
endfacet
facet normal -1.0 0.0 0.0
  outer loop
    vertex 675.5252670232954 107.82442629008929 77.0409932547079
    vertex 675.5252670232954 5.000000000000002 48.208336199236435
    vertex 675.5252670232954 1.127986593019159e-14 77.0409932547079
  endloop
endfacet
facet normal 2.7171221984879583e-17 -0.9914448613738096 -0.13052619222005837
  outer loop
    vertex 675.5252670232954 7.414814565722688 46.3553838119927
    vertex 685.5252670232956 7.50000000000002 45.70833619923641
    vertex 685.5252670232956 7.414814565722688 46.3553838119927
  endloop
endfacet
facet normal 2.7171221984879583e-17 -0.9914448613738096 -0.13052619222005837
  outer loop
    vertex 685.5252670232956 7.50000000000002 45.70833619923641
    vertex 675.5252670232954 7.414814565722688 46.3553838119927
    vertex 675.5252670232954 7.50000000000002 45.70833619923641
  endloop
endfacet
facet normal -2.7171221984879583e-17 -0.9914448613738096 0.13052619222005837
  outer loop
    vertex 675.5252670232954 7.50000000000002 45.70833619923641
    vertex 685.5252670232956 7.414814565722688 45.061288586480124
    vertex 685.5252670232956 7.50000000000002 45.70833619923641
  endloop
endfacet
facet normal -2.7171221984879583e-17 -0.9914448613738096 0.13052619222005837
  outer loop
    vertex 685.5252670232956 7.414814565722688 45.061288586480124
    vertex 675.5252670232954 7.50000000000002 45.70833619923641
    vertex 675.5252670232954 7.414814565722688 45.061288586480124
  endloop
endfacet
facet normal -7.966199207892901e-17 -0.9238795325112937 0.3826834323650732
  outer loop
    vertex 675.5252670232954 7.414814565722688 45.061288586480124
    vertex 685.5252670232956 7.165063509461109 44.458336199236385
    vertex 685.5252670232956 7.414814565722688 45.061288586480124
  endloop
endfacet
facet normal -7.966199207892901e-17 -0.9238795325112937 0.3826834323650732
  outer loop
    vertex 685.5252670232956 7.165063509461109 44.458336199236385
    vertex 675.5252670232954 7.414814565722688 45.061288586480124
    vertex 675.5252670232954 7.165063509461109 44.458336199236385
  endloop
endfacet
facet normal -1.2672392906047573e-16 -0.7933533402912287 0.6087614290087292
  outer loop
    vertex 675.5252670232954 7.165063509461109 44.458336199236385
    vertex 685.5252670232956 6.767766952966375 43.940569246270016
    vertex 685.5252670232956 7.165063509461109 44.458336199236385
  endloop
endfacet
facet normal -1.2672392906047573e-16 -0.7933533402912287 0.6087614290087292
  outer loop
    vertex 685.5252670232956 6.767766952966375 43.940569246270016
    vertex 675.5252670232954 7.165063509461109 44.458336199236385
    vertex 675.5252670232954 6.767766952966375 43.940569246270016
  endloop
endfacet
facet normal -1.6514983969774076e-16 -0.6087614290087074 0.7933533402912453
  outer loop
    vertex 685.5252670232956 6.767766952966375 43.940569246270016
    vertex 675.5252670232954 6.2500000000000115 43.54327268977531
    vertex 685.5252670232956 6.2500000000000115 43.54327268977531
  endloop
endfacet
facet normal -1.6514983969774076e-16 -0.6087614290087074 0.7933533402912453
  outer loop
    vertex 675.5252670232954 6.2500000000000115 43.54327268977531
    vertex 685.5252670232956 6.767766952966375 43.940569246270016
    vertex 675.5252670232954 6.767766952966375 43.940569246270016
  endloop
endfacet
facet normal -1.9232106168261617e-16 -0.3826834323650976 0.9238795325112836
  outer loop
    vertex 685.5252670232956 6.2500000000000115 43.54327268977531
    vertex 675.5252670232954 5.647047612756315 43.29352163351373
    vertex 685.5252670232956 5.647047612756315 43.29352163351373
  endloop
endfacet
facet normal -1.9232106168261617e-16 -0.3826834323650976 0.9238795325112836
  outer loop
    vertex 675.5252670232954 5.647047612756315 43.29352163351373
    vertex 685.5252670232956 6.2500000000000115 43.54327268977531
    vertex 675.5252670232954 6.2500000000000115 43.54327268977531
  endloop
endfacet
facet normal -2.0638592113940634e-16 -0.13052619222005388 0.9914448613738102
  outer loop
    vertex 685.5252670232956 5.647047612756315 43.29352163351373
    vertex 675.5252670232954 5.000000000000002 43.2083361992364
    vertex 685.5252670232956 5.000000000000002 43.2083361992364
  endloop
endfacet
facet normal -2.0638592113940634e-16 -0.13052619222005388 0.9914448613738102
  outer loop
    vertex 675.5252670232954 5.000000000000002 43.2083361992364
    vertex 685.5252670232956 5.647047612756315 43.29352163351373
    vertex 675.5252670232954 5.647047612756315 43.29352163351373
  endloop
endfacet
facet normal -2.0638592113940624e-16 0.13052619222005837 0.9914448613738096
  outer loop
    vertex 685.5252670232956 5.000000000000002 43.2083361992364
    vertex 675.5252670232954 4.352952387243712 43.29352163351373
    vertex 685.5252670232956 4.352952387243712 43.29352163351373
  endloop
endfacet
facet normal -2.0638592113940624e-16 0.13052619222005837 0.9914448613738096
  outer loop
    vertex 675.5252670232954 4.352952387243712 43.29352163351373
    vertex 685.5252670232956 5.000000000000002 43.2083361992364
    vertex 675.5252670232954 5.000000000000002 43.2083361992364
  endloop
endfacet
facet normal -1.923210616826183e-16 0.3826834323650732 0.9238795325112937
  outer loop
    vertex 685.5252670232956 4.352952387243712 43.29352163351373
    vertex 675.5252670232954 3.7499999999999707 43.54327268977531
    vertex 685.5252670232956 3.7499999999999707 43.54327268977531
  endloop
endfacet
facet normal -1.923210616826183e-16 0.3826834323650732 0.9238795325112937
  outer loop
    vertex 675.5252670232954 3.7499999999999707 43.54327268977531
    vertex 685.5252670232956 4.352952387243712 43.29352163351373
    vertex 675.5252670232954 4.352952387243712 43.29352163351373
  endloop
endfacet
facet normal -1.6514983969774076e-16 0.6087614290087074 0.7933533402912453
  outer loop
    vertex 685.5252670232956 3.7499999999999707 43.54327268977531
    vertex 675.5252670232954 3.2322330470336063 43.940569246270016
    vertex 685.5252670232956 3.2322330470336063 43.940569246270016
  endloop
endfacet
facet normal -1.6514983969774076e-16 0.6087614290087074 0.7933533402912453
  outer loop
    vertex 675.5252670232954 3.2322330470336063 43.940569246270016
    vertex 685.5252670232956 3.7499999999999707 43.54327268977531
    vertex 675.5252670232954 3.7499999999999707 43.54327268977531
  endloop
endfacet
facet normal -1.2672392906046427e-16 0.793353340291271 0.6087614290086741
  outer loop
    vertex 675.5252670232954 3.2322330470336063 43.940569246270016
    vertex 685.5252670232956 2.8349364905388956 44.45833619923643
    vertex 685.5252670232956 3.2322330470336063 43.940569246270016
  endloop
endfacet
facet normal -1.2672392906046427e-16 0.793353340291271 0.6087614290086741
  outer loop
    vertex 685.5252670232956 2.8349364905388956 44.45833619923643
    vertex 675.5252670232954 3.2322330470336063 43.940569246270016
    vertex 675.5252670232954 2.8349364905388956 44.45833619923643
  endloop
endfacet
facet normal -7.96619920789341e-17 0.9238795325112836 0.3826834323650976
  outer loop
    vertex 675.5252670232954 2.8349364905388956 44.45833619923643
    vertex 685.5252670232956 2.5851854342773164 45.061288586480124
    vertex 685.5252670232956 2.8349364905388956 44.45833619923643
  endloop
endfacet
facet normal -7.96619920789341e-17 0.9238795325112836 0.3826834323650976
  outer loop
    vertex 685.5252670232956 2.5851854342773164 45.061288586480124
    vertex 675.5252670232954 2.8349364905388956 44.45833619923643
    vertex 675.5252670232954 2.5851854342773164 45.061288586480124
  endloop
endfacet
facet normal -2.7171221984879583e-17 0.9914448613738096 0.13052619222005837
  outer loop
    vertex 675.5252670232954 2.5851854342773164 45.061288586480124
    vertex 685.5252670232956 2.499999999999984 45.70833619923641
    vertex 685.5252670232956 2.5851854342773164 45.061288586480124
  endloop
endfacet
facet normal -2.7171221984879583e-17 0.9914448613738096 0.13052619222005837
  outer loop
    vertex 685.5252670232956 2.499999999999984 45.70833619923641
    vertex 675.5252670232954 2.5851854342773164 45.061288586480124
    vertex 675.5252670232954 2.499999999999984 45.70833619923641
  endloop
endfacet
facet normal 2.7171221984879583e-17 0.9914448613738096 -0.13052619222005837
  outer loop
    vertex 675.5252670232954 2.499999999999984 45.70833619923641
    vertex 685.5252670232956 2.5851854342773164 46.3553838119927
    vertex 685.5252670232956 2.499999999999984 45.70833619923641
  endloop
endfacet
facet normal 2.7171221984879583e-17 0.9914448613738096 -0.13052619222005837
  outer loop
    vertex 685.5252670232956 2.5851854342773164 46.3553838119927
    vertex 675.5252670232954 2.499999999999984 45.70833619923641
    vertex 675.5252670232954 2.5851854342773164 46.3553838119927
  endloop
endfacet
facet normal 7.966199207892901e-17 0.9238795325112937 -0.3826834323650732
  outer loop
    vertex 675.5252670232954 2.5851854342773164 46.3553838119927
    vertex 685.5252670232956 2.8349364905388956 46.95833619923645
    vertex 685.5252670232956 2.5851854342773164 46.3553838119927
  endloop
endfacet
facet normal 7.966199207892901e-17 0.9238795325112937 -0.3826834323650732
  outer loop
    vertex 685.5252670232956 2.8349364905388956 46.95833619923645
    vertex 675.5252670232954 2.5851854342773164 46.3553838119927
    vertex 675.5252670232954 2.8349364905388956 46.95833619923645
  endloop
endfacet
facet normal 1.267239290604712e-16 0.7933533402912453 -0.6087614290087074
  outer loop
    vertex 675.5252670232954 2.8349364905388956 46.95833619923645
    vertex 685.5252670232956 3.2322330470336063 47.47610315220281
    vertex 685.5252670232956 2.8349364905388956 46.95833619923645
  endloop
endfacet
facet normal 1.267239290604712e-16 0.7933533402912453 -0.6087614290087074
  outer loop
    vertex 685.5252670232956 3.2322330470336063 47.47610315220281
    vertex 675.5252670232954 2.8349364905388956 46.95833619923645
    vertex 675.5252670232954 3.2322330470336063 47.47610315220281
  endloop
endfacet
facet normal 1.6514983969774606e-16 0.6087614290086741 -0.793353340291271
  outer loop
    vertex 675.5252670232954 3.7500000000000155 47.87339970869752
    vertex 685.5252670232956 3.2322330470336063 47.47610315220281
    vertex 675.5252670232954 3.2322330470336063 47.47610315220281
  endloop
endfacet
facet normal 1.6514983969774606e-16 0.6087614290086741 -0.793353340291271
  outer loop
    vertex 685.5252670232956 3.2322330470336063 47.47610315220281
    vertex 675.5252670232954 3.7500000000000155 47.87339970869752
    vertex 685.5252670232956 3.7500000000000155 47.87339970869752
  endloop
endfacet
facet normal 1.9232106168261617e-16 0.3826834323650976 -0.9238795325112836
  outer loop
    vertex 675.5252670232954 4.352952387243712 48.1231507649591
    vertex 685.5252670232956 3.7500000000000155 47.87339970869752
    vertex 675.5252670232954 3.7500000000000155 47.87339970869752
  endloop
endfacet
facet normal 1.9232106168261617e-16 0.3826834323650976 -0.9238795325112836
  outer loop
    vertex 685.5252670232956 3.7500000000000155 47.87339970869752
    vertex 675.5252670232954 4.352952387243712 48.1231507649591
    vertex 685.5252670232956 4.352952387243712 48.1231507649591
  endloop
endfacet
facet normal 2.0638592113940624e-16 0.13052619222005837 -0.9914448613738096
  outer loop
    vertex 675.5252670232954 5.000000000000002 48.208336199236435
    vertex 685.5252670232956 4.352952387243712 48.1231507649591
    vertex 675.5252670232954 4.352952387243712 48.1231507649591
  endloop
endfacet
facet normal 2.0638592113940624e-16 0.13052619222005837 -0.9914448613738096
  outer loop
    vertex 685.5252670232956 4.352952387243712 48.1231507649591
    vertex 675.5252670232954 5.000000000000002 48.208336199236435
    vertex 685.5252670232956 5.000000000000002 48.208336199236435
  endloop
endfacet
facet normal 2.0638592113940634e-16 -0.13052619222005388 -0.9914448613738102
  outer loop
    vertex 675.5252670232954 5.647047612756315 48.1231507649591
    vertex 685.5252670232956 5.000000000000002 48.208336199236435
    vertex 675.5252670232954 5.000000000000002 48.208336199236435
  endloop
endfacet
facet normal 2.0638592113940634e-16 -0.13052619222005388 -0.9914448613738102
  outer loop
    vertex 685.5252670232956 5.000000000000002 48.208336199236435
    vertex 675.5252670232954 5.647047612756315 48.1231507649591
    vertex 685.5252670232956 5.647047612756315 48.1231507649591
  endloop
endfacet
facet normal 1.9232106168261617e-16 -0.3826834323650976 -0.9238795325112836
  outer loop
    vertex 675.5252670232954 6.2500000000000115 47.87339970869752
    vertex 685.5252670232956 5.647047612756315 48.1231507649591
    vertex 675.5252670232954 5.647047612756315 48.1231507649591
  endloop
endfacet
facet normal 1.9232106168261617e-16 -0.3826834323650976 -0.9238795325112836
  outer loop
    vertex 685.5252670232956 5.647047612756315 48.1231507649591
    vertex 675.5252670232954 6.2500000000000115 47.87339970869752
    vertex 685.5252670232956 6.2500000000000115 47.87339970869752
  endloop
endfacet
facet normal 1.6514983969774076e-16 -0.6087614290087074 -0.7933533402912453
  outer loop
    vertex 675.5252670232954 6.767766952966375 47.47610315220281
    vertex 685.5252670232956 6.2500000000000115 47.87339970869752
    vertex 675.5252670232954 6.2500000000000115 47.87339970869752
  endloop
endfacet
facet normal 1.6514983969774076e-16 -0.6087614290087074 -0.7933533402912453
  outer loop
    vertex 685.5252670232956 6.2500000000000115 47.87339970869752
    vertex 675.5252670232954 6.767766952966375 47.47610315220281
    vertex 685.5252670232956 6.767766952966375 47.47610315220281
  endloop
endfacet
facet normal 1.2672392906046876e-16 -0.7933533402912541 -0.6087614290086958
  outer loop
    vertex 675.5252670232954 6.767766952966375 47.47610315220281
    vertex 685.5252670232956 7.165063509461109 46.9583361992364
    vertex 685.5252670232956 6.767766952966375 47.47610315220281
  endloop
endfacet
facet normal 1.2672392906046876e-16 -0.7933533402912541 -0.6087614290086958
  outer loop
    vertex 685.5252670232956 7.165063509461109 46.9583361992364
    vertex 675.5252670232954 6.767766952966375 47.47610315220281
    vertex 675.5252670232954 7.165063509461109 46.9583361992364
  endloop
endfacet
facet normal 7.96619920789341e-17 -0.9238795325112836 -0.3826834323650976
  outer loop
    vertex 675.5252670232954 7.165063509461109 46.9583361992364
    vertex 685.5252670232956 7.414814565722688 46.3553838119927
    vertex 685.5252670232956 7.165063509461109 46.9583361992364
  endloop
endfacet
facet normal 7.96619920789341e-17 -0.9238795325112836 -0.3826834323650976
  outer loop
    vertex 685.5252670232956 7.414814565722688 46.3553838119927
    vertex 675.5252670232954 7.165063509461109 46.9583361992364
    vertex 675.5252670232954 7.414814565722688 46.3553838119927
  endloop
endfacet
facet normal 1.0 0.0 0.0
  outer loop
    vertex 685.5252670232954 107.82442629008929 77.04099325470787
    vertex 685.5252670232954 1.127986593019159e-14 4.2548550228998574e-15
    vertex 685.5252670232954 107.82442629008929 4.2548550228998574e-15
  endloop
endfacet
facet normal 1.0 0.0 0.0
  outer loop
    vertex 685.5252670232954 1.127986593019159e-14 4.2548550228998574e-15
    vertex 685.5252670232954 107.82442629008929 77.04099325470787
    vertex 685.5252670232956 5.647047612756315 43.29352163351373
  endloop
endfacet
facet normal 1.0 0.0 0.0
  outer loop
    vertex 685.5252670232954 1.127986593019159e-14 4.2548550228998574e-15
    vertex 685.5252670232956 5.647047612756315 43.29352163351373
    vertex 685.5252670232956 5.000000000000002 43.2083361992364
  endloop
endfacet
facet normal 1.0 0.0 0.0
  outer loop
    vertex 685.5252670232956 5.647047612756315 43.29352163351373
    vertex 685.5252670232954 107.82442629008929 77.04099325470787
    vertex 685.5252670232956 6.2500000000000115 43.54327268977531
  endloop
endfacet
facet normal 1.0 0.0 0.0
  outer loop
    vertex 685.5252670232956 6.2500000000000115 43.54327268977531
    vertex 685.5252670232954 107.82442629008929 77.04099325470787
    vertex 685.5252670232956 6.767766952966375 43.940569246270016
  endloop
endfacet
facet normal 1.0 0.0 0.0
  outer loop
    vertex 685.5252670232956 6.767766952966375 43.940569246270016
    vertex 685.5252670232954 107.82442629008929 77.04099325470787
    vertex 685.5252670232956 7.165063509461109 44.458336199236385
  endloop
endfacet
facet normal 1.0 0.0 0.0
  outer loop
    vertex 685.5252670232956 7.165063509461109 44.458336199236385
    vertex 685.5252670232954 107.82442629008929 77.04099325470787
    vertex 685.5252670232956 7.414814565722688 45.061288586480124
  endloop
endfacet
facet normal 1.0 0.0 0.0
  outer loop
    vertex 685.5252670232956 7.414814565722688 45.061288586480124
    vertex 685.5252670232954 107.82442629008929 77.04099325470787
    vertex 685.5252670232956 7.50000000000002 45.70833619923641
  endloop
endfacet
facet normal 1.0 0.0 0.0
  outer loop
    vertex 685.5252670232956 7.50000000000002 45.70833619923641
    vertex 685.5252670232954 107.82442629008929 77.04099325470787
    vertex 685.5252670232956 7.414814565722688 46.3553838119927
  endloop
endfacet
facet normal 1.0 0.0 0.0
  outer loop
    vertex 685.5252670232956 7.414814565722688 46.3553838119927
    vertex 685.5252670232954 107.82442629008929 77.04099325470787
    vertex 685.5252670232956 7.165063509461109 46.9583361992364
  endloop
endfacet
facet normal 1.0 0.0 0.0
  outer loop
    vertex 685.5252670232956 7.165063509461109 46.9583361992364
    vertex 685.5252670232954 107.82442629008929 77.04099325470787
    vertex 685.5252670232956 6.767766952966375 47.47610315220281
  endloop
endfacet
facet normal 1.0 0.0 0.0
  outer loop
    vertex 685.5252670232956 6.767766952966375 47.47610315220281
    vertex 685.5252670232954 107.82442629008929 77.04099325470787
    vertex 685.5252670232956 6.2500000000000115 47.87339970869752
  endloop
endfacet
facet normal 1.0 0.0 0.0
  outer loop
    vertex 685.5252670232956 6.2500000000000115 47.87339970869752
    vertex 685.5252670232954 107.82442629008929 77.04099325470787
    vertex 685.5252670232956 5.647047612756315 48.1231507649591
  endloop
endfacet
facet normal 1.0 0.0 0.0
  outer loop
    vertex 685.5252670232956 5.647047612756315 48.1231507649591
    vertex 685.5252670232954 107.82442629008929 77.04099325470787
    vertex 685.5252670232956 5.000000000000002 48.208336199236435
  endloop
endfacet
facet normal 1.0 0.0 0.0
  outer loop
    vertex 685.5252670232954 1.127986593019159e-14 4.2548550228998574e-15
    vertex 685.5252670232956 2.499999999999984 45.70833619923641
    vertex 685.5252670232954 1.127986593019159e-14 77.04099325470787
  endloop
endfacet
facet normal 1.0 0.0 0.0
  outer loop
    vertex 685.5252670232956 2.499999999999984 45.70833619923641
    vertex 685.5252670232954 1.127986593019159e-14 4.2548550228998574e-15
    vertex 685.5252670232956 2.5851854342773164 45.061288586480124
  endloop
endfacet
facet normal 1.0 0.0 0.0
  outer loop
    vertex 685.5252670232956 2.5851854342773164 45.061288586480124
    vertex 685.5252670232954 1.127986593019159e-14 4.2548550228998574e-15
    vertex 685.5252670232956 2.8349364905388956 44.45833619923643
  endloop
endfacet
facet normal 1.0 0.0 0.0
  outer loop
    vertex 685.5252670232956 2.8349364905388956 44.45833619923643
    vertex 685.5252670232954 1.127986593019159e-14 4.2548550228998574e-15
    vertex 685.5252670232956 3.2322330470336063 43.940569246270016
  endloop
endfacet
facet normal 1.0 0.0 0.0
  outer loop
    vertex 685.5252670232956 3.2322330470336063 43.940569246270016
    vertex 685.5252670232954 1.127986593019159e-14 4.2548550228998574e-15
    vertex 685.5252670232956 3.7499999999999707 43.54327268977531
  endloop
endfacet
facet normal 1.0 0.0 0.0
  outer loop
    vertex 685.5252670232956 3.7499999999999707 43.54327268977531
    vertex 685.5252670232954 1.127986593019159e-14 4.2548550228998574e-15
    vertex 685.5252670232956 4.352952387243712 43.29352163351373
  endloop
endfacet
facet normal 1.0 0.0 0.0
  outer loop
    vertex 685.5252670232956 4.352952387243712 43.29352163351373
    vertex 685.5252670232954 1.127986593019159e-14 4.2548550228998574e-15
    vertex 685.5252670232956 5.000000000000002 43.2083361992364
  endloop
endfacet
facet normal 1.0 0.0 0.0
  outer loop
    vertex 685.5252670232954 1.127986593019159e-14 77.04099325470787
    vertex 685.5252670232956 2.499999999999984 45.70833619923641
    vertex 685.5252670232956 2.5851854342773164 46.3553838119927
  endloop
endfacet
facet normal 1.0 0.0 0.0
  outer loop
    vertex 685.5252670232954 1.127986593019159e-14 77.04099325470787
    vertex 685.5252670232956 2.5851854342773164 46.3553838119927
    vertex 685.5252670232956 2.8349364905388956 46.95833619923645
  endloop
endfacet
facet normal 1.0 0.0 0.0
  outer loop
    vertex 685.5252670232954 1.127986593019159e-14 77.04099325470787
    vertex 685.5252670232956 2.8349364905388956 46.95833619923645
    vertex 685.5252670232956 3.2322330470336063 47.47610315220281
  endloop
endfacet
facet normal 1.0 0.0 0.0
  outer loop
    vertex 685.5252670232954 1.127986593019159e-14 77.04099325470787
    vertex 685.5252670232956 3.2322330470336063 47.47610315220281
    vertex 685.5252670232956 3.7500000000000155 47.87339970869752
  endloop
endfacet
facet normal 1.0 0.0 0.0
  outer loop
    vertex 685.5252670232954 1.127986593019159e-14 77.04099325470787
    vertex 685.5252670232956 3.7500000000000155 47.87339970869752
    vertex 685.5252670232956 4.352952387243712 48.1231507649591
  endloop
endfacet
facet normal 1.0 0.0 0.0
  outer loop
    vertex 685.5252670232954 1.127986593019159e-14 77.04099325470787
    vertex 685.5252670232956 4.352952387243712 48.1231507649591
    vertex 685.5252670232956 5.000000000000002 48.208336199236435
  endloop
endfacet
facet normal 1.0 0.0 0.0
  outer loop
    vertex 685.5252670232954 1.127986593019159e-14 77.04099325470787
    vertex 685.5252670232956 5.000000000000002 48.208336199236435
    vertex 685.5252670232954 107.82442629008929 77.04099325470787
  endloop
endfacet
facet normal 0.0 1.0 0.0
  outer loop
    vertex 675.5252670232954 107.82442629008929 2.173186851727713e-15
    vertex 685.5252670232954 107.82442629008929 77.04099325470787
    vertex 685.5252670232954 107.82442629008929 4.2548550228998574e-15
  endloop
endfacet
facet normal 0.0 1.0 0.0
  outer loop
    vertex 685.5252670232954 107.82442629008929 77.04099325470787
    vertex 675.5252670232954 107.82442629008929 2.173186851727713e-15
    vertex 675.5252670232954 107.82442629008929 77.0409932547079
  endloop
endfacet
facet normal 4.176893592790123e-16 1.0401718143896285e-18 1.0
  outer loop
    vertex 685.5252670232954 1.127986593019159e-14 77.04099325470787
    vertex 682.9400815890182 26.309058959766023 77.04099325470787
    vertex 675.5252670232954 1.127986593019159e-14 77.0409932547079
  endloop
endfacet
facet normal 4.176893592790123e-16 1.0401718143896285e-18 1.0
  outer loop
    vertex 682.9400815890182 26.309058959766023 77.04099325470787
    vertex 685.5252670232954 1.127986593019159e-14 77.04099325470787
    vertex 683.0252670232954 26.95610657252233 77.04099325470787
  endloop
endfacet
facet normal 4.176893592790123e-16 1.0401718143896285e-18 1.0
  outer loop
    vertex 683.0252670232954 26.95610657252233 77.04099325470787
    vertex 685.5252670232954 1.127986593019159e-14 77.04099325470787
    vertex 685.5252670232954 107.82442629008929 77.04099325470787
  endloop
endfacet
facet normal 4.176893592790123e-16 1.0401718143896285e-18 1.0
  outer loop
    vertex 675.5252670232954 1.127986593019159e-14 77.0409932547079
    vertex 682.9400815890182 26.309058959766023 77.04099325470787
    vertex 682.6903305327565 25.706106572522327 77.04099325470787
  endloop
endfacet
facet normal 4.176893592790123e-16 1.0401718143896285e-18 1.0
  outer loop
    vertex 675.5252670232954 1.127986593019159e-14 77.0409932547079
    vertex 682.6903305327565 25.706106572522327 77.04099325470787
    vertex 682.2930339762619 25.188339619555958 77.04099325470787
  endloop
endfacet
facet normal 4.176893592790123e-16 1.0401718143896285e-18 1.0
  outer loop
    vertex 675.5252670232954 1.127986593019159e-14 77.0409932547079
    vertex 682.2930339762619 25.188339619555958 77.04099325470787
    vertex 681.7752670232956 24.79104306306123 77.04099325470787
  endloop
endfacet
facet normal 4.176893592790123e-16 1.0401718143896285e-18 1.0
  outer loop
    vertex 675.5252670232954 1.127986593019159e-14 77.0409932547079
    vertex 681.7752670232956 24.79104306306123 77.04099325470787
    vertex 681.1723146360519 24.541292006799658 77.04099325470787
  endloop
endfacet
facet normal 4.176893592790123e-16 1.0401718143896285e-18 1.0
  outer loop
    vertex 675.5252670232954 1.127986593019159e-14 77.0409932547079
    vertex 681.1723146360519 24.541292006799658 77.04099325470787
    vertex 680.5252670232956 24.45610657252233 77.04099325470787
  endloop
endfacet
facet normal 4.176893592790123e-16 1.0401718143896285e-18 1.0
  outer loop
    vertex 683.0252670232954 26.95610657252233 77.04099325470787
    vertex 685.5252670232954 107.82442629008929 77.04099325470787
    vertex 682.9400815890182 27.60315418527863 77.04099325470787
  endloop
endfacet
facet normal 4.176893592790123e-16 1.0401718143896285e-18 1.0
  outer loop
    vertex 682.9400815890182 27.60315418527863 77.04099325470787
    vertex 685.5252670232954 107.82442629008929 77.04099325470787
    vertex 682.6903305327565 28.206106572522327 77.04099325470787
  endloop
endfacet
facet normal 4.176893592790123e-16 1.0401718143896285e-18 1.0
  outer loop
    vertex 682.6903305327565 28.206106572522327 77.04099325470787
    vertex 685.5252670232954 107.82442629008929 77.04099325470787
    vertex 682.2930339762619 28.723873525488695 77.04099325470787
  endloop
endfacet
facet normal 4.176893592790123e-16 1.0401718143896285e-18 1.0
  outer loop
    vertex 682.2930339762619 28.723873525488695 77.04099325470787
    vertex 685.5252670232954 107.82442629008929 77.04099325470787
    vertex 681.7752670232956 29.121170081983426 77.04099325470787
  endloop
endfacet
facet normal 4.176893592790123e-16 1.0401718143896285e-18 1.0
  outer loop
    vertex 681.7752670232956 29.121170081983426 77.04099325470787
    vertex 685.5252670232954 107.82442629008929 77.04099325470787
    vertex 681.1723146360519 29.370921138245 77.04099325470787
  endloop
endfacet
facet normal 4.176893592790123e-16 1.0401718143896285e-18 1.0
  outer loop
    vertex 681.1723146360519 29.370921138245 77.04099325470787
    vertex 685.5252670232954 107.82442629008929 77.04099325470787
    vertex 680.5252670232956 29.45610657252233 77.04099325470787
  endloop
endfacet
facet normal 4.176893592790123e-16 1.0401718143896285e-18 1.0
  outer loop
    vertex 680.5252670232956 29.45610657252233 77.04099325470787
    vertex 685.5252670232954 107.82442629008929 77.04099325470787
    vertex 683.0252670232954 80.86831971756698 77.04099325470787
  endloop
endfacet
facet normal 4.176893592790123e-16 1.0401718143896285e-18 1.0
  outer loop
    vertex 680.5252670232956 29.45610657252233 77.04099325470787
    vertex 683.0252670232954 80.86831971756698 77.04099325470787
    vertex 682.9400815890182 80.22127210481067 77.04099325470787
  endloop
endfacet
facet normal 4.176893592790123e-16 1.0401718143896285e-18 1.0
  outer loop
    vertex 680.5252670232956 29.45610657252233 77.04099325470787
    vertex 682.9400815890182 80.22127210481067 77.04099325470787
    vertex 682.6903305327565 79.61831971756698 77.04099325470787
  endloop
endfacet
facet normal 4.176893592790123e-16 1.0401718143896285e-18 1.0
  outer loop
    vertex 680.5252670232956 29.45610657252233 77.04099325470787
    vertex 682.6903305327565 79.61831971756698 77.04099325470787
    vertex 682.2930339762619 79.10055276460061 77.04099325470787
  endloop
endfacet
facet normal 4.176893592790123e-16 1.0401718143896285e-18 1.0
  outer loop
    vertex 680.5252670232956 29.45610657252233 77.04099325470787
    vertex 682.2930339762619 79.10055276460061 77.04099325470787
    vertex 681.7752670232956 78.70325620810587 77.04099325470787
  endloop
endfacet
facet normal 4.176893592790123e-16 1.0401718143896285e-18 1.0
  outer loop
    vertex 680.5252670232956 29.45610657252233 77.04099325470787
    vertex 681.7752670232956 78.70325620810587 77.04099325470787
    vertex 681.1723146360519 78.45350515184431 77.04099325470787
  endloop
endfacet
facet normal 4.176893592790123e-16 1.0401718143896285e-18 1.0
  outer loop
    vertex 680.5252670232956 29.45610657252233 77.04099325470787
    vertex 681.1723146360519 78.45350515184431 77.04099325470787
    vertex 680.5252670232956 78.36831971756698 77.04099325470787
  endloop
endfacet
facet normal 4.176893592790123e-16 1.0401718143896285e-18 1.0
  outer loop
    vertex 683.0252670232954 80.86831971756698 77.04099325470787
    vertex 685.5252670232954 107.82442629008929 77.04099325470787
    vertex 682.9400815890182 81.51536733032327 77.04099325470787
  endloop
endfacet
facet normal 4.176893592790123e-16 1.0401718143896285e-18 1.0
  outer loop
    vertex 682.9400815890182 81.51536733032327 77.04099325470787
    vertex 685.5252670232954 107.82442629008929 77.04099325470787
    vertex 682.6903305327565 82.11831971756698 77.04099325470787
  endloop
endfacet
facet normal 4.176893592790123e-16 1.0401718143896285e-18 1.0
  outer loop
    vertex 682.6903305327565 82.11831971756698 77.04099325470787
    vertex 685.5252670232954 107.82442629008929 77.04099325470787
    vertex 682.2930339762619 82.63608667053333 77.04099325470787
  endloop
endfacet
facet normal 4.176893592790123e-16 1.0401718143896285e-18 1.0
  outer loop
    vertex 682.2930339762619 82.63608667053333 77.04099325470787
    vertex 685.5252670232954 107.82442629008929 77.04099325470787
    vertex 681.7752670232956 83.03338322702807 77.04099325470787
  endloop
endfacet
facet normal 4.176893592790123e-16 1.0401718143896285e-18 1.0
  outer loop
    vertex 681.7752670232956 83.03338322702807 77.04099325470787
    vertex 685.5252670232954 107.82442629008929 77.04099325470787
    vertex 681.1723146360519 83.28313428328964 77.04099325470787
  endloop
endfacet
facet normal 4.176893592790123e-16 1.0401718143896285e-18 1.0
  outer loop
    vertex 681.1723146360519 83.28313428328964 77.04099325470787
    vertex 685.5252670232954 107.82442629008929 77.04099325470787
    vertex 680.5252670232956 83.36831971756696 77.04099325470787
  endloop
endfacet
facet normal 4.176893592790123e-16 1.0401718143896285e-18 1.0
  outer loop
    vertex 675.5252670232954 1.127986593019159e-14 77.0409932547079
    vertex 678.0252670232956 26.95610657252233 77.04099325470787
    vertex 675.5252670232954 107.82442629008929 77.0409932547079
  endloop
endfacet
facet normal 4.176893592790123e-16 1.0401718143896285e-18 1.0
  outer loop
    vertex 678.0252670232956 26.95610657252233 77.04099325470787
    vertex 675.5252670232954 1.127986593019159e-14 77.0409932547079
    vertex 678.1104524575729 26.309058959766027 77.04099325470787
  endloop
endfacet
facet normal 4.176893592790123e-16 1.0401718143896285e-18 1.0
  outer loop
    vertex 678.1104524575729 26.309058959766027 77.04099325470787
    vertex 675.5252670232954 1.127986593019159e-14 77.0409932547079
    vertex 678.3602035138344 25.706106572522334 77.04099325470787
  endloop
endfacet
facet normal 4.176893592790123e-16 1.0401718143896285e-18 1.0
  outer loop
    vertex 678.3602035138344 25.706106572522334 77.04099325470787
    vertex 675.5252670232954 1.127986593019159e-14 77.0409932547079
    vertex 678.7575000703291 25.188339619555958 77.04099325470787
  endloop
endfacet
facet normal 4.176893592790123e-16 1.0401718143896285e-18 1.0
  outer loop
    vertex 678.7575000703291 25.188339619555958 77.04099325470787
    vertex 675.5252670232954 1.127986593019159e-14 77.0409932547079
    vertex 679.2752670232956 24.79104306306123 77.04099325470787
  endloop
endfacet
facet normal 4.176893592790123e-16 1.0401718143896285e-18 1.0
  outer loop
    vertex 679.2752670232956 24.79104306306123 77.04099325470787
    vertex 675.5252670232954 1.127986593019159e-14 77.0409932547079
    vertex 679.8782194105391 24.541292006799658 77.04099325470787
  endloop
endfacet
facet normal 4.176893592790123e-16 1.0401718143896285e-18 1.0
  outer loop
    vertex 679.8782194105391 24.541292006799658 77.04099325470787
    vertex 675.5252670232954 1.127986593019159e-14 77.0409932547079
    vertex 680.5252670232956 24.45610657252233 77.04099325470787
  endloop
endfacet
facet normal 4.176893592790123e-16 1.0401718143896285e-18 1.0
  outer loop
    vertex 675.5252670232954 107.82442629008929 77.0409932547079
    vertex 678.0252670232956 26.95610657252233 77.04099325470787
    vertex 678.1104524575729 27.60315418527863 77.04099325470787
  endloop
endfacet
facet normal 4.176893592790123e-16 1.0401718143896285e-18 1.0
  outer loop
    vertex 675.5252670232954 107.82442629008929 77.0409932547079
    vertex 678.1104524575729 27.60315418527863 77.04099325470787
    vertex 678.3602035138344 28.206106572522334 77.04099325470787
  endloop
endfacet
facet normal 4.176893592790123e-16 1.0401718143896285e-18 1.0
  outer loop
    vertex 675.5252670232954 107.82442629008929 77.0409932547079
    vertex 678.3602035138344 28.206106572522334 77.04099325470787
    vertex 678.7575000703291 28.723873525488695 77.04099325470787
  endloop
endfacet
facet normal 4.176893592790123e-16 1.0401718143896285e-18 1.0
  outer loop
    vertex 675.5252670232954 107.82442629008929 77.0409932547079
    vertex 678.7575000703291 28.723873525488695 77.04099325470787
    vertex 679.2752670232956 29.121170081983426 77.04099325470787
  endloop
endfacet
facet normal 4.176893592790123e-16 1.0401718143896285e-18 1.0
  outer loop
    vertex 675.5252670232954 107.82442629008929 77.0409932547079
    vertex 679.2752670232956 29.121170081983426 77.04099325470787
    vertex 679.8782194105391 29.370921138245 77.04099325470787
  endloop
endfacet
facet normal 4.176893592790123e-16 1.0401718143896285e-18 1.0
  outer loop
    vertex 675.5252670232954 107.82442629008929 77.0409932547079
    vertex 679.8782194105391 29.370921138245 77.04099325470787
    vertex 680.5252670232956 29.45610657252233 77.04099325470787
  endloop
endfacet
facet normal 4.176893592790123e-16 1.0401718143896285e-18 1.0
  outer loop
    vertex 675.5252670232954 107.82442629008929 77.0409932547079
    vertex 680.5252670232956 29.45610657252233 77.04099325470787
    vertex 678.0252670232956 80.86831971756698 77.04099325470787
  endloop
endfacet
facet normal 4.176893592790123e-16 1.0401718143896285e-18 1.0
  outer loop
    vertex 678.0252670232956 80.86831971756698 77.04099325470787
    vertex 680.5252670232956 29.45610657252233 77.04099325470787
    vertex 678.1104524575729 80.22127210481067 77.04099325470787
  endloop
endfacet
facet normal 4.176893592790123e-16 1.0401718143896285e-18 1.0
  outer loop
    vertex 678.1104524575729 80.22127210481067 77.04099325470787
    vertex 680.5252670232956 29.45610657252233 77.04099325470787
    vertex 678.3602035138344 79.61831971756698 77.04099325470787
  endloop
endfacet
facet normal 4.176893592790123e-16 1.0401718143896285e-18 1.0
  outer loop
    vertex 678.3602035138344 79.61831971756698 77.04099325470787
    vertex 680.5252670232956 29.45610657252233 77.04099325470787
    vertex 678.7575000703291 79.10055276460061 77.04099325470787
  endloop
endfacet
facet normal 4.176893592790123e-16 1.0401718143896285e-18 1.0
  outer loop
    vertex 678.7575000703291 79.10055276460061 77.04099325470787
    vertex 680.5252670232956 29.45610657252233 77.04099325470787
    vertex 679.2752670232956 78.70325620810587 77.04099325470787
  endloop
endfacet
facet normal 4.176893592790123e-16 1.0401718143896285e-18 1.0
  outer loop
    vertex 679.2752670232956 78.70325620810587 77.04099325470787
    vertex 680.5252670232956 29.45610657252233 77.04099325470787
    vertex 679.8782194105391 78.45350515184431 77.04099325470787
  endloop
endfacet
facet normal 4.176893592790123e-16 1.0401718143896285e-18 1.0
  outer loop
    vertex 679.8782194105391 78.45350515184431 77.04099325470787
    vertex 680.5252670232956 29.45610657252233 77.04099325470787
    vertex 680.5252670232956 78.36831971756698 77.04099325470787
  endloop
endfacet
facet normal 4.176893592790123e-16 1.0401718143896285e-18 1.0
  outer loop
    vertex 675.5252670232954 107.82442629008929 77.0409932547079
    vertex 678.0252670232956 80.86831971756698 77.04099325470787
    vertex 678.1104524575729 81.51536733032327 77.04099325470787
  endloop
endfacet
facet normal 4.176893592790123e-16 1.0401718143896285e-18 1.0
  outer loop
    vertex 675.5252670232954 107.82442629008929 77.0409932547079
    vertex 678.1104524575729 81.51536733032327 77.04099325470787
    vertex 678.3602035138344 82.11831971756698 77.04099325470787
  endloop
endfacet
facet normal 4.176893592790123e-16 1.0401718143896285e-18 1.0
  outer loop
    vertex 675.5252670232954 107.82442629008929 77.0409932547079
    vertex 678.3602035138344 82.11831971756698 77.04099325470787
    vertex 678.7575000703291 82.63608667053333 77.04099325470787
  endloop
endfacet
facet normal 4.176893592790123e-16 1.0401718143896285e-18 1.0
  outer loop
    vertex 675.5252670232954 107.82442629008929 77.0409932547079
    vertex 678.7575000703291 82.63608667053333 77.04099325470787
    vertex 679.2752670232956 83.03338322702807 77.04099325470787
  endloop
endfacet
facet normal 4.176893592790123e-16 1.0401718143896285e-18 1.0
  outer loop
    vertex 675.5252670232954 107.82442629008929 77.0409932547079
    vertex 679.2752670232956 83.03338322702807 77.04099325470787
    vertex 679.8782194105391 83.28313428328964 77.04099325470787
  endloop
endfacet
facet normal 4.176893592790123e-16 1.0401718143896285e-18 1.0
  outer loop
    vertex 675.5252670232954 107.82442629008929 77.0409932547079
    vertex 679.8782194105391 83.28313428328964 77.04099325470787
    vertex 680.5252670232956 83.36831971756696 77.04099325470787
  endloop
endfacet
facet normal 4.176893592790123e-16 1.0401718143896285e-18 1.0
  outer loop
    vertex 675.5252670232954 107.82442629008929 77.0409932547079
    vertex 680.5252670232956 83.36831971756696 77.04099325470787
    vertex 685.5252670232954 107.82442629008929 77.04099325470787
  endloop
endfacet
facet normal 0.0 0.0 1.0
  outer loop
    vertex 681.1723146360519 24.541292006799658 87.04099325470789
    vertex 679.8782194105391 24.541292006799658 87.04099325470789
    vertex 680.5252670232956 24.45610657252233 87.04099325470789
  endloop
endfacet
facet normal 0.0 0.0 1.0
  outer loop
    vertex 679.8782194105391 24.541292006799658 87.04099325470789
    vertex 681.1723146360519 24.541292006799658 87.04099325470789
    vertex 681.7752670232956 24.79104306306123 87.04099325470789
  endloop
endfacet
facet normal 0.0 0.0 1.0
  outer loop
    vertex 679.8782194105391 24.541292006799658 87.04099325470789
    vertex 681.7752670232956 24.79104306306123 87.04099325470789
    vertex 679.2752670232956 24.79104306306123 87.04099325470789
  endloop
endfacet
facet normal 0.0 0.0 1.0
  outer loop
    vertex 679.2752670232956 24.79104306306123 87.04099325470789
    vertex 681.7752670232956 24.79104306306123 87.04099325470789
    vertex 682.2930339762619 25.188339619555958 87.04099325470789
  endloop
endfacet
facet normal 0.0 0.0 1.0
  outer loop
    vertex 679.2752670232956 24.79104306306123 87.04099325470789
    vertex 682.2930339762619 25.188339619555958 87.04099325470789
    vertex 678.7575000703291 25.188339619555958 87.04099325470789
  endloop
endfacet
facet normal 0.0 0.0 1.0
  outer loop
    vertex 678.7575000703291 25.188339619555958 87.04099325470789
    vertex 682.2930339762619 25.188339619555958 87.04099325470789
    vertex 682.6903305327565 25.706106572522327 87.04099325470789
  endloop
endfacet
facet normal 0.0 0.0 1.0
  outer loop
    vertex 678.7575000703291 25.188339619555958 87.04099325470789
    vertex 682.6903305327565 25.706106572522327 87.04099325470789
    vertex 678.3602035138344 25.706106572522334 87.04099325470789
  endloop
endfacet
facet normal 0.0 0.0 1.0
  outer loop
    vertex 678.3602035138344 25.706106572522334 87.04099325470789
    vertex 682.6903305327565 25.706106572522327 87.04099325470789
    vertex 682.9400815890182 26.309058959766023 87.04099325470789
  endloop
endfacet
facet normal 0.0 0.0 1.0
  outer loop
    vertex 678.3602035138344 25.706106572522334 87.04099325470789
    vertex 682.9400815890182 26.309058959766023 87.04099325470789
    vertex 678.1104524575729 26.309058959766027 87.04099325470789
  endloop
endfacet
facet normal 0.0 0.0 1.0
  outer loop
    vertex 678.1104524575729 26.309058959766027 87.04099325470789
    vertex 682.9400815890182 26.309058959766023 87.04099325470789
    vertex 683.0252670232954 26.95610657252233 87.04099325470789
  endloop
endfacet
facet normal 0.0 0.0 1.0
  outer loop
    vertex 678.1104524575729 26.309058959766027 87.04099325470789
    vertex 683.0252670232954 26.95610657252233 87.04099325470789
    vertex 678.0252670232956 26.95610657252233 87.04099325470789
  endloop
endfacet
facet normal 0.0 0.0 1.0
  outer loop
    vertex 678.0252670232956 26.95610657252233 87.04099325470789
    vertex 683.0252670232954 26.95610657252233 87.04099325470789
    vertex 682.9400815890182 27.60315418527863 87.04099325470789
  endloop
endfacet
facet normal 0.0 0.0 1.0
  outer loop
    vertex 678.0252670232956 26.95610657252233 87.04099325470789
    vertex 682.9400815890182 27.60315418527863 87.04099325470789
    vertex 678.1104524575729 27.60315418527863 87.04099325470789
  endloop
endfacet
facet normal 0.0 0.0 1.0
  outer loop
    vertex 678.1104524575729 27.60315418527863 87.04099325470789
    vertex 682.9400815890182 27.60315418527863 87.04099325470789
    vertex 682.6903305327565 28.206106572522327 87.04099325470789
  endloop
endfacet
facet normal 0.0 0.0 1.0
  outer loop
    vertex 678.1104524575729 27.60315418527863 87.04099325470789
    vertex 682.6903305327565 28.206106572522327 87.04099325470789
    vertex 678.3602035138344 28.206106572522334 87.04099325470789
  endloop
endfacet
facet normal 0.0 0.0 1.0
  outer loop
    vertex 678.3602035138344 28.206106572522334 87.04099325470789
    vertex 682.6903305327565 28.206106572522327 87.04099325470789
    vertex 682.2930339762619 28.723873525488695 87.04099325470789
  endloop
endfacet
facet normal 0.0 0.0 1.0
  outer loop
    vertex 678.3602035138344 28.206106572522334 87.04099325470789
    vertex 682.2930339762619 28.723873525488695 87.04099325470789
    vertex 678.7575000703291 28.723873525488695 87.04099325470789
  endloop
endfacet
facet normal 0.0 0.0 1.0
  outer loop
    vertex 678.7575000703291 28.723873525488695 87.04099325470789
    vertex 682.2930339762619 28.723873525488695 87.04099325470789
    vertex 681.7752670232956 29.121170081983426 87.04099325470789
  endloop
endfacet
facet normal 0.0 0.0 1.0
  outer loop
    vertex 678.7575000703291 28.723873525488695 87.04099325470789
    vertex 681.7752670232956 29.121170081983426 87.04099325470789
    vertex 679.2752670232956 29.121170081983426 87.04099325470789
  endloop
endfacet
facet normal 0.0 0.0 1.0
  outer loop
    vertex 679.2752670232956 29.121170081983426 87.04099325470789
    vertex 681.7752670232956 29.121170081983426 87.04099325470789
    vertex 681.1723146360519 29.370921138245 87.04099325470789
  endloop
endfacet
facet normal 0.0 0.0 1.0
  outer loop
    vertex 679.2752670232956 29.121170081983426 87.04099325470789
    vertex 681.1723146360519 29.370921138245 87.04099325470789
    vertex 679.8782194105391 29.370921138245 87.04099325470789
  endloop
endfacet
facet normal 0.0 0.0 1.0
  outer loop
    vertex 679.8782194105391 29.370921138245 87.04099325470789
    vertex 681.1723146360519 29.370921138245 87.04099325470789
    vertex 680.5252670232956 29.45610657252233 87.04099325470789
  endloop
endfacet
facet normal 0.13052619222004516 -0.9914448613738113 0.0
  outer loop
    vertex 680.5252670232956 24.45610657252233 87.04099325470789
    vertex 681.1723146360519 24.541292006799658 77.04099325470787
    vertex 681.1723146360519 24.541292006799658 87.04099325470789
  endloop
endfacet
facet normal 0.13052619222004516 -0.9914448613738113 0.0
  outer loop
    vertex 681.1723146360519 24.541292006799658 77.04099325470787
    vertex 680.5252670232956 24.45610657252233 87.04099325470789
    vertex 680.5252670232956 24.45610657252233 77.04099325470787
  endloop
endfacet
facet normal -0.13052619222004516 -0.9914448613738113 0.0
  outer loop
    vertex 679.8782194105391 24.541292006799658 87.04099325470789
    vertex 680.5252670232956 24.45610657252233 77.04099325470787
    vertex 680.5252670232956 24.45610657252233 87.04099325470789
  endloop
endfacet
facet normal -0.13052619222004516 -0.9914448613738113 0.0
  outer loop
    vertex 680.5252670232956 24.45610657252233 77.04099325470787
    vertex 679.8782194105391 24.541292006799658 87.04099325470789
    vertex 679.8782194105391 24.541292006799658 77.04099325470787
  endloop
endfacet
facet normal -0.38268343236511465 -0.9238795325112764 -1.2325951644078307e-32
  outer loop
    vertex 679.2752670232956 24.79104306306123 87.04099325470789
    vertex 679.8782194105391 24.541292006799658 77.04099325470787
    vertex 679.8782194105391 24.541292006799658 87.04099325470789
  endloop
endfacet
facet normal -0.38268343236511465 -0.9238795325112764 -1.2325951644078307e-32
  outer loop
    vertex 679.8782194105391 24.541292006799658 77.04099325470787
    vertex 679.2752670232956 24.79104306306123 87.04099325470789
    vertex 679.2752670232956 24.79104306306123 77.04099325470787
  endloop
endfacet
facet normal -0.6087614290086903 -0.7933533402912584 0.0
  outer loop
    vertex 678.7575000703291 25.188339619555958 87.04099325470789
    vertex 679.2752670232956 24.79104306306123 77.04099325470787
    vertex 679.2752670232956 24.79104306306123 87.04099325470789
  endloop
endfacet
facet normal -0.6087614290086903 -0.7933533402912584 0.0
  outer loop
    vertex 679.2752670232956 24.79104306306123 77.04099325470787
    vertex 678.7575000703291 25.188339619555958 87.04099325470789
    vertex 678.7575000703291 25.188339619555958 77.04099325470787
  endloop
endfacet
facet normal -0.7933533402912835 -0.6087614290086576 -2.4651903288156613e-32
  outer loop
    vertex 678.7575000703291 25.188339619555958 87.04099325470789
    vertex 678.3602035138344 25.706106572522334 77.04099325470787
    vertex 678.7575000703291 25.188339619555958 77.04099325470787
  endloop
endfacet
facet normal -0.7933533402912835 -0.6087614290086576 -2.4651903288156613e-32
  outer loop
    vertex 678.3602035138344 25.706106572522334 77.04099325470787
    vertex 678.7575000703291 25.188339619555958 87.04099325470789
    vertex 678.3602035138344 25.706106572522334 87.04099325470789
  endloop
endfacet
facet normal -0.9238795325112836 -0.3826834323650976 0.0
  outer loop
    vertex 678.3602035138344 25.706106572522334 87.04099325470789
    vertex 678.1104524575729 26.309058959766027 77.04099325470787
    vertex 678.3602035138344 25.706106572522334 77.04099325470787
  endloop
endfacet
facet normal -0.9238795325112836 -0.3826834323650976 0.0
  outer loop
    vertex 678.1104524575729 26.309058959766027 77.04099325470787
    vertex 678.3602035138344 25.706106572522334 87.04099325470789
    vertex 678.1104524575729 26.309058959766027 87.04099325470789
  endloop
endfacet
facet normal -0.9914448613738099 -0.13052619222005613 0.0
  outer loop
    vertex 678.1104524575729 26.309058959766027 87.04099325470789
    vertex 678.0252670232956 26.95610657252233 77.04099325470787
    vertex 678.1104524575729 26.309058959766027 77.04099325470787
  endloop
endfacet
facet normal -0.9914448613738099 -0.13052619222005613 0.0
  outer loop
    vertex 678.0252670232956 26.95610657252233 77.04099325470787
    vertex 678.1104524575729 26.309058959766027 87.04099325470789
    vertex 678.0252670232956 26.95610657252233 87.04099325470789
  endloop
endfacet
facet normal -0.9914448613738099 0.13052619222005613 0.0
  outer loop
    vertex 678.0252670232956 26.95610657252233 87.04099325470789
    vertex 678.1104524575729 27.60315418527863 77.04099325470787
    vertex 678.0252670232956 26.95610657252233 77.04099325470787
  endloop
endfacet
facet normal -0.9914448613738099 0.13052619222005613 0.0
  outer loop
    vertex 678.1104524575729 27.60315418527863 77.04099325470787
    vertex 678.0252670232956 26.95610657252233 87.04099325470789
    vertex 678.1104524575729 27.60315418527863 87.04099325470789
  endloop
endfacet
facet normal -0.9238795325112849 0.3826834323650946 0.0
  outer loop
    vertex 678.1104524575729 27.60315418527863 87.04099325470789
    vertex 678.3602035138344 28.206106572522334 77.04099325470787
    vertex 678.1104524575729 27.60315418527863 77.04099325470787
  endloop
endfacet
facet normal -0.9238795325112849 0.3826834323650946 0.0
  outer loop
    vertex 678.3602035138344 28.206106572522334 77.04099325470787
    vertex 678.1104524575729 27.60315418527863 87.04099325470789
    vertex 678.3602035138344 28.206106572522334 87.04099325470789
  endloop
endfacet
facet normal -0.7933533402912788 0.608761429008664 2.4651903288156624e-32
  outer loop
    vertex 678.3602035138344 28.206106572522334 87.04099325470789
    vertex 678.7575000703291 28.723873525488695 77.04099325470787
    vertex 678.3602035138344 28.206106572522334 77.04099325470787
  endloop
endfacet
facet normal -0.7933533402912788 0.608761429008664 2.4651903288156624e-32
  outer loop
    vertex 678.7575000703291 28.723873525488695 77.04099325470787
    vertex 678.3602035138344 28.206106572522334 87.04099325470789
    vertex 678.7575000703291 28.723873525488695 87.04099325470789
  endloop
endfacet
facet normal -0.6087614290086903 0.7933533402912584 0.0
  outer loop
    vertex 678.7575000703291 28.723873525488695 77.04099325470787
    vertex 679.2752670232956 29.121170081983426 87.04099325470789
    vertex 679.2752670232956 29.121170081983426 77.04099325470787
  endloop
endfacet
facet normal -0.6087614290086903 0.7933533402912584 0.0
  outer loop
    vertex 679.2752670232956 29.121170081983426 87.04099325470789
    vertex 678.7575000703291 28.723873525488695 77.04099325470787
    vertex 678.7575000703291 28.723873525488695 87.04099325470789
  endloop
endfacet
facet normal -0.38268343236511465 0.9238795325112764 -1.2325951644078307e-32
  outer loop
    vertex 679.2752670232956 29.121170081983426 77.04099325470787
    vertex 679.8782194105391 29.370921138245 87.04099325470789
    vertex 679.8782194105391 29.370921138245 77.04099325470787
  endloop
endfacet
facet normal -0.38268343236511465 0.9238795325112764 -1.2325951644078307e-32
  outer loop
    vertex 679.8782194105391 29.370921138245 87.04099325470789
    vertex 679.2752670232956 29.121170081983426 77.04099325470787
    vertex 679.2752670232956 29.121170081983426 87.04099325470789
  endloop
endfacet
facet normal -0.1305261922200494 0.9914448613738107 0.0
  outer loop
    vertex 679.8782194105391 29.370921138245 77.04099325470787
    vertex 680.5252670232956 29.45610657252233 87.04099325470789
    vertex 680.5252670232956 29.45610657252233 77.04099325470787
  endloop
endfacet
facet normal -0.1305261922200494 0.9914448613738107 0.0
  outer loop
    vertex 680.5252670232956 29.45610657252233 87.04099325470789
    vertex 679.8782194105391 29.370921138245 77.04099325470787
    vertex 679.8782194105391 29.370921138245 87.04099325470789
  endloop
endfacet
facet normal 0.1305261922200494 0.9914448613738107 0.0
  outer loop
    vertex 680.5252670232956 29.45610657252233 77.04099325470787
    vertex 681.1723146360519 29.370921138245 87.04099325470789
    vertex 681.1723146360519 29.370921138245 77.04099325470787
  endloop
endfacet
facet normal 0.1305261922200494 0.9914448613738107 0.0
  outer loop
    vertex 681.1723146360519 29.370921138245 87.04099325470789
    vertex 680.5252670232956 29.45610657252233 77.04099325470787
    vertex 680.5252670232956 29.45610657252233 87.04099325470789
  endloop
endfacet
facet normal 0.38268343236511465 0.9238795325112764 1.2325951644078307e-32
  outer loop
    vertex 681.1723146360519 29.370921138245 77.04099325470787
    vertex 681.7752670232956 29.121170081983426 87.04099325470789
    vertex 681.7752670232956 29.121170081983426 77.04099325470787
  endloop
endfacet
facet normal 0.38268343236511465 0.9238795325112764 1.2325951644078307e-32
  outer loop
    vertex 681.7752670232956 29.121170081983426 87.04099325470789
    vertex 681.1723146360519 29.370921138245 77.04099325470787
    vertex 681.1723146360519 29.370921138245 87.04099325470789
  endloop
endfacet
facet normal 0.6087614290086903 0.7933533402912584 0.0
  outer loop
    vertex 681.7752670232956 29.121170081983426 77.04099325470787
    vertex 682.2930339762619 28.723873525488695 87.04099325470789
    vertex 682.2930339762619 28.723873525488695 77.04099325470787
  endloop
endfacet
facet normal 0.6087614290086903 0.7933533402912584 0.0
  outer loop
    vertex 682.2930339762619 28.723873525488695 87.04099325470789
    vertex 681.7752670232956 29.121170081983426 77.04099325470787
    vertex 681.7752670232956 29.121170081983426 87.04099325470789
  endloop
endfacet
facet normal 0.7933533402912819 0.6087614290086598 0.0
  outer loop
    vertex 682.2930339762619 28.723873525488695 87.04099325470789
    vertex 682.6903305327565 28.206106572522327 77.04099325470787
    vertex 682.2930339762619 28.723873525488695 77.04099325470787
  endloop
endfacet
facet normal 0.7933533402912819 0.6087614290086598 0.0
  outer loop
    vertex 682.6903305327565 28.206106572522327 77.04099325470787
    vertex 682.2930339762619 28.723873525488695 87.04099325470789
    vertex 682.6903305327565 28.206106572522327 87.04099325470789
  endloop
endfacet
facet normal 0.9238795325112836 0.3826834323650976 0.0
  outer loop
    vertex 682.6903305327565 28.206106572522327 87.04099325470789
    vertex 682.9400815890182 27.60315418527863 77.04099325470787
    vertex 682.6903305327565 28.206106572522327 77.04099325470787
  endloop
endfacet
facet normal 0.9238795325112836 0.3826834323650976 0.0
  outer loop
    vertex 682.9400815890182 27.60315418527863 77.04099325470787
    vertex 682.6903305327565 28.206106572522327 87.04099325470789
    vertex 682.9400815890182 27.60315418527863 87.04099325470789
  endloop
endfacet
facet normal 0.9914448613738099 0.13052619222005613 0.0
  outer loop
    vertex 682.9400815890182 27.60315418527863 87.04099325470789
    vertex 683.0252670232954 26.95610657252233 77.04099325470787
    vertex 682.9400815890182 27.60315418527863 77.04099325470787
  endloop
endfacet
facet normal 0.9914448613738099 0.13052619222005613 0.0
  outer loop
    vertex 683.0252670232954 26.95610657252233 77.04099325470787
    vertex 682.9400815890182 27.60315418527863 87.04099325470789
    vertex 683.0252670232954 26.95610657252233 87.04099325470789
  endloop
endfacet
facet normal 0.99144486137381 -0.13052619222005502 -2.465190328815662e-32
  outer loop
    vertex 683.0252670232954 26.95610657252233 87.04099325470789
    vertex 682.9400815890182 26.309058959766023 77.04099325470787
    vertex 683.0252670232954 26.95610657252233 77.04099325470787
  endloop
endfacet
facet normal 0.99144486137381 -0.13052619222005502 -2.465190328815662e-32
  outer loop
    vertex 682.9400815890182 26.309058959766023 77.04099325470787
    vertex 683.0252670232954 26.95610657252233 87.04099325470789
    vertex 682.9400815890182 26.309058959766023 87.04099325470789
  endloop
endfacet
facet normal 0.9238795325112836 -0.3826834323650976 0.0
  outer loop
    vertex 682.9400815890182 26.309058959766023 87.04099325470789
    vertex 682.6903305327565 25.706106572522327 77.04099325470787
    vertex 682.9400815890182 26.309058959766023 77.04099325470787
  endloop
endfacet
facet normal 0.9238795325112836 -0.3826834323650976 0.0
  outer loop
    vertex 682.6903305327565 25.706106572522327 77.04099325470787
    vertex 682.9400815890182 26.309058959766023 87.04099325470789
    vertex 682.6903305327565 25.706106572522327 87.04099325470789
  endloop
endfacet
facet normal 0.7933533402912804 -0.6087614290086619 0.0
  outer loop
    vertex 682.6903305327565 25.706106572522327 87.04099325470789
    vertex 682.2930339762619 25.188339619555958 77.04099325470787
    vertex 682.6903305327565 25.706106572522327 77.04099325470787
  endloop
endfacet
facet normal 0.7933533402912804 -0.6087614290086619 0.0
  outer loop
    vertex 682.2930339762619 25.188339619555958 77.04099325470787
    vertex 682.6903305327565 25.706106572522327 87.04099325470789
    vertex 682.2930339762619 25.188339619555958 87.04099325470789
  endloop
endfacet
facet normal 0.6087614290086903 -0.7933533402912584 0.0
  outer loop
    vertex 681.7752670232956 24.79104306306123 87.04099325470789
    vertex 682.2930339762619 25.188339619555958 77.04099325470787
    vertex 682.2930339762619 25.188339619555958 87.04099325470789
  endloop
endfacet
facet normal 0.6087614290086903 -0.7933533402912584 0.0
  outer loop
    vertex 682.2930339762619 25.188339619555958 77.04099325470787
    vertex 681.7752670232956 24.79104306306123 87.04099325470789
    vertex 681.7752670232956 24.79104306306123 77.04099325470787
  endloop
endfacet
facet normal 0.38268343236511465 -0.9238795325112764 1.2325951644078307e-32
  outer loop
    vertex 681.1723146360519 24.541292006799658 87.04099325470789
    vertex 681.7752670232956 24.79104306306123 77.04099325470787
    vertex 681.7752670232956 24.79104306306123 87.04099325470789
  endloop
endfacet
facet normal 0.38268343236511465 -0.9238795325112764 1.2325951644078307e-32
  outer loop
    vertex 681.7752670232956 24.79104306306123 77.04099325470787
    vertex 681.1723146360519 24.541292006799658 87.04099325470789
    vertex 681.1723146360519 24.541292006799658 77.04099325470787
  endloop
endfacet
facet normal 0.0 0.0 1.0
  outer loop
    vertex 681.1723146360519 78.45350515184431 87.04099325470789
    vertex 679.8782194105391 78.45350515184431 87.04099325470789
    vertex 680.5252670232956 78.36831971756698 87.04099325470789
  endloop
endfacet
facet normal 0.0 0.0 1.0
  outer loop
    vertex 679.8782194105391 78.45350515184431 87.04099325470789
    vertex 681.1723146360519 78.45350515184431 87.04099325470789
    vertex 681.7752670232956 78.70325620810587 87.04099325470789
  endloop
endfacet
facet normal 0.0 0.0 1.0
  outer loop
    vertex 679.8782194105391 78.45350515184431 87.04099325470789
    vertex 681.7752670232956 78.70325620810587 87.04099325470789
    vertex 679.2752670232956 78.70325620810587 87.04099325470789
  endloop
endfacet
facet normal 0.0 0.0 1.0
  outer loop
    vertex 679.2752670232956 78.70325620810587 87.04099325470789
    vertex 681.7752670232956 78.70325620810587 87.04099325470789
    vertex 682.2930339762619 79.10055276460061 87.04099325470789
  endloop
endfacet
facet normal 0.0 0.0 1.0
  outer loop
    vertex 679.2752670232956 78.70325620810587 87.04099325470789
    vertex 682.2930339762619 79.10055276460061 87.04099325470789
    vertex 678.7575000703291 79.10055276460061 87.04099325470789
  endloop
endfacet
facet normal 0.0 0.0 1.0
  outer loop
    vertex 678.7575000703291 79.10055276460061 87.04099325470789
    vertex 682.2930339762619 79.10055276460061 87.04099325470789
    vertex 682.6903305327565 79.61831971756698 87.04099325470789
  endloop
endfacet
facet normal 0.0 0.0 1.0
  outer loop
    vertex 678.7575000703291 79.10055276460061 87.04099325470789
    vertex 682.6903305327565 79.61831971756698 87.04099325470789
    vertex 678.3602035138344 79.61831971756698 87.04099325470789
  endloop
endfacet
facet normal 0.0 0.0 1.0
  outer loop
    vertex 678.3602035138344 79.61831971756698 87.04099325470789
    vertex 682.6903305327565 79.61831971756698 87.04099325470789
    vertex 682.9400815890182 80.22127210481067 87.04099325470789
  endloop
endfacet
facet normal 0.0 0.0 1.0
  outer loop
    vertex 678.3602035138344 79.61831971756698 87.04099325470789
    vertex 682.9400815890182 80.22127210481067 87.04099325470789
    vertex 678.1104524575729 80.22127210481067 87.04099325470789
  endloop
endfacet
facet normal 0.0 0.0 1.0
  outer loop
    vertex 678.1104524575729 80.22127210481067 87.04099325470789
    vertex 682.9400815890182 80.22127210481067 87.04099325470789
    vertex 683.0252670232954 80.86831971756698 87.04099325470789
  endloop
endfacet
facet normal 0.0 0.0 1.0
  outer loop
    vertex 678.1104524575729 80.22127210481067 87.04099325470789
    vertex 683.0252670232954 80.86831971756698 87.04099325470789
    vertex 678.0252670232956 80.86831971756698 87.04099325470789
  endloop
endfacet
facet normal 0.0 0.0 1.0
  outer loop
    vertex 678.0252670232956 80.86831971756698 87.04099325470789
    vertex 683.0252670232954 80.86831971756698 87.04099325470789
    vertex 682.9400815890182 81.51536733032327 87.04099325470789
  endloop
endfacet
facet normal 0.0 0.0 1.0
  outer loop
    vertex 678.0252670232956 80.86831971756698 87.04099325470789
    vertex 682.9400815890182 81.51536733032327 87.04099325470789
    vertex 678.1104524575729 81.51536733032327 87.04099325470789
  endloop
endfacet
facet normal 0.0 0.0 1.0
  outer loop
    vertex 678.1104524575729 81.51536733032327 87.04099325470789
    vertex 682.9400815890182 81.51536733032327 87.04099325470789
    vertex 682.6903305327565 82.11831971756698 87.04099325470789
  endloop
endfacet
facet normal 0.0 0.0 1.0
  outer loop
    vertex 678.1104524575729 81.51536733032327 87.04099325470789
    vertex 682.6903305327565 82.11831971756698 87.04099325470789
    vertex 678.3602035138344 82.11831971756698 87.04099325470789
  endloop
endfacet
facet normal 0.0 0.0 1.0
  outer loop
    vertex 678.3602035138344 82.11831971756698 87.04099325470789
    vertex 682.6903305327565 82.11831971756698 87.04099325470789
    vertex 682.2930339762619 82.63608667053333 87.04099325470789
  endloop
endfacet
facet normal 0.0 0.0 1.0
  outer loop
    vertex 678.3602035138344 82.11831971756698 87.04099325470789
    vertex 682.2930339762619 82.63608667053333 87.04099325470789
    vertex 678.7575000703291 82.63608667053333 87.04099325470789
  endloop
endfacet
facet normal 0.0 0.0 1.0
  outer loop
    vertex 678.7575000703291 82.63608667053333 87.04099325470789
    vertex 682.2930339762619 82.63608667053333 87.04099325470789
    vertex 681.7752670232956 83.03338322702807 87.04099325470789
  endloop
endfacet
facet normal 0.0 0.0 1.0
  outer loop
    vertex 678.7575000703291 82.63608667053333 87.04099325470789
    vertex 681.7752670232956 83.03338322702807 87.04099325470789
    vertex 679.2752670232956 83.03338322702807 87.04099325470789
  endloop
endfacet
facet normal 0.0 0.0 1.0
  outer loop
    vertex 679.2752670232956 83.03338322702807 87.04099325470789
    vertex 681.7752670232956 83.03338322702807 87.04099325470789
    vertex 681.1723146360519 83.28313428328964 87.04099325470789
  endloop
endfacet
facet normal 0.0 0.0 1.0
  outer loop
    vertex 679.2752670232956 83.03338322702807 87.04099325470789
    vertex 681.1723146360519 83.28313428328964 87.04099325470789
    vertex 679.8782194105391 83.28313428328964 87.04099325470789
  endloop
endfacet
facet normal 0.0 0.0 1.0
  outer loop
    vertex 679.8782194105391 83.28313428328964 87.04099325470789
    vertex 681.1723146360519 83.28313428328964 87.04099325470789
    vertex 680.5252670232956 83.36831971756696 87.04099325470789
  endloop
endfacet
facet normal 0.1305261922200494 -0.9914448613738107 0.0
  outer loop
    vertex 680.5252670232956 78.36831971756698 87.04099325470789
    vertex 681.1723146360519 78.45350515184431 77.04099325470787
    vertex 681.1723146360519 78.45350515184431 87.04099325470789
  endloop
endfacet
facet normal 0.1305261922200494 -0.9914448613738107 0.0
  outer loop
    vertex 681.1723146360519 78.45350515184431 77.04099325470787
    vertex 680.5252670232956 78.36831971756698 87.04099325470789
    vertex 680.5252670232956 78.36831971756698 77.04099325470787
  endloop
endfacet
facet normal -0.1305261922200494 -0.9914448613738107 0.0
  outer loop
    vertex 679.8782194105391 78.45350515184431 87.04099325470789
    vertex 680.5252670232956 78.36831971756698 77.04099325470787
    vertex 680.5252670232956 78.36831971756698 87.04099325470789
  endloop
endfacet
facet normal -0.1305261922200494 -0.9914448613738107 0.0
  outer loop
    vertex 680.5252670232956 78.36831971756698 77.04099325470787
    vertex 679.8782194105391 78.45350515184431 87.04099325470789
    vertex 679.8782194105391 78.45350515184431 77.04099325470787
  endloop
endfacet
facet normal -0.38268343236510727 -0.9238795325112794 -1.2325951644078307e-32
  outer loop
    vertex 679.2752670232956 78.70325620810587 87.04099325470789
    vertex 679.8782194105391 78.45350515184431 77.04099325470787
    vertex 679.8782194105391 78.45350515184431 87.04099325470789
  endloop
endfacet
facet normal -0.38268343236510727 -0.9238795325112794 -1.2325951644078307e-32
  outer loop
    vertex 679.8782194105391 78.45350515184431 77.04099325470787
    vertex 679.2752670232956 78.70325620810587 87.04099325470789
    vertex 679.2752670232956 78.70325620810587 77.04099325470787
  endloop
endfacet
facet normal -0.6087614290086958 -0.7933533402912541 0.0
  outer loop
    vertex 678.7575000703291 79.10055276460061 87.04099325470789
    vertex 679.2752670232956 78.70325620810587 77.04099325470787
    vertex 679.2752670232956 78.70325620810587 87.04099325470789
  endloop
endfacet
facet normal -0.6087614290086958 -0.7933533402912541 0.0
  outer loop
    vertex 679.2752670232956 78.70325620810587 77.04099325470787
    vertex 678.7575000703291 79.10055276460061 87.04099325470789
    vertex 678.7575000703291 79.10055276460061 77.04099325470787
  endloop
endfacet
facet normal -0.7933533402912788 -0.608761429008664 2.4651903288156624e-32
  outer loop
    vertex 678.7575000703291 79.10055276460061 87.04099325470789
    vertex 678.3602035138344 79.61831971756698 77.04099325470787
    vertex 678.7575000703291 79.10055276460061 77.04099325470787
  endloop
endfacet
facet normal -0.7933533402912788 -0.608761429008664 2.4651903288156624e-32
  outer loop
    vertex 678.3602035138344 79.61831971756698 77.04099325470787
    vertex 678.7575000703291 79.10055276460061 87.04099325470789
    vertex 678.3602035138344 79.61831971756698 87.04099325470789
  endloop
endfacet
facet normal -0.9238795325112836 -0.3826834323650976 0.0
  outer loop
    vertex 678.3602035138344 79.61831971756698 87.04099325470789
    vertex 678.1104524575729 80.22127210481067 77.04099325470787
    vertex 678.3602035138344 79.61831971756698 77.04099325470787
  endloop
endfacet
facet normal -0.9238795325112836 -0.3826834323650976 0.0
  outer loop
    vertex 678.1104524575729 80.22127210481067 77.04099325470787
    vertex 678.3602035138344 79.61831971756698 87.04099325470789
    vertex 678.1104524575729 80.22127210481067 87.04099325470789
  endloop
endfacet
facet normal -0.9914448613738099 -0.13052619222005613 0.0
  outer loop
    vertex 678.1104524575729 80.22127210481067 87.04099325470789
    vertex 678.0252670232956 80.86831971756698 77.04099325470787
    vertex 678.1104524575729 80.22127210481067 77.04099325470787
  endloop
endfacet
facet normal -0.9914448613738099 -0.13052619222005613 0.0
  outer loop
    vertex 678.0252670232956 80.86831971756698 77.04099325470787
    vertex 678.1104524575729 80.22127210481067 87.04099325470789
    vertex 678.0252670232956 80.86831971756698 87.04099325470789
  endloop
endfacet
facet normal -0.9914448613738099 0.13052619222005613 0.0
  outer loop
    vertex 678.0252670232956 80.86831971756698 87.04099325470789
    vertex 678.1104524575729 81.51536733032327 77.04099325470787
    vertex 678.0252670232956 80.86831971756698 77.04099325470787
  endloop
endfacet
facet normal -0.9914448613738099 0.13052619222005613 0.0
  outer loop
    vertex 678.1104524575729 81.51536733032327 77.04099325470787
    vertex 678.0252670232956 80.86831971756698 87.04099325470789
    vertex 678.1104524575729 81.51536733032327 87.04099325470789
  endloop
endfacet
facet normal -0.9238795325112836 0.3826834323650976 0.0
  outer loop
    vertex 678.1104524575729 81.51536733032327 87.04099325470789
    vertex 678.3602035138344 82.11831971756698 77.04099325470787
    vertex 678.1104524575729 81.51536733032327 77.04099325470787
  endloop
endfacet
facet normal -0.9238795325112836 0.3826834323650976 0.0
  outer loop
    vertex 678.3602035138344 82.11831971756698 77.04099325470787
    vertex 678.1104524575729 81.51536733032327 87.04099325470789
    vertex 678.3602035138344 82.11831971756698 87.04099325470789
  endloop
endfacet
facet normal -0.7933533402912788 0.608761429008664 2.4651903288156624e-32
  outer loop
    vertex 678.3602035138344 82.11831971756698 87.04099325470789
    vertex 678.7575000703291 82.63608667053333 77.04099325470787
    vertex 678.3602035138344 82.11831971756698 77.04099325470787
  endloop
endfacet
facet normal -0.7933533402912788 0.608761429008664 2.4651903288156624e-32
  outer loop
    vertex 678.7575000703291 82.63608667053333 77.04099325470787
    vertex 678.3602035138344 82.11831971756698 87.04099325470789
    vertex 678.7575000703291 82.63608667053333 87.04099325470789
  endloop
endfacet
facet normal -0.6087614290086958 0.7933533402912541 0.0
  outer loop
    vertex 678.7575000703291 82.63608667053333 77.04099325470787
    vertex 679.2752670232956 83.03338322702807 87.04099325470789
    vertex 679.2752670232956 83.03338322702807 77.04099325470787
  endloop
endfacet
facet normal -0.6087614290086958 0.7933533402912541 0.0
  outer loop
    vertex 679.2752670232956 83.03338322702807 87.04099325470789
    vertex 678.7575000703291 82.63608667053333 77.04099325470787
    vertex 678.7575000703291 82.63608667053333 87.04099325470789
  endloop
endfacet
facet normal -0.38268343236510727 0.9238795325112794 -1.2325951644078307e-32
  outer loop
    vertex 679.2752670232956 83.03338322702807 77.04099325470787
    vertex 679.8782194105391 83.28313428328964 87.04099325470789
    vertex 679.8782194105391 83.28313428328964 77.04099325470787
  endloop
endfacet
facet normal -0.38268343236510727 0.9238795325112794 -1.2325951644078307e-32
  outer loop
    vertex 679.8782194105391 83.28313428328964 87.04099325470789
    vertex 679.2752670232956 83.03338322702807 77.04099325470787
    vertex 679.2752670232956 83.03338322702807 87.04099325470789
  endloop
endfacet
facet normal -0.1305261922200494 0.9914448613738107 0.0
  outer loop
    vertex 679.8782194105391 83.28313428328964 77.04099325470787
    vertex 680.5252670232956 83.36831971756696 87.04099325470789
    vertex 680.5252670232956 83.36831971756696 77.04099325470787
  endloop
endfacet
facet normal -0.1305261922200494 0.9914448613738107 0.0
  outer loop
    vertex 680.5252670232956 83.36831971756696 87.04099325470789
    vertex 679.8782194105391 83.28313428328964 77.04099325470787
    vertex 679.8782194105391 83.28313428328964 87.04099325470789
  endloop
endfacet
facet normal 0.1305261922200494 0.9914448613738107 0.0
  outer loop
    vertex 680.5252670232956 83.36831971756696 77.04099325470787
    vertex 681.1723146360519 83.28313428328964 87.04099325470789
    vertex 681.1723146360519 83.28313428328964 77.04099325470787
  endloop
endfacet
facet normal 0.1305261922200494 0.9914448613738107 0.0
  outer loop
    vertex 681.1723146360519 83.28313428328964 87.04099325470789
    vertex 680.5252670232956 83.36831971756696 77.04099325470787
    vertex 680.5252670232956 83.36831971756696 87.04099325470789
  endloop
endfacet
facet normal 0.38268343236510727 0.9238795325112794 1.2325951644078307e-32
  outer loop
    vertex 681.1723146360519 83.28313428328964 77.04099325470787
    vertex 681.7752670232956 83.03338322702807 87.04099325470789
    vertex 681.7752670232956 83.03338322702807 77.04099325470787
  endloop
endfacet
facet normal 0.38268343236510727 0.9238795325112794 1.2325951644078307e-32
  outer loop
    vertex 681.7752670232956 83.03338322702807 87.04099325470789
    vertex 681.1723146360519 83.28313428328964 77.04099325470787
    vertex 681.1723146360519 83.28313428328964 87.04099325470789
  endloop
endfacet
facet normal 0.6087614290086958 0.7933533402912541 0.0
  outer loop
    vertex 681.7752670232956 83.03338322702807 77.04099325470787
    vertex 682.2930339762619 82.63608667053333 87.04099325470789
    vertex 682.2930339762619 82.63608667053333 77.04099325470787
  endloop
endfacet
facet normal 0.6087614290086958 0.7933533402912541 0.0
  outer loop
    vertex 682.2930339762619 82.63608667053333 87.04099325470789
    vertex 681.7752670232956 83.03338322702807 77.04099325470787
    vertex 681.7752670232956 83.03338322702807 87.04099325470789
  endloop
endfacet
facet normal 0.7933533402912788 0.608761429008664 -2.4651903288156624e-32
  outer loop
    vertex 682.2930339762619 82.63608667053333 87.04099325470789
    vertex 682.6903305327565 82.11831971756698 77.04099325470787
    vertex 682.2930339762619 82.63608667053333 77.04099325470787
  endloop
endfacet
facet normal 0.7933533402912788 0.608761429008664 -2.4651903288156624e-32
  outer loop
    vertex 682.6903305327565 82.11831971756698 77.04099325470787
    vertex 682.2930339762619 82.63608667053333 87.04099325470789
    vertex 682.6903305327565 82.11831971756698 87.04099325470789
  endloop
endfacet
facet normal 0.9238795325112836 0.3826834323650976 0.0
  outer loop
    vertex 682.6903305327565 82.11831971756698 87.04099325470789
    vertex 682.9400815890182 81.51536733032327 77.04099325470787
    vertex 682.6903305327565 82.11831971756698 77.04099325470787
  endloop
endfacet
facet normal 0.9238795325112836 0.3826834323650976 0.0
  outer loop
    vertex 682.9400815890182 81.51536733032327 77.04099325470787
    vertex 682.6903305327565 82.11831971756698 87.04099325470789
    vertex 682.9400815890182 81.51536733032327 87.04099325470789
  endloop
endfacet
facet normal 0.9914448613738099 0.13052619222005613 0.0
  outer loop
    vertex 682.9400815890182 81.51536733032327 87.04099325470789
    vertex 683.0252670232954 80.86831971756698 77.04099325470787
    vertex 682.9400815890182 81.51536733032327 77.04099325470787
  endloop
endfacet
facet normal 0.9914448613738099 0.13052619222005613 0.0
  outer loop
    vertex 683.0252670232954 80.86831971756698 77.04099325470787
    vertex 682.9400815890182 81.51536733032327 87.04099325470789
    vertex 683.0252670232954 80.86831971756698 87.04099325470789
  endloop
endfacet
facet normal 0.9914448613738099 -0.13052619222005613 0.0
  outer loop
    vertex 683.0252670232954 80.86831971756698 87.04099325470789
    vertex 682.9400815890182 80.22127210481067 77.04099325470787
    vertex 683.0252670232954 80.86831971756698 77.04099325470787
  endloop
endfacet
facet normal 0.9914448613738099 -0.13052619222005613 0.0
  outer loop
    vertex 682.9400815890182 80.22127210481067 77.04099325470787
    vertex 683.0252670232954 80.86831971756698 87.04099325470789
    vertex 682.9400815890182 80.22127210481067 87.04099325470789
  endloop
endfacet
facet normal 0.9238795325112836 -0.3826834323650976 0.0
  outer loop
    vertex 682.9400815890182 80.22127210481067 87.04099325470789
    vertex 682.6903305327565 79.61831971756698 77.04099325470787
    vertex 682.9400815890182 80.22127210481067 77.04099325470787
  endloop
endfacet
facet normal 0.9238795325112836 -0.3826834323650976 0.0
  outer loop
    vertex 682.6903305327565 79.61831971756698 77.04099325470787
    vertex 682.9400815890182 80.22127210481067 87.04099325470789
    vertex 682.6903305327565 79.61831971756698 87.04099325470789
  endloop
endfacet
facet normal 0.7933533402912788 -0.608761429008664 -2.4651903288156624e-32
  outer loop
    vertex 682.6903305327565 79.61831971756698 87.04099325470789
    vertex 682.2930339762619 79.10055276460061 77.04099325470787
    vertex 682.6903305327565 79.61831971756698 77.04099325470787
  endloop
endfacet
facet normal 0.7933533402912788 -0.608761429008664 -2.4651903288156624e-32
  outer loop
    vertex 682.2930339762619 79.10055276460061 77.04099325470787
    vertex 682.6903305327565 79.61831971756698 87.04099325470789
    vertex 682.2930339762619 79.10055276460061 87.04099325470789
  endloop
endfacet
facet normal 0.6087614290086958 -0.7933533402912541 0.0
  outer loop
    vertex 681.7752670232956 78.70325620810587 87.04099325470789
    vertex 682.2930339762619 79.10055276460061 77.04099325470787
    vertex 682.2930339762619 79.10055276460061 87.04099325470789
  endloop
endfacet
facet normal 0.6087614290086958 -0.7933533402912541 0.0
  outer loop
    vertex 682.2930339762619 79.10055276460061 77.04099325470787
    vertex 681.7752670232956 78.70325620810587 87.04099325470789
    vertex 681.7752670232956 78.70325620810587 77.04099325470787
  endloop
endfacet
facet normal 0.38268343236510727 -0.9238795325112794 1.2325951644078307e-32
  outer loop
    vertex 681.1723146360519 78.45350515184431 87.04099325470789
    vertex 681.7752670232956 78.70325620810587 77.04099325470787
    vertex 681.7752670232956 78.70325620810587 87.04099325470789
  endloop
endfacet
facet normal 0.38268343236510727 -0.9238795325112794 1.2325951644078307e-32
  outer loop
    vertex 681.7752670232956 78.70325620810587 77.04099325470787
    vertex 681.1723146360519 78.45350515184431 87.04099325470789
    vertex 681.1723146360519 78.45350515184431 77.04099325470787
  endloop
endfacet
endsolid BaseBoxRobotArm
