solid BaseBoxRobotArm
facet normal -1.0 0.0 0.0
  outer loop
    vertex 574.4420111426001 220.196589207681 50.00000000000006
    vertex 574.4420111426001 240.19658920768097 30.000000000000092
    vertex 574.4420111426001 220.19658920768097 30.000000000000092
  endloop
endfacet
facet normal -1.0 0.0 0.0
  outer loop
    vertex 574.4420111426001 240.19658920768097 30.000000000000092
    vertex 574.4420111426001 220.196589207681 50.00000000000006
    vertex 574.4420111426001 300.19658920768103 50.000000000000036
  endloop
endfacet
facet normal -1.0 0.0 0.0
  outer loop
    vertex 574.4420111426001 240.19658920768097 30.000000000000092
    vertex 574.4420111426001 300.19658920768103 50.000000000000036
    vertex 574.4420111426001 240.19658920768097 10.000000000000037
  endloop
endfacet
facet normal -1.0 0.0 0.0
  outer loop
    vertex 574.4420111426001 240.19658920768097 10.000000000000037
    vertex 574.4420111426001 300.19658920768103 50.000000000000036
    vertex 574.4420111426001 280.196589207681 30.000000000000092
  endloop
endfacet
facet normal -1.0 0.0 0.0
  outer loop
    vertex 574.4420111426001 280.196589207681 30.000000000000092
    vertex 574.4420111426001 300.19658920768103 50.000000000000036
    vertex 574.4420111426001 300.19658920768103 30.000000000000025
  endloop
endfacet
facet normal -1.0 0.0 0.0
  outer loop
    vertex 574.4420111426001 280.196589207681 10.000000000000128
    vertex 574.4420111426001 240.19658920768097 10.000000000000037
    vertex 574.4420111426001 280.196589207681 30.000000000000092
  endloop
endfacet
facet normal 0.0 9.714451465470122e-17 -1.0
  outer loop
    vertex 584.4420111426001 240.19658920768097 30.000000000000092
    vertex 574.4420111426001 220.19658920768097 30.000000000000092
    vertex 574.4420111426001 240.19658920768097 30.000000000000092
  endloop
endfacet
facet normal 0.0 9.714451465470122e-17 -1.0
  outer loop
    vertex 574.4420111426001 220.19658920768097 30.000000000000092
    vertex 584.4420111426001 240.19658920768097 30.000000000000092
    vertex 584.4420111426001 220.19658920768097 30.000000000000092
  endloop
endfacet
facet normal 1.0 0.0 0.0
  outer loop
    vertex 584.4420111426001 308.6965892076809 9.023892744153264e-14
    vertex 584.4420111426001 211.69658920768097 10.00000000000006
    vertex 584.4420111426001 211.69658920768092 -8.01482679704548e-29
  endloop
endfacet
facet normal 1.0 0.0 0.0
  outer loop
    vertex 584.4420111426001 211.69658920768097 10.00000000000006
    vertex 584.4420111426001 308.6965892076809 9.023892744153264e-14
    vertex 584.4420111426001 240.19658920768097 10.000000000000037
  endloop
endfacet
facet normal 1.0 0.0 0.0
  outer loop
    vertex 584.4420111426001 240.19658920768097 10.000000000000037
    vertex 584.4420111426001 308.6965892076809 9.023892744153264e-14
    vertex 584.4420111426001 280.196589207681 10.000000000000128
  endloop
endfacet
facet normal 1.0 0.0 0.0
  outer loop
    vertex 584.4420111426001 240.19658920768097 10.000000000000037
    vertex 584.4420111426001 280.196589207681 10.000000000000128
    vertex 584.4420111426001 240.19658920768097 30.000000000000092
  endloop
endfacet
facet normal 1.0 0.0 0.0
  outer loop
    vertex 584.4420111426001 240.19658920768097 30.000000000000092
    vertex 584.4420111426001 280.196589207681 10.000000000000128
    vertex 584.4420111426001 280.196589207681 30.000000000000092
  endloop
endfacet
facet normal 1.0 0.0 0.0
  outer loop
    vertex 584.4420111426001 280.196589207681 10.000000000000128
    vertex 584.4420111426001 308.6965892076809 9.023892744153264e-14
    vertex 584.4420111426001 308.6965892076809 10.000000000000037
  endloop
endfacet
facet normal 1.0 0.0 0.0
  outer loop
    vertex 584.4420111426001 240.19658920768097 30.000000000000092
    vertex 584.4420111426001 220.196589207681 50.00000000000006
    vertex 584.4420111426001 220.19658920768097 30.000000000000092
  endloop
endfacet
facet normal 1.0 0.0 0.0
  outer loop
    vertex 584.4420111426001 220.196589207681 50.00000000000006
    vertex 584.4420111426001 240.19658920768097 30.000000000000092
    vertex 584.4420111426001 300.19658920768103 50.000000000000036
  endloop
endfacet
facet normal 1.0 0.0 0.0
  outer loop
    vertex 584.4420111426001 300.19658920768103 50.000000000000036
    vertex 584.4420111426001 240.19658920768097 30.000000000000092
    vertex 584.4420111426001 280.196589207681 30.000000000000092
  endloop
endfacet
facet normal 1.0 0.0 0.0
  outer loop
    vertex 584.4420111426001 300.19658920768103 50.000000000000036
    vertex 584.4420111426001 280.196589207681 30.000000000000092
    vertex 584.4420111426001 300.19658920768103 30.000000000000025
  endloop
endfacet
facet normal 0.0 9.714451465470122e-17 -1.0
  outer loop
    vertex 584.4420111426001 300.19658920768103 30.000000000000025
    vertex 574.4420111426001 280.196589207681 30.000000000000092
    vertex 574.4420111426001 300.19658920768103 30.000000000000025
  endloop
endfacet
facet normal 0.0 9.714451465470122e-17 -1.0
  outer loop
    vertex 574.4420111426001 280.196589207681 30.000000000000092
    vertex 584.4420111426001 300.19658920768103 30.000000000000025
    vertex 584.4420111426001 280.196589207681 30.000000000000092
  endloop
endfacet
facet normal 0.0 1.0 0.0
  outer loop
    vertex 515.6114891898419 308.6965892076809 9.023892744153264e-14
    vertex 538.7336749433637 308.6965892076809 2.500000000000063
    vertex 584.4420111426001 308.6965892076809 9.023892744153264e-14
  endloop
endfacet
facet normal 0.0 1.0 0.0
  outer loop
    vertex 538.7336749433637 308.6965892076809 2.500000000000063
    vertex 515.6114891898419 308.6965892076809 9.023892744153264e-14
    vertex 538.0866273306075 308.6965892076809 2.5851854342773954
  endloop
endfacet
facet normal 0.0 1.0 0.0
  outer loop
    vertex 538.0866273306075 308.6965892076809 2.5851854342773954
    vertex 515.6114891898419 308.6965892076809 9.023892744153264e-14
    vertex 515.6114891898419 308.6965892076809 10.000000000000037
  endloop
endfacet
facet normal 0.0 1.0 0.0
  outer loop
    vertex 538.0866273306075 308.6965892076809 2.5851854342773954
    vertex 515.6114891898419 308.6965892076809 10.000000000000037
    vertex 537.4836749433637 308.6965892076809 2.8349364905389747
  endloop
endfacet
facet normal 0.0 1.0 0.0
  outer loop
    vertex 537.4836749433637 308.6965892076809 2.8349364905389747
    vertex 515.6114891898419 308.6965892076809 10.000000000000037
    vertex 536.9659079903973 308.6965892076809 3.2322330470336964
  endloop
endfacet
facet normal 0.0 1.0 0.0
  outer loop
    vertex 536.9659079903973 308.6965892076809 3.2322330470336964
    vertex 515.6114891898419 308.6965892076809 10.000000000000037
    vertex 536.5686114339027 308.6965892076809 3.750000000000038
  endloop
endfacet
facet normal 0.0 1.0 0.0
  outer loop
    vertex 536.5686114339027 308.6965892076809 3.750000000000038
    vertex 515.6114891898419 308.6965892076809 10.000000000000037
    vertex 536.318860377641 308.6965892076809 4.352952387243735
  endloop
endfacet
facet normal 0.0 1.0 0.0
  outer loop
    vertex 536.318860377641 308.6965892076809 4.352952387243735
    vertex 515.6114891898419 308.6965892076809 10.000000000000037
    vertex 536.2336749433637 308.6965892076809 5.000000000000047
  endloop
endfacet
facet normal 0.0 1.0 0.0
  outer loop
    vertex 536.2336749433637 308.6965892076809 5.000000000000047
    vertex 515.6114891898419 308.6965892076809 10.000000000000037
    vertex 536.318860377641 308.6965892076809 5.64704761275636
  endloop
endfacet
facet normal 0.0 1.0 0.0
  outer loop
    vertex 536.318860377641 308.6965892076809 5.64704761275636
    vertex 515.6114891898419 308.6965892076809 10.000000000000037
    vertex 536.5686114339027 308.6965892076809 6.250000000000056
  endloop
endfacet
facet normal 0.0 1.0 0.0
  outer loop
    vertex 536.5686114339027 308.6965892076809 6.250000000000056
    vertex 515.6114891898419 308.6965892076809 10.000000000000037
    vertex 536.9659079903973 308.6965892076809 6.76776695296642
  endloop
endfacet
facet normal 0.0 1.0 0.0
  outer loop
    vertex 536.9659079903973 308.6965892076809 6.76776695296642
    vertex 515.6114891898419 308.6965892076809 10.000000000000037
    vertex 537.4836749433637 308.6965892076809 7.165063509461153
  endloop
endfacet
facet normal 0.0 1.0 0.0
  outer loop
    vertex 537.4836749433637 308.6965892076809 7.165063509461153
    vertex 515.6114891898419 308.6965892076809 10.000000000000037
    vertex 538.0866273306075 308.6965892076809 7.414814565722733
  endloop
endfacet
facet normal 0.0 1.0 0.0
  outer loop
    vertex 538.0866273306075 308.6965892076809 7.414814565722733
    vertex 515.6114891898419 308.6965892076809 10.000000000000037
    vertex 538.7336749433637 308.6965892076809 7.500000000000065
  endloop
endfacet
facet normal 0.0 1.0 0.0
  outer loop
    vertex 584.4420111426001 308.6965892076809 9.023892744153264e-14
    vertex 539.38072255612 308.6965892076809 2.5851854342773954
    vertex 584.4420111426001 308.6965892076809 10.000000000000037
  endloop
endfacet
facet normal 0.0 1.0 0.0
  outer loop
    vertex 539.38072255612 308.6965892076809 2.5851854342773954
    vertex 584.4420111426001 308.6965892076809 9.023892744153264e-14
    vertex 538.7336749433637 308.6965892076809 2.500000000000063
  endloop
endfacet
facet normal 0.0 1.0 0.0
  outer loop
    vertex 584.4420111426001 308.6965892076809 10.000000000000037
    vertex 539.38072255612 308.6965892076809 2.5851854342773954
    vertex 539.9836749433637 308.6965892076809 2.8349364905389636
  endloop
endfacet
facet normal 0.0 1.0 0.0
  outer loop
    vertex 584.4420111426001 308.6965892076809 10.000000000000037
    vertex 539.9836749433637 308.6965892076809 2.8349364905389636
    vertex 540.5014418963301 308.6965892076809 3.2322330470336964
  endloop
endfacet
facet normal 0.0 1.0 0.0
  outer loop
    vertex 584.4420111426001 308.6965892076809 10.000000000000037
    vertex 540.5014418963301 308.6965892076809 3.2322330470336964
    vertex 540.8987384528249 308.6965892076809 3.750000000000038
  endloop
endfacet
facet normal 0.0 1.0 0.0
  outer loop
    vertex 584.4420111426001 308.6965892076809 10.000000000000037
    vertex 540.8987384528249 308.6965892076809 3.750000000000038
    vertex 541.1484895090864 308.6965892076809 4.352952387243735
  endloop
endfacet
facet normal 0.0 1.0 0.0
  outer loop
    vertex 584.4420111426001 308.6965892076809 10.000000000000037
    vertex 541.1484895090864 308.6965892076809 4.352952387243735
    vertex 541.2336749433638 308.6965892076809 5.000000000000047
  endloop
endfacet
facet normal 0.0 1.0 0.0
  outer loop
    vertex 584.4420111426001 308.6965892076809 10.000000000000037
    vertex 541.2336749433638 308.6965892076809 5.000000000000047
    vertex 541.1484895090864 308.6965892076809 5.64704761275636
  endloop
endfacet
facet normal 0.0 1.0 0.0
  outer loop
    vertex 584.4420111426001 308.6965892076809 10.000000000000037
    vertex 541.1484895090864 308.6965892076809 5.64704761275636
    vertex 540.8987384528249 308.6965892076809 6.250000000000056
  endloop
endfacet
facet normal 0.0 1.0 0.0
  outer loop
    vertex 584.4420111426001 308.6965892076809 10.000000000000037
    vertex 540.8987384528249 308.6965892076809 6.250000000000056
    vertex 540.5014418963301 308.6965892076809 6.76776695296642
  endloop
endfacet
facet normal 0.0 1.0 0.0
  outer loop
    vertex 584.4420111426001 308.6965892076809 10.000000000000037
    vertex 540.5014418963301 308.6965892076809 6.76776695296642
    vertex 539.9836749433638 308.6965892076809 7.165063509461153
  endloop
endfacet
facet normal 0.0 1.0 0.0
  outer loop
    vertex 584.4420111426001 308.6965892076809 10.000000000000037
    vertex 539.9836749433638 308.6965892076809 7.165063509461153
    vertex 539.38072255612 308.6965892076809 7.414814565722733
  endloop
endfacet
facet normal 0.0 1.0 0.0
  outer loop
    vertex 584.4420111426001 308.6965892076809 10.000000000000037
    vertex 539.38072255612 308.6965892076809 7.414814565722733
    vertex 538.7336749433637 308.6965892076809 7.500000000000065
  endloop
endfacet
facet normal 0.0 1.0 0.0
  outer loop
    vertex 584.4420111426001 308.6965892076809 10.000000000000037
    vertex 538.7336749433637 308.6965892076809 7.500000000000065
    vertex 515.6114891898419 308.6965892076809 10.000000000000037
  endloop
endfacet
facet normal 0.0 -1.0 -9.714451465470122e-17
  outer loop
    vertex 584.4420111426001 220.196589207681 50.00000000000006
    vertex 574.4420111426001 220.19658920768097 30.000000000000092
    vertex 584.4420111426001 220.19658920768097 30.000000000000092
  endloop
endfacet
facet normal 0.0 -1.0 -9.714451465470122e-17
  outer loop
    vertex 574.4420111426001 220.19658920768097 30.000000000000092
    vertex 584.4420111426001 220.196589207681 50.00000000000006
    vertex 574.4420111426001 220.196589207681 50.00000000000006
  endloop
endfacet
facet normal 0.0 -9.714451465470122e-17 1.0
  outer loop
    vertex 584.4420111426001 220.196589207681 50.00000000000006
    vertex 574.4420111426001 300.19658920768103 50.000000000000036
    vertex 574.4420111426001 220.196589207681 50.00000000000006
  endloop
endfacet
facet normal 0.0 -9.714451465470122e-17 1.0
  outer loop
    vertex 574.4420111426001 300.19658920768103 50.000000000000036
    vertex 584.4420111426001 220.196589207681 50.00000000000006
    vertex 584.4420111426001 300.19658920768103 50.000000000000036
  endloop
endfacet
facet normal 0.0 1.0 9.714451465470122e-17
  outer loop
    vertex 574.4420111426001 280.196589207681 30.000000000000092
    vertex 584.4420111426001 280.196589207681 10.000000000000128
    vertex 574.4420111426001 280.196589207681 10.000000000000128
  endloop
endfacet
facet normal 0.0 1.0 9.714451465470122e-17
  outer loop
    vertex 584.4420111426001 280.196589207681 10.000000000000128
    vertex 574.4420111426001 280.196589207681 30.000000000000092
    vertex 584.4420111426001 280.196589207681 30.000000000000092
  endloop
endfacet
facet normal 0.0 1.0 9.714451465470122e-17
  outer loop
    vertex 574.4420111426001 300.19658920768103 50.000000000000036
    vertex 584.4420111426001 300.19658920768103 30.000000000000025
    vertex 574.4420111426001 300.19658920768103 30.000000000000025
  endloop
endfacet
facet normal 0.0 1.0 9.714451465470122e-17
  outer loop
    vertex 584.4420111426001 300.19658920768103 30.000000000000025
    vertex 574.4420111426001 300.19658920768103 50.000000000000036
    vertex 584.4420111426001 300.19658920768103 50.000000000000036
  endloop
endfacet
facet normal 0.0 -1.0 -9.714451465470122e-17
  outer loop
    vertex 584.4420111426001 240.19658920768097 30.000000000000092
    vertex 574.4420111426001 240.19658920768097 10.000000000000037
    vertex 584.4420111426001 240.19658920768097 10.000000000000037
  endloop
endfacet
facet normal 0.0 -1.0 -9.714451465470122e-17
  outer loop
    vertex 574.4420111426001 240.19658920768097 10.000000000000037
    vertex 584.4420111426001 240.19658920768097 30.000000000000092
    vertex 574.4420111426001 240.19658920768097 30.000000000000092
  endloop
endfacet
facet normal 3.590865039154137e-30 1.0 -1.6011266386802482e-15
  outer loop
    vertex 538.0866273306075 318.6965892076809 2.585185434277384
    vertex 539.38072255612 318.6965892076809 2.585185434277384
    vertex 538.7336749433637 318.6965892076809 2.500000000000052
  endloop
endfacet
facet normal 3.590865039154137e-30 1.0 -1.6011266386802482e-15
  outer loop
    vertex 539.38072255612 318.6965892076809 2.585185434277384
    vertex 538.0866273306075 318.6965892076809 2.585185434277384
    vertex 537.4836749433637 318.6965892076809 2.8349364905389636
  endloop
endfacet
facet normal 3.590865039154137e-30 1.0 -1.6011266386802482e-15
  outer loop
    vertex 539.38072255612 318.6965892076809 2.585185434277384
    vertex 537.4836749433637 318.6965892076809 2.8349364905389636
    vertex 539.9836749433637 318.6965892076809 2.834936490538952
  endloop
endfacet
facet normal 3.590865039154137e-30 1.0 -1.6011266386802482e-15
  outer loop
    vertex 539.9836749433637 318.6965892076809 2.834936490538952
    vertex 537.4836749433637 318.6965892076809 2.8349364905389636
    vertex 540.5014418963301 318.6965892076809 3.2322330470336853
  endloop
endfacet
facet normal 3.590865039154137e-30 1.0 -1.6011266386802482e-15
  outer loop
    vertex 540.5014418963301 318.6965892076809 3.2322330470336853
    vertex 537.4836749433637 318.6965892076809 2.8349364905389636
    vertex 536.9659079903973 318.6965892076809 3.2322330470336853
  endloop
endfacet
facet normal 3.590865039154137e-30 1.0 -1.6011266386802482e-15
  outer loop
    vertex 540.5014418963301 318.6965892076809 3.2322330470336853
    vertex 536.9659079903973 318.6965892076809 3.2322330470336853
    vertex 536.5686114339027 318.6965892076809 3.7500000000000155
  endloop
endfacet
facet normal 3.590865039154137e-30 1.0 -1.6011266386802482e-15
  outer loop
    vertex 540.5014418963301 318.6965892076809 3.2322330470336853
    vertex 536.5686114339027 318.6965892076809 3.7500000000000155
    vertex 540.8987384528249 318.6965892076809 3.7500000000000155
  endloop
endfacet
facet normal 3.590865039154137e-30 1.0 -1.6011266386802482e-15
  outer loop
    vertex 540.8987384528249 318.6965892076809 3.7500000000000155
    vertex 536.5686114339027 318.6965892076809 3.7500000000000155
    vertex 536.318860377641 318.6965892076809 4.352952387243712
  endloop
endfacet
facet normal 3.590865039154137e-30 1.0 -1.6011266386802482e-15
  outer loop
    vertex 540.8987384528249 318.6965892076809 3.7500000000000155
    vertex 536.318860377641 318.6965892076809 4.352952387243712
    vertex 541.1484895090864 318.6965892076809 4.352952387243712
  endloop
endfacet
facet normal 3.590865039154137e-30 1.0 -1.6011266386802482e-15
  outer loop
    vertex 541.1484895090864 318.6965892076809 4.352952387243712
    vertex 536.318860377641 318.6965892076809 4.352952387243712
    vertex 536.2336749433637 318.6965892076809 5.000000000000025
  endloop
endfacet
facet normal 3.590865039154137e-30 1.0 -1.6011266386802482e-15
  outer loop
    vertex 541.1484895090864 318.6965892076809 4.352952387243712
    vertex 536.2336749433637 318.6965892076809 5.000000000000025
    vertex 541.2336749433638 318.6965892076809 5.000000000000025
  endloop
endfacet
facet normal 3.590865039154137e-30 1.0 -1.6011266386802482e-15
  outer loop
    vertex 541.2336749433638 318.6965892076809 5.000000000000025
    vertex 536.2336749433637 318.6965892076809 5.000000000000025
    vertex 536.318860377641 318.6965892076809 5.647047612756337
  endloop
endfacet
facet normal 3.590865039154137e-30 1.0 -1.6011266386802482e-15
  outer loop
    vertex 541.2336749433638 318.6965892076809 5.000000000000025
    vertex 536.318860377641 318.6965892076809 5.647047612756337
    vertex 541.1484895090864 318.6965892076809 5.647047612756337
  endloop
endfacet
facet normal 3.590865039154137e-30 1.0 -1.6011266386802482e-15
  outer loop
    vertex 541.1484895090864 318.6965892076809 5.647047612756337
    vertex 536.318860377641 318.6965892076809 5.647047612756337
    vertex 536.5686114339027 318.6965892076809 6.250000000000034
  endloop
endfacet
facet normal 3.590865039154137e-30 1.0 -1.6011266386802482e-15
  outer loop
    vertex 541.1484895090864 318.6965892076809 5.647047612756337
    vertex 536.5686114339027 318.6965892076809 6.250000000000034
    vertex 540.8987384528249 318.6965892076809 6.250000000000034
  endloop
endfacet
facet normal 3.590865039154137e-30 1.0 -1.6011266386802482e-15
  outer loop
    vertex 540.8987384528249 318.6965892076809 6.250000000000034
    vertex 536.5686114339027 318.6965892076809 6.250000000000034
    vertex 536.9659079903973 318.6965892076809 6.767766952966398
  endloop
endfacet
facet normal 3.590865039154137e-30 1.0 -1.6011266386802482e-15
  outer loop
    vertex 540.8987384528249 318.6965892076809 6.250000000000034
    vertex 536.9659079903973 318.6965892076809 6.767766952966398
    vertex 540.5014418963301 318.6965892076809 6.767766952966398
  endloop
endfacet
facet normal 3.590865039154137e-30 1.0 -1.6011266386802482e-15
  outer loop
    vertex 540.5014418963301 318.6965892076809 6.767766952966398
    vertex 536.9659079903973 318.6965892076809 6.767766952966398
    vertex 537.4836749433637 318.6965892076809 7.165063509461131
  endloop
endfacet
facet normal 3.590865039154137e-30 1.0 -1.6011266386802482e-15
  outer loop
    vertex 540.5014418963301 318.6965892076809 6.767766952966398
    vertex 537.4836749433637 318.6965892076809 7.165063509461131
    vertex 539.9836749433638 318.6965892076809 7.165063509461131
  endloop
endfacet
facet normal 3.590865039154137e-30 1.0 -1.6011266386802482e-15
  outer loop
    vertex 539.9836749433638 318.6965892076809 7.165063509461131
    vertex 537.4836749433637 318.6965892076809 7.165063509461131
    vertex 538.0866273306075 318.6965892076809 7.41481456572271
  endloop
endfacet
facet normal 3.590865039154137e-30 1.0 -1.6011266386802482e-15
  outer loop
    vertex 539.9836749433638 318.6965892076809 7.165063509461131
    vertex 538.0866273306075 318.6965892076809 7.41481456572271
    vertex 539.38072255612 318.6965892076809 7.41481456572271
  endloop
endfacet
facet normal 3.590865039154137e-30 1.0 -1.6011266386802482e-15
  outer loop
    vertex 539.38072255612 318.6965892076809 7.41481456572271
    vertex 538.0866273306075 318.6965892076809 7.41481456572271
    vertex 538.7336749433637 318.6965892076809 7.500000000000043
  endloop
endfacet
facet normal -0.9914448613738102 -2.0898896340902326e-16 -0.13052619222005388
  outer loop
    vertex 536.2336749433637 318.6965892076809 5.000000000000025
    vertex 536.318860377641 308.6965892076809 4.352952387243735
    vertex 536.2336749433637 308.6965892076809 5.000000000000047
  endloop
endfacet
facet normal -0.9914448613738102 -2.0898896340902326e-16 -0.13052619222005388
  outer loop
    vertex 536.318860377641 308.6965892076809 4.352952387243735
    vertex 536.2336749433637 318.6965892076809 5.000000000000025
    vertex 536.318860377641 318.6965892076809 4.352952387243712
  endloop
endfacet
facet normal -0.9914448613738102 2.0898896340903041e-16 0.13052619222005388
  outer loop
    vertex 536.318860377641 318.6965892076809 5.647047612756337
    vertex 536.2336749433637 308.6965892076809 5.000000000000047
    vertex 536.318860377641 308.6965892076809 5.64704761275636
  endloop
endfacet
facet normal -0.9914448613738102 2.0898896340903041e-16 0.13052619222005388
  outer loop
    vertex 536.2336749433637 308.6965892076809 5.000000000000047
    vertex 536.318860377641 318.6965892076809 5.647047612756337
    vertex 536.2336749433637 318.6965892076809 5.000000000000025
  endloop
endfacet
facet normal -0.9238795325112836 6.127246377413523e-16 0.3826834323650976
  outer loop
    vertex 536.5686114339027 318.6965892076809 6.250000000000034
    vertex 536.318860377641 308.6965892076809 5.64704761275636
    vertex 536.5686114339027 308.6965892076809 6.250000000000056
  endloop
endfacet
facet normal -0.9238795325112836 6.127246377413523e-16 0.3826834323650976
  outer loop
    vertex 536.318860377641 308.6965892076809 5.64704761275636
    vertex 536.5686114339027 318.6965892076809 6.250000000000034
    vertex 536.318860377641 318.6965892076809 5.647047612756337
  endloop
endfacet
facet normal -0.7933533402912453 9.74704140586899e-16 0.6087614290087074
  outer loop
    vertex 536.9659079903973 318.6965892076809 6.767766952966398
    vertex 536.5686114339027 308.6965892076809 6.250000000000056
    vertex 536.9659079903973 308.6965892076809 6.76776695296642
  endloop
endfacet
facet normal -0.7933533402912453 9.74704140586899e-16 0.6087614290087074
  outer loop
    vertex 536.5686114339027 308.6965892076809 6.250000000000056
    vertex 536.9659079903973 318.6965892076809 6.767766952966398
    vertex 536.5686114339027 318.6965892076809 6.250000000000034
  endloop
endfacet
facet normal -0.6087614290086958 1.270259167026285e-15 0.7933533402912541
  outer loop
    vertex 537.4836749433637 308.6965892076809 7.165063509461153
    vertex 536.9659079903973 318.6965892076809 6.767766952966398
    vertex 536.9659079903973 308.6965892076809 6.76776695296642
  endloop
endfacet
facet normal -0.6087614290086958 1.270259167026285e-15 0.7933533402912541
  outer loop
    vertex 536.9659079903973 318.6965892076809 6.767766952966398
    vertex 537.4836749433637 308.6965892076809 7.165063509461153
    vertex 537.4836749433637 318.6965892076809 7.165063509461131
  endloop
endfacet
facet normal -0.3826834323650976 1.4792481304352718e-15 0.9238795325112836
  outer loop
    vertex 538.0866273306075 308.6965892076809 7.414814565722733
    vertex 537.4836749433637 318.6965892076809 7.165063509461131
    vertex 537.4836749433637 308.6965892076809 7.165063509461153
  endloop
endfacet
facet normal -0.3826834323650976 1.4792481304352718e-15 0.9238795325112836
  outer loop
    vertex 537.4836749433637 318.6965892076809 7.165063509461131
    vertex 538.0866273306075 308.6965892076809 7.414814565722733
    vertex 538.0866273306075 318.6965892076809 7.41481456572271
  endloop
endfacet
facet normal -0.13052619222005837 1.5874287783282527e-15 0.9914448613738096
  outer loop
    vertex 538.7336749433637 308.6965892076809 7.500000000000065
    vertex 538.0866273306075 318.6965892076809 7.41481456572271
    vertex 538.0866273306075 308.6965892076809 7.414814565722733
  endloop
endfacet
facet normal -0.13052619222005837 1.5874287783282527e-15 0.9914448613738096
  outer loop
    vertex 538.0866273306075 318.6965892076809 7.41481456572271
    vertex 538.7336749433637 308.6965892076809 7.500000000000065
    vertex 538.7336749433637 318.6965892076809 7.500000000000043
  endloop
endfacet
facet normal 0.13052619222005837 1.5874287783282518e-15 0.9914448613738096
  outer loop
    vertex 539.38072255612 308.6965892076809 7.414814565722733
    vertex 538.7336749433637 318.6965892076809 7.500000000000043
    vertex 538.7336749433637 308.6965892076809 7.500000000000065
  endloop
endfacet
facet normal 0.13052619222005837 1.5874287783282518e-15 0.9914448613738096
  outer loop
    vertex 538.7336749433637 318.6965892076809 7.500000000000043
    vertex 539.38072255612 308.6965892076809 7.414814565722733
    vertex 539.38072255612 318.6965892076809 7.41481456572271
  endloop
endfacet
facet normal 0.3826834323650732 1.4792481304352852e-15 0.9238795325112937
  outer loop
    vertex 539.9836749433638 308.6965892076809 7.165063509461153
    vertex 539.38072255612 318.6965892076809 7.41481456572271
    vertex 539.38072255612 308.6965892076809 7.414814565722733
  endloop
endfacet
facet normal 0.3826834323650732 1.4792481304352852e-15 0.9238795325112937
  outer loop
    vertex 539.38072255612 318.6965892076809 7.41481456572271
    vertex 539.9836749433638 308.6965892076809 7.165063509461153
    vertex 539.9836749433638 318.6965892076809 7.165063509461131
  endloop
endfacet
facet normal 0.6087614290087292 1.27025916702624e-15 0.7933533402912287
  outer loop
    vertex 540.5014418963301 308.6965892076809 6.76776695296642
    vertex 539.9836749433638 318.6965892076809 7.165063509461131
    vertex 539.9836749433638 308.6965892076809 7.165063509461153
  endloop
endfacet
facet normal 0.6087614290087292 1.27025916702624e-15 0.7933533402912287
  outer loop
    vertex 539.9836749433638 318.6965892076809 7.165063509461131
    vertex 540.5014418963301 308.6965892076809 6.76776695296642
    vertex 540.5014418963301 318.6965892076809 6.767766952966398
  endloop
endfacet
facet normal 0.7933533402912453 9.747041405868933e-16 0.6087614290087074
  outer loop
    vertex 540.8987384528249 318.6965892076809 6.250000000000034
    vertex 540.5014418963301 308.6965892076809 6.76776695296642
    vertex 540.8987384528249 308.6965892076809 6.250000000000056
  endloop
endfacet
facet normal 0.7933533402912453 9.747041405868933e-16 0.6087614290087074
  outer loop
    vertex 540.5014418963301 308.6965892076809 6.76776695296642
    vertex 540.8987384528249 318.6965892076809 6.250000000000034
    vertex 540.5014418963301 318.6965892076809 6.767766952966398
  endloop
endfacet
facet normal 0.9238795325112836 6.127246377413456e-16 0.3826834323650976
  outer loop
    vertex 541.1484895090864 318.6965892076809 5.647047612756337
    vertex 540.8987384528249 308.6965892076809 6.250000000000056
    vertex 541.1484895090864 308.6965892076809 5.64704761275636
  endloop
endfacet
facet normal 0.9238795325112836 6.127246377413456e-16 0.3826834323650976
  outer loop
    vertex 540.8987384528249 308.6965892076809 6.250000000000056
    vertex 541.1484895090864 318.6965892076809 5.647047612756337
    vertex 540.8987384528249 318.6965892076809 6.250000000000034
  endloop
endfacet
facet normal 0.9914448613738102 2.0898896340902326e-16 0.13052619222005388
  outer loop
    vertex 541.2336749433638 318.6965892076809 5.000000000000025
    vertex 541.1484895090864 308.6965892076809 5.64704761275636
    vertex 541.2336749433638 308.6965892076809 5.000000000000047
  endloop
endfacet
facet normal 0.9914448613738102 2.0898896340902326e-16 0.13052619222005388
  outer loop
    vertex 541.1484895090864 308.6965892076809 5.64704761275636
    vertex 541.2336749433638 318.6965892076809 5.000000000000025
    vertex 541.1484895090864 318.6965892076809 5.647047612756337
  endloop
endfacet
facet normal 0.9914448613738102 -2.0898896340903041e-16 -0.13052619222005388
  outer loop
    vertex 541.1484895090864 318.6965892076809 4.352952387243712
    vertex 541.2336749433638 308.6965892076809 5.000000000000047
    vertex 541.1484895090864 308.6965892076809 4.352952387243735
  endloop
endfacet
facet normal 0.9914448613738102 -2.0898896340903041e-16 -0.13052619222005388
  outer loop
    vertex 541.2336749433638 308.6965892076809 5.000000000000047
    vertex 541.1484895090864 318.6965892076809 4.352952387243712
    vertex 541.2336749433638 318.6965892076809 5.000000000000025
  endloop
endfacet
facet normal 0.9238795325112836 -6.127246377413523e-16 -0.3826834323650976
  outer loop
    vertex 540.8987384528249 318.6965892076809 3.7500000000000155
    vertex 541.1484895090864 308.6965892076809 4.352952387243735
    vertex 540.8987384528249 308.6965892076809 3.750000000000038
  endloop
endfacet
facet normal 0.9238795325112836 -6.127246377413523e-16 -0.3826834323650976
  outer loop
    vertex 541.1484895090864 308.6965892076809 4.352952387243735
    vertex 540.8987384528249 318.6965892076809 3.7500000000000155
    vertex 541.1484895090864 318.6965892076809 4.352952387243712
  endloop
endfacet
facet normal 0.7933533402912388 -9.747041405869124e-16 -0.6087614290087158
  outer loop
    vertex 540.5014418963301 318.6965892076809 3.2322330470336853
    vertex 540.8987384528249 308.6965892076809 3.750000000000038
    vertex 540.5014418963301 308.6965892076809 3.2322330470336964
  endloop
endfacet
facet normal 0.7933533402912388 -9.747041405869124e-16 -0.6087614290087158
  outer loop
    vertex 540.8987384528249 308.6965892076809 3.750000000000038
    vertex 540.5014418963301 318.6965892076809 3.2322330470336853
    vertex 540.8987384528249 318.6965892076809 3.7500000000000155
  endloop
endfacet
facet normal 0.6087614290086958 -1.270259167026285e-15 -0.7933533402912541
  outer loop
    vertex 540.5014418963301 318.6965892076809 3.2322330470336853
    vertex 539.9836749433637 308.6965892076809 2.8349364905389636
    vertex 539.9836749433637 318.6965892076809 2.834936490538952
  endloop
endfacet
facet normal 0.6087614290086958 -1.270259167026285e-15 -0.7933533402912541
  outer loop
    vertex 539.9836749433637 308.6965892076809 2.8349364905389636
    vertex 540.5014418963301 318.6965892076809 3.2322330470336853
    vertex 540.5014418963301 308.6965892076809 3.2322330470336964
  endloop
endfacet
facet normal 0.38268343236508284 -1.4792481304352817e-15 -0.9238795325112896
  outer loop
    vertex 539.9836749433637 318.6965892076809 2.834936490538952
    vertex 539.38072255612 308.6965892076809 2.5851854342773954
    vertex 539.38072255612 318.6965892076809 2.585185434277384
  endloop
endfacet
facet normal 0.38268343236508284 -1.4792481304352817e-15 -0.9238795325112896
  outer loop
    vertex 539.38072255612 308.6965892076809 2.5851854342773954
    vertex 539.9836749433637 318.6965892076809 2.834936490538952
    vertex 539.9836749433637 308.6965892076809 2.8349364905389636
  endloop
endfacet
facet normal 0.13052619222005837 -1.5874287783282527e-15 -0.9914448613738096
  outer loop
    vertex 539.38072255612 318.6965892076809 2.585185434277384
    vertex 538.7336749433637 308.6965892076809 2.500000000000063
    vertex 538.7336749433637 318.6965892076809 2.500000000000052
  endloop
endfacet
facet normal 0.13052619222005837 -1.5874287783282527e-15 -0.9914448613738096
  outer loop
    vertex 538.7336749433637 308.6965892076809 2.500000000000063
    vertex 539.38072255612 318.6965892076809 2.585185434277384
    vertex 539.38072255612 308.6965892076809 2.5851854342773954
  endloop
endfacet
facet normal -0.13052619222005837 -1.5874287783282518e-15 -0.9914448613738096
  outer loop
    vertex 538.7336749433637 318.6965892076809 2.500000000000052
    vertex 538.0866273306075 308.6965892076809 2.5851854342773954
    vertex 538.0866273306075 318.6965892076809 2.585185434277384
  endloop
endfacet
facet normal -0.13052619222005837 -1.5874287783282518e-15 -0.9914448613738096
  outer loop
    vertex 538.0866273306075 308.6965892076809 2.5851854342773954
    vertex 538.7336749433637 318.6965892076809 2.500000000000052
    vertex 538.7336749433637 308.6965892076809 2.500000000000063
  endloop
endfacet
facet normal -0.3826834323650732 -1.4792481304352852e-15 -0.9238795325112937
  outer loop
    vertex 538.0866273306075 318.6965892076809 2.585185434277384
    vertex 537.4836749433637 308.6965892076809 2.8349364905389747
    vertex 537.4836749433637 318.6965892076809 2.8349364905389636
  endloop
endfacet
facet normal -0.3826834323650732 -1.4792481304352852e-15 -0.9238795325112937
  outer loop
    vertex 537.4836749433637 308.6965892076809 2.8349364905389747
    vertex 538.0866273306075 318.6965892076809 2.585185434277384
    vertex 538.0866273306075 308.6965892076809 2.5851854342773954
  endloop
endfacet
facet normal -0.6087614290087184 -1.2702591670262533e-15 -0.793353340291237
  outer loop
    vertex 537.4836749433637 318.6965892076809 2.8349364905389636
    vertex 536.9659079903973 308.6965892076809 3.2322330470336964
    vertex 536.9659079903973 318.6965892076809 3.2322330470336853
  endloop
endfacet
facet normal -0.6087614290087184 -1.2702591670262533e-15 -0.793353340291237
  outer loop
    vertex 536.9659079903973 308.6965892076809 3.2322330470336964
    vertex 537.4836749433637 318.6965892076809 2.8349364905389636
    vertex 537.4836749433637 308.6965892076809 2.8349364905389747
  endloop
endfacet
facet normal -0.7933533402912388 -9.747041405869067e-16 -0.6087614290087158
  outer loop
    vertex 536.5686114339027 318.6965892076809 3.7500000000000155
    vertex 536.9659079903973 308.6965892076809 3.2322330470336964
    vertex 536.5686114339027 308.6965892076809 3.750000000000038
  endloop
endfacet
facet normal -0.7933533402912388 -9.747041405869067e-16 -0.6087614290087158
  outer loop
    vertex 536.9659079903973 308.6965892076809 3.2322330470336964
    vertex 536.5686114339027 318.6965892076809 3.7500000000000155
    vertex 536.9659079903973 318.6965892076809 3.2322330470336853
  endloop
endfacet
facet normal -0.9238795325112836 -6.127246377413456e-16 -0.3826834323650976
  outer loop
    vertex 536.318860377641 318.6965892076809 4.352952387243712
    vertex 536.5686114339027 308.6965892076809 3.750000000000038
    vertex 536.318860377641 308.6965892076809 4.352952387243735
  endloop
endfacet
facet normal -0.9238795325112836 -6.127246377413456e-16 -0.3826834323650976
  outer loop
    vertex 536.5686114339027 308.6965892076809 3.750000000000038
    vertex 536.318860377641 318.6965892076809 4.352952387243712
    vertex 536.5686114339027 318.6965892076809 3.7500000000000155
  endloop
endfacet
facet normal -3.0309895628261223e-16 -1.2910010965611285e-16 1.0
  outer loop
    vertex 584.4420111426001 211.69658920768097 10.00000000000006
    vertex 515.6114891898419 308.6965892076809 10.000000000000037
    vertex 515.6114891898419 211.69658920768097 10.00000000000006
  endloop
endfacet
facet normal -3.0309895628261223e-16 -1.2910010965611285e-16 1.0
  outer loop
    vertex 515.6114891898419 308.6965892076809 10.000000000000037
    vertex 584.4420111426001 211.69658920768097 10.00000000000006
    vertex 574.4420111426001 240.19658920768097 10.000000000000037
  endloop
endfacet
facet normal -3.0309895628261223e-16 -1.2910010965611285e-16 1.0
  outer loop
    vertex 574.4420111426001 240.19658920768097 10.000000000000037
    vertex 584.4420111426001 211.69658920768097 10.00000000000006
    vertex 584.4420111426001 240.19658920768097 10.000000000000037
  endloop
endfacet
facet normal -3.0309895628261223e-16 -1.2910010965611285e-16 1.0
  outer loop
    vertex 515.6114891898419 308.6965892076809 10.000000000000037
    vertex 574.4420111426001 280.196589207681 10.000000000000128
    vertex 584.4420111426001 308.6965892076809 10.000000000000037
  endloop
endfacet
facet normal -3.0309895628261223e-16 -1.2910010965611285e-16 1.0
  outer loop
    vertex 574.4420111426001 280.196589207681 10.000000000000128
    vertex 515.6114891898419 308.6965892076809 10.000000000000037
    vertex 574.4420111426001 240.19658920768097 10.000000000000037
  endloop
endfacet
facet normal -3.0309895628261223e-16 -1.2910010965611285e-16 1.0
  outer loop
    vertex 584.4420111426001 308.6965892076809 10.000000000000037
    vertex 574.4420111426001 280.196589207681 10.000000000000128
    vertex 584.4420111426001 280.196589207681 10.000000000000128
  endloop
endfacet
facet normal -3.2775767523406317e-16 6.977236657850469e-16 -1.0
  outer loop
    vertex 515.6114891898419 308.6965892076809 9.023892744153264e-14
    vertex 584.4420111426001 211.69658920768092 -8.01482679704548e-29
    vertex 515.6114891898419 211.69658920768092 4.511946372076628e-14
  endloop
endfacet
facet normal -3.2775767523406317e-16 6.977236657850469e-16 -1.0
  outer loop
    vertex 584.4420111426001 211.69658920768092 -8.01482679704548e-29
    vertex 515.6114891898419 308.6965892076809 9.023892744153264e-14
    vertex 584.4420111426001 308.6965892076809 9.023892744153264e-14
  endloop
endfacet
facet normal 1.5007285586374722e-30 -1.0 4.511946372076619e-15
  outer loop
    vertex 584.4420111426001 211.69658920768097 10.00000000000006
    vertex 515.6114891898419 211.69658920768092 4.511946372076628e-14
    vertex 584.4420111426001 211.69658920768092 -8.01482679704548e-29
  endloop
endfacet
facet normal 1.5007285586374722e-30 -1.0 4.511946372076619e-15
  outer loop
    vertex 515.6114891898419 211.69658920768092 4.511946372076628e-14
    vertex 584.4420111426001 211.69658920768097 10.00000000000006
    vertex 515.6114891898419 211.69658920768097 10.00000000000006
  endloop
endfacet
facet normal -1.0 5.231956340178109e-16 -1.9031610460480973e-15
  outer loop
    vertex 515.6114891898419 211.69658920768097 10.00000000000006
    vertex 515.6114891898419 233.53177464195826 5.647047612756364
    vertex 515.6114891898419 233.44658920768094 5.000000000000055
  endloop
endfacet
facet normal -1.0 5.231956340178109e-16 -1.9031610460480973e-15
  outer loop
    vertex 515.6114891898419 233.53177464195826 5.647047612756364
    vertex 515.6114891898419 211.69658920768097 10.00000000000006
    vertex 515.6114891898419 233.78152569821984 6.250000000000066
  endloop
endfacet
facet normal -1.0 5.231956340178109e-16 -1.9031610460480973e-15
  outer loop
    vertex 515.6114891898419 233.78152569821984 6.250000000000066
    vertex 515.6114891898419 211.69658920768097 10.00000000000006
    vertex 515.6114891898419 234.17882225471456 6.767766952966437
  endloop
endfacet
facet normal -1.0 5.231956340178109e-16 -1.9031610460480973e-15
  outer loop
    vertex 515.6114891898419 234.17882225471456 6.767766952966437
    vertex 515.6114891898419 211.69658920768097 10.00000000000006
    vertex 515.6114891898419 234.69658920768097 7.165063509461167
  endloop
endfacet
facet normal -1.0 5.231956340178109e-16 -1.9031610460480973e-15
  outer loop
    vertex 515.6114891898419 234.69658920768097 7.165063509461167
    vertex 515.6114891898419 211.69658920768097 10.00000000000006
    vertex 515.6114891898419 235.29954159492465 7.414814565722744
  endloop
endfacet
facet normal -1.0 5.231956340178109e-16 -1.9031610460480973e-15
  outer loop
    vertex 515.6114891898419 235.29954159492465 7.414814565722744
    vertex 515.6114891898419 211.69658920768097 10.00000000000006
    vertex 515.6114891898419 235.94658920768094 7.500000000000074
  endloop
endfacet
facet normal -1.0 5.231956340178109e-16 -1.9031610460480973e-15
  outer loop
    vertex 515.6114891898419 235.94658920768094 7.500000000000074
    vertex 515.6114891898419 211.69658920768097 10.00000000000006
    vertex 515.6114891898419 308.6965892076809 10.000000000000037
  endloop
endfacet
facet normal -1.0 5.231956340178109e-16 -1.9031610460480973e-15
  outer loop
    vertex 515.6114891898419 235.94658920768094 7.500000000000074
    vertex 515.6114891898419 308.6965892076809 10.000000000000037
    vertex 515.6114891898419 236.59363682043724 7.414814565722744
  endloop
endfacet
facet normal -1.0 5.231956340178109e-16 -1.9031610460480973e-15
  outer loop
    vertex 515.6114891898419 236.59363682043724 7.414814565722744
    vertex 515.6114891898419 308.6965892076809 10.000000000000037
    vertex 515.6114891898419 237.19658920768097 7.165063509461167
  endloop
endfacet
facet normal -1.0 5.231956340178109e-16 -1.9031610460480973e-15
  outer loop
    vertex 515.6114891898419 237.19658920768097 7.165063509461167
    vertex 515.6114891898419 308.6965892076809 10.000000000000037
    vertex 515.6114891898419 237.71435616064736 6.767766952966437
  endloop
endfacet
facet normal -1.0 5.231956340178109e-16 -1.9031610460480973e-15
  outer loop
    vertex 515.6114891898419 237.71435616064736 6.767766952966437
    vertex 515.6114891898419 308.6965892076809 10.000000000000037
    vertex 515.6114891898419 238.11165271714205 6.250000000000065
  endloop
endfacet
facet normal -1.0 5.231956340178109e-16 -1.9031610460480973e-15
  outer loop
    vertex 515.6114891898419 238.11165271714205 6.250000000000065
    vertex 515.6114891898419 308.6965892076809 10.000000000000037
    vertex 515.6114891898419 238.36140377340362 5.647047612756362
  endloop
endfacet
facet normal -1.0 5.231956340178109e-16 -1.9031610460480973e-15
  outer loop
    vertex 515.6114891898419 238.36140377340362 5.647047612756362
    vertex 515.6114891898419 308.6965892076809 10.000000000000037
    vertex 515.6114891898419 238.44658920768097 5.000000000000057
  endloop
endfacet
facet normal -1.0 5.231956340178109e-16 -1.9031610460480973e-15
  outer loop
    vertex 515.6114891898419 238.44658920768097 5.000000000000057
    vertex 515.6114891898419 308.6965892076809 10.000000000000037
    vertex 515.6114891898419 284.4465892076809 7.500000000000079
  endloop
endfacet
facet normal -1.0 5.231956340178109e-16 -1.9031610460480973e-15
  outer loop
    vertex 515.6114891898419 238.44658920768097 5.000000000000057
    vertex 515.6114891898419 284.4465892076809 7.500000000000079
    vertex 515.6114891898419 283.7995415949246 7.41481456572275
  endloop
endfacet
facet normal -1.0 5.231956340178109e-16 -1.9031610460480973e-15
  outer loop
    vertex 515.6114891898419 238.44658920768097 5.000000000000057
    vertex 515.6114891898419 283.7995415949246 7.41481456572275
    vertex 515.6114891898419 283.1965892076809 7.165063509461174
  endloop
endfacet
facet normal -1.0 5.231956340178109e-16 -1.9031610460480973e-15
  outer loop
    vertex 515.6114891898419 238.44658920768097 5.000000000000057
    vertex 515.6114891898419 283.1965892076809 7.165063509461174
    vertex 515.6114891898419 282.67882225471453 6.767766952966443
  endloop
endfacet
facet normal -1.0 5.231956340178109e-16 -1.9031610460480973e-15
  outer loop
    vertex 515.6114891898419 238.44658920768097 5.000000000000057
    vertex 515.6114891898419 282.67882225471453 6.767766952966443
    vertex 515.6114891898419 282.2815256982198 6.250000000000071
  endloop
endfacet
facet normal -1.0 5.231956340178109e-16 -1.9031610460480973e-15
  outer loop
    vertex 515.6114891898419 238.44658920768097 5.000000000000057
    vertex 515.6114891898419 282.2815256982198 6.250000000000071
    vertex 515.6114891898419 282.03177464195824 5.647047612756369
  endloop
endfacet
facet normal -1.0 5.231956340178109e-16 -1.9031610460480973e-15
  outer loop
    vertex 515.6114891898419 238.44658920768097 5.000000000000057
    vertex 515.6114891898419 282.03177464195824 5.647047612756369
    vertex 515.6114891898419 281.9465892076809 5.00000000000006
  endloop
endfacet
facet normal -1.0 5.231956340178109e-16 -1.9031610460480973e-15
  outer loop
    vertex 515.6114891898419 284.4465892076809 7.500000000000079
    vertex 515.6114891898419 308.6965892076809 10.000000000000037
    vertex 515.6114891898419 285.0936368204372 7.41481456572275
  endloop
endfacet
facet normal -1.0 5.231956340178109e-16 -1.9031610460480973e-15
  outer loop
    vertex 515.6114891898419 285.0936368204372 7.41481456572275
    vertex 515.6114891898419 308.6965892076809 10.000000000000037
    vertex 515.6114891898419 285.696589207681 7.165063509461174
  endloop
endfacet
facet normal -1.0 5.231956340178109e-16 -1.9031610460480973e-15
  outer loop
    vertex 515.6114891898419 285.696589207681 7.165063509461174
    vertex 515.6114891898419 308.6965892076809 10.000000000000037
    vertex 515.6114891898419 286.2143561606473 6.767766952966443
  endloop
endfacet
facet normal -1.0 5.231956340178109e-16 -1.9031610460480973e-15
  outer loop
    vertex 515.6114891898419 286.2143561606473 6.767766952966443
    vertex 515.6114891898419 308.6965892076809 10.000000000000037
    vertex 515.6114891898419 286.611652717142 6.25000000000007
  endloop
endfacet
facet normal -1.0 5.231956340178109e-16 -1.9031610460480973e-15
  outer loop
    vertex 515.6114891898419 286.611652717142 6.25000000000007
    vertex 515.6114891898419 308.6965892076809 10.000000000000037
    vertex 515.6114891898419 286.8614037734036 5.647047612756367
  endloop
endfacet
facet normal -1.0 5.231956340178109e-16 -1.9031610460480973e-15
  outer loop
    vertex 515.6114891898419 286.8614037734036 5.647047612756367
    vertex 515.6114891898419 308.6965892076809 10.000000000000037
    vertex 515.6114891898419 286.946589207681 5.000000000000062
  endloop
endfacet
facet normal -1.0 5.231956340178109e-16 -1.9031610460480973e-15
  outer loop
    vertex 515.6114891898419 211.69658920768092 4.511946372076628e-14
    vertex 515.6114891898419 235.94658920768094 2.5000000000000377
    vertex 515.6114891898419 308.6965892076809 9.023892744153264e-14
  endloop
endfacet
facet normal -1.0 5.231956340178109e-16 -1.9031610460480973e-15
  outer loop
    vertex 515.6114891898419 235.94658920768094 2.5000000000000377
    vertex 515.6114891898419 211.69658920768092 4.511946372076628e-14
    vertex 515.6114891898419 235.29954159492465 2.5851854342773675
  endloop
endfacet
facet normal -1.0 5.231956340178109e-16 -1.9031610460480973e-15
  outer loop
    vertex 515.6114891898419 235.29954159492465 2.5851854342773675
    vertex 515.6114891898419 211.69658920768092 4.511946372076628e-14
    vertex 515.6114891898419 211.69658920768097 10.00000000000006
  endloop
endfacet
facet normal -1.0 5.231956340178109e-16 -1.9031610460480973e-15
  outer loop
    vertex 515.6114891898419 235.29954159492465 2.5851854342773675
    vertex 515.6114891898419 211.69658920768097 10.00000000000006
    vertex 515.6114891898419 234.69658920768097 2.834936490538943
  endloop
endfacet
facet normal -1.0 5.231956340178109e-16 -1.9031610460480973e-15
  outer loop
    vertex 515.6114891898419 234.69658920768097 2.834936490538943
    vertex 515.6114891898419 211.69658920768097 10.00000000000006
    vertex 515.6114891898419 234.17882225471456 3.232233047033674
  endloop
endfacet
facet normal -1.0 5.231956340178109e-16 -1.9031610460480973e-15
  outer loop
    vertex 515.6114891898419 234.17882225471456 3.232233047033674
    vertex 515.6114891898419 211.69658920768097 10.00000000000006
    vertex 515.6114891898419 233.78152569821984 3.7500000000000466
  endloop
endfacet
facet normal -1.0 5.231956340178109e-16 -1.9031610460480973e-15
  outer loop
    vertex 515.6114891898419 233.78152569821984 3.7500000000000466
    vertex 515.6114891898419 211.69658920768097 10.00000000000006
    vertex 515.6114891898419 233.53177464195826 4.352952387243749
  endloop
endfacet
facet normal -1.0 5.231956340178109e-16 -1.9031610460480973e-15
  outer loop
    vertex 515.6114891898419 233.53177464195826 4.352952387243749
    vertex 515.6114891898419 211.69658920768097 10.00000000000006
    vertex 515.6114891898419 233.44658920768094 5.000000000000055
  endloop
endfacet
facet normal -1.0 5.231956340178109e-16 -1.9031610460480973e-15
  outer loop
    vertex 515.6114891898419 308.6965892076809 9.023892744153264e-14
    vertex 515.6114891898419 235.94658920768094 2.5000000000000377
    vertex 515.6114891898419 236.59363682043724 2.585185434277368
  endloop
endfacet
facet normal -1.0 5.231956340178109e-16 -1.9031610460480973e-15
  outer loop
    vertex 515.6114891898419 308.6965892076809 9.023892744153264e-14
    vertex 515.6114891898419 236.59363682043724 2.585185434277368
    vertex 515.6114891898419 237.19658920768094 2.8349364905389436
  endloop
endfacet
facet normal -1.0 5.231956340178109e-16 -1.9031610460480973e-15
  outer loop
    vertex 515.6114891898419 308.6965892076809 9.023892744153264e-14
    vertex 515.6114891898419 237.19658920768094 2.8349364905389436
    vertex 515.6114891898419 237.71435616064736 3.232233047033674
  endloop
endfacet
facet normal -1.0 5.231956340178109e-16 -1.9031610460480973e-15
  outer loop
    vertex 515.6114891898419 308.6965892076809 9.023892744153264e-14
    vertex 515.6114891898419 237.71435616064736 3.232233047033674
    vertex 515.6114891898419 238.11165271714205 3.7500000000000466
  endloop
endfacet
facet normal -1.0 5.231956340178109e-16 -1.9031610460480973e-15
  outer loop
    vertex 515.6114891898419 308.6965892076809 9.023892744153264e-14
    vertex 515.6114891898419 238.11165271714205 3.7500000000000466
    vertex 515.6114891898419 238.36140377340362 4.352952387243749
  endloop
endfacet
facet normal -1.0 5.231956340178109e-16 -1.9031610460480973e-15
  outer loop
    vertex 515.6114891898419 308.6965892076809 9.023892744153264e-14
    vertex 515.6114891898419 238.36140377340362 4.352952387243749
    vertex 515.6114891898419 238.44658920768097 5.000000000000057
  endloop
endfacet
facet normal -1.0 5.231956340178109e-16 -1.9031610460480973e-15
  outer loop
    vertex 515.6114891898419 308.6965892076809 9.023892744153264e-14
    vertex 515.6114891898419 238.44658920768097 5.000000000000057
    vertex 515.6114891898419 284.4465892076809 2.5000000000000435
  endloop
endfacet
facet normal -1.0 5.231956340178109e-16 -1.9031610460480973e-15
  outer loop
    vertex 515.6114891898419 284.4465892076809 2.5000000000000435
    vertex 515.6114891898419 238.44658920768097 5.000000000000057
    vertex 515.6114891898419 283.7995415949246 2.5851854342773732
  endloop
endfacet
facet normal -1.0 5.231956340178109e-16 -1.9031610460480973e-15
  outer loop
    vertex 515.6114891898419 283.7995415949246 2.5851854342773732
    vertex 515.6114891898419 238.44658920768097 5.000000000000057
    vertex 515.6114891898419 283.1965892076809 2.834936490538949
  endloop
endfacet
facet normal -1.0 5.231956340178109e-16 -1.9031610460480973e-15
  outer loop
    vertex 515.6114891898419 283.1965892076809 2.834936490538949
    vertex 515.6114891898419 238.44658920768097 5.000000000000057
    vertex 515.6114891898419 282.67882225471453 3.2322330470336795
  endloop
endfacet
facet normal -1.0 5.231956340178109e-16 -1.9031610460480973e-15
  outer loop
    vertex 515.6114891898419 282.67882225471453 3.2322330470336795
    vertex 515.6114891898419 238.44658920768097 5.000000000000057
    vertex 515.6114891898419 282.2815256982198 3.7500000000000524
  endloop
endfacet
facet normal -1.0 5.231956340178109e-16 -1.9031610460480973e-15
  outer loop
    vertex 515.6114891898419 282.2815256982198 3.7500000000000524
    vertex 515.6114891898419 238.44658920768097 5.000000000000057
    vertex 515.6114891898419 282.03177464195824 4.3529523872437546
  endloop
endfacet
facet normal -1.0 5.231956340178109e-16 -1.9031610460480973e-15
  outer loop
    vertex 515.6114891898419 282.03177464195824 4.3529523872437546
    vertex 515.6114891898419 238.44658920768097 5.000000000000057
    vertex 515.6114891898419 281.9465892076809 5.00000000000006
  endloop
endfacet
facet normal -1.0 5.231956340178109e-16 -1.9031610460480973e-15
  outer loop
    vertex 515.6114891898419 308.6965892076809 9.023892744153264e-14
    vertex 515.6114891898419 284.4465892076809 2.5000000000000435
    vertex 515.6114891898419 285.0936368204372 2.5851854342773732
  endloop
endfacet
facet normal -1.0 5.231956340178109e-16 -1.9031610460480973e-15
  outer loop
    vertex 515.6114891898419 308.6965892076809 9.023892744153264e-14
    vertex 515.6114891898419 285.0936368204372 2.5851854342773732
    vertex 515.6114891898419 285.6965892076809 2.8349364905389494
  endloop
endfacet
facet normal -1.0 5.231956340178109e-16 -1.9031610460480973e-15
  outer loop
    vertex 515.6114891898419 308.6965892076809 9.023892744153264e-14
    vertex 515.6114891898419 285.6965892076809 2.8349364905389494
    vertex 515.6114891898419 286.2143561606473 3.2322330470336795
  endloop
endfacet
facet normal -1.0 5.231956340178109e-16 -1.9031610460480973e-15
  outer loop
    vertex 515.6114891898419 308.6965892076809 9.023892744153264e-14
    vertex 515.6114891898419 286.2143561606473 3.2322330470336795
    vertex 515.6114891898419 286.611652717142 3.7500000000000524
  endloop
endfacet
facet normal -1.0 5.231956340178109e-16 -1.9031610460480973e-15
  outer loop
    vertex 515.6114891898419 308.6965892076809 9.023892744153264e-14
    vertex 515.6114891898419 286.611652717142 3.7500000000000524
    vertex 515.6114891898419 286.8614037734036 4.352952387243755
  endloop
endfacet
facet normal -1.0 5.231956340178109e-16 -1.9031610460480973e-15
  outer loop
    vertex 515.6114891898419 308.6965892076809 9.023892744153264e-14
    vertex 515.6114891898419 286.8614037734036 4.352952387243755
    vertex 515.6114891898419 286.946589207681 5.000000000000062
  endloop
endfacet
facet normal -1.0 5.231956340178109e-16 -1.9031610460480973e-15
  outer loop
    vertex 515.6114891898419 308.6965892076809 9.023892744153264e-14
    vertex 515.6114891898419 286.946589207681 5.000000000000062
    vertex 515.6114891898419 308.6965892076809 10.000000000000037
  endloop
endfacet
facet normal -1.0 0.0 0.0
  outer loop
    vertex 525.6114891898418 282.03177464195824 5.647047612756369
    vertex 525.6114891898418 282.03177464195824 4.3529523872437546
    vertex 525.6114891898418 281.9465892076809 5.00000000000006
  endloop
endfacet
facet normal -1.0 0.0 0.0
  outer loop
    vertex 525.6114891898418 282.03177464195824 4.3529523872437546
    vertex 525.6114891898418 282.03177464195824 5.647047612756369
    vertex 525.6114891898418 282.2815256982198 6.250000000000071
  endloop
endfacet
facet normal -1.0 0.0 0.0
  outer loop
    vertex 525.6114891898418 282.03177464195824 4.3529523872437546
    vertex 525.6114891898418 282.2815256982198 6.250000000000071
    vertex 525.6114891898418 282.2815256982198 3.7500000000000524
  endloop
endfacet
facet normal -1.0 0.0 0.0
  outer loop
    vertex 525.6114891898418 282.2815256982198 3.7500000000000524
    vertex 525.6114891898418 282.2815256982198 6.250000000000071
    vertex 525.6114891898418 282.67882225471453 6.767766952966443
  endloop
endfacet
facet normal -1.0 0.0 0.0
  outer loop
    vertex 525.6114891898418 282.2815256982198 3.7500000000000524
    vertex 525.6114891898418 282.67882225471453 6.767766952966443
    vertex 525.6114891898418 282.67882225471453 3.2322330470336795
  endloop
endfacet
facet normal -1.0 0.0 0.0
  outer loop
    vertex 525.6114891898418 282.67882225471453 3.2322330470336795
    vertex 525.6114891898418 282.67882225471453 6.767766952966443
    vertex 525.6114891898418 283.1965892076809 7.165063509461174
  endloop
endfacet
facet normal -1.0 0.0 0.0
  outer loop
    vertex 525.6114891898418 282.67882225471453 3.2322330470336795
    vertex 525.6114891898418 283.1965892076809 7.165063509461174
    vertex 525.6114891898418 283.1965892076809 2.834936490538949
  endloop
endfacet
facet normal -1.0 0.0 0.0
  outer loop
    vertex 525.6114891898418 283.1965892076809 2.834936490538949
    vertex 525.6114891898418 283.1965892076809 7.165063509461174
    vertex 525.6114891898418 283.7995415949246 7.41481456572275
  endloop
endfacet
facet normal -1.0 0.0 0.0
  outer loop
    vertex 525.6114891898418 283.1965892076809 2.834936490538949
    vertex 525.6114891898418 283.7995415949246 7.41481456572275
    vertex 525.6114891898418 283.7995415949246 2.5851854342773732
  endloop
endfacet
facet normal -1.0 0.0 0.0
  outer loop
    vertex 525.6114891898418 283.7995415949246 2.5851854342773732
    vertex 525.6114891898418 283.7995415949246 7.41481456572275
    vertex 525.6114891898418 284.4465892076809 7.500000000000079
  endloop
endfacet
facet normal -1.0 0.0 0.0
  outer loop
    vertex 525.6114891898418 283.7995415949246 2.5851854342773732
    vertex 525.6114891898418 284.4465892076809 7.500000000000079
    vertex 525.6114891898418 284.4465892076809 2.5000000000000435
  endloop
endfacet
facet normal -1.0 0.0 0.0
  outer loop
    vertex 525.6114891898418 284.4465892076809 2.5000000000000435
    vertex 525.6114891898418 284.4465892076809 7.500000000000079
    vertex 525.6114891898418 285.0936368204372 7.41481456572275
  endloop
endfacet
facet normal -1.0 0.0 0.0
  outer loop
    vertex 525.6114891898418 284.4465892076809 2.5000000000000435
    vertex 525.6114891898418 285.0936368204372 7.41481456572275
    vertex 525.6114891898418 285.0936368204372 2.5851854342773732
  endloop
endfacet
facet normal -1.0 0.0 0.0
  outer loop
    vertex 525.6114891898418 285.0936368204372 2.5851854342773732
    vertex 525.6114891898418 285.0936368204372 7.41481456572275
    vertex 525.6114891898418 285.696589207681 7.165063509461174
  endloop
endfacet
facet normal -1.0 0.0 0.0
  outer loop
    vertex 525.6114891898418 285.0936368204372 2.5851854342773732
    vertex 525.6114891898418 285.696589207681 7.165063509461174
    vertex 525.6114891898418 285.6965892076809 2.8349364905389494
  endloop
endfacet
facet normal -1.0 0.0 0.0
  outer loop
    vertex 525.6114891898418 285.6965892076809 2.8349364905389494
    vertex 525.6114891898418 285.696589207681 7.165063509461174
    vertex 525.6114891898418 286.2143561606473 3.2322330470336795
  endloop
endfacet
facet normal -1.0 0.0 0.0
  outer loop
    vertex 525.6114891898418 286.2143561606473 3.2322330470336795
    vertex 525.6114891898418 285.696589207681 7.165063509461174
    vertex 525.6114891898418 286.2143561606473 6.767766952966443
  endloop
endfacet
facet normal -1.0 0.0 0.0
  outer loop
    vertex 525.6114891898418 286.2143561606473 3.2322330470336795
    vertex 525.6114891898418 286.2143561606473 6.767766952966443
    vertex 525.6114891898418 286.611652717142 6.25000000000007
  endloop
endfacet
facet normal -1.0 0.0 0.0
  outer loop
    vertex 525.6114891898418 286.2143561606473 3.2322330470336795
    vertex 525.6114891898418 286.611652717142 6.25000000000007
    vertex 525.6114891898418 286.611652717142 3.7500000000000524
  endloop
endfacet
facet normal -1.0 0.0 0.0
  outer loop
    vertex 525.6114891898418 286.611652717142 3.7500000000000524
    vertex 525.6114891898418 286.611652717142 6.25000000000007
    vertex 525.6114891898418 286.8614037734036 5.647047612756367
  endloop
endfacet
facet normal -1.0 0.0 0.0
  outer loop
    vertex 525.6114891898418 286.611652717142 3.7500000000000524
    vertex 525.6114891898418 286.8614037734036 5.647047612756367
    vertex 525.6114891898418 286.8614037734036 4.352952387243755
  endloop
endfacet
facet normal -1.0 0.0 0.0
  outer loop
    vertex 525.6114891898418 286.8614037734036 4.352952387243755
    vertex 525.6114891898418 286.8614037734036 5.647047612756367
    vertex 525.6114891898418 286.946589207681 5.000000000000062
  endloop
endfacet
facet normal -0.0 -0.99144486137381 -0.1305261922200553
  outer loop
    vertex 525.6114891898418 286.8614037734036 5.647047612756367
    vertex 515.6114891898419 286.946589207681 5.000000000000062
    vertex 525.6114891898418 286.946589207681 5.000000000000062
  endloop
endfacet
facet normal -0.0 -0.99144486137381 -0.1305261922200553
  outer loop
    vertex 515.6114891898419 286.946589207681 5.000000000000062
    vertex 525.6114891898418 286.8614037734036 5.647047612756367
    vertex 515.6114891898419 286.8614037734036 5.647047612756367
  endloop
endfacet
facet normal 0.0 -0.99144486137381 0.13052619222005502
  outer loop
    vertex 525.6114891898418 286.946589207681 5.000000000000062
    vertex 515.6114891898419 286.8614037734036 4.352952387243755
    vertex 525.6114891898418 286.8614037734036 4.352952387243755
  endloop
endfacet
facet normal 0.0 -0.99144486137381 0.13052619222005502
  outer loop
    vertex 515.6114891898419 286.8614037734036 4.352952387243755
    vertex 525.6114891898418 286.946589207681 5.000000000000062
    vertex 515.6114891898419 286.946589207681 5.000000000000062
  endloop
endfacet
facet normal 0.0 -0.9238795325112851 0.3826834323650942
  outer loop
    vertex 525.6114891898418 286.8614037734036 4.352952387243755
    vertex 515.6114891898419 286.611652717142 3.7500000000000524
    vertex 525.6114891898418 286.611652717142 3.7500000000000524
  endloop
endfacet
facet normal 0.0 -0.9238795325112851 0.3826834323650942
  outer loop
    vertex 515.6114891898419 286.611652717142 3.7500000000000524
    vertex 525.6114891898418 286.8614037734036 4.352952387243755
    vertex 515.6114891898419 286.8614037734036 4.352952387243755
  endloop
endfacet
facet normal 0.0 -0.7933533402912502 0.6087614290087012
  outer loop
    vertex 525.6114891898418 286.611652717142 3.7500000000000524
    vertex 515.6114891898419 286.2143561606473 3.2322330470336795
    vertex 525.6114891898418 286.2143561606473 3.2322330470336795
  endloop
endfacet
facet normal 0.0 -0.7933533402912502 0.6087614290087012
  outer loop
    vertex 515.6114891898419 286.2143561606473 3.2322330470336795
    vertex 525.6114891898418 286.611652717142 3.7500000000000524
    vertex 515.6114891898419 286.611652717142 3.7500000000000524
  endloop
endfacet
facet normal 0.0 -0.6087614290086931 0.7933533402912564
  outer loop
    vertex 525.6114891898418 285.6965892076809 2.8349364905389494
    vertex 515.6114891898419 286.2143561606473 3.2322330470336795
    vertex 515.6114891898419 285.6965892076809 2.8349364905389494
  endloop
endfacet
facet normal 0.0 -0.6087614290086931 0.7933533402912564
  outer loop
    vertex 515.6114891898419 286.2143561606473 3.2322330470336795
    vertex 525.6114891898418 285.6965892076809 2.8349364905389494
    vertex 525.6114891898418 286.2143561606473 3.2322330470336795
  endloop
endfacet
facet normal 0.0 -0.382683432365093 0.9238795325112854
  outer loop
    vertex 525.6114891898418 285.0936368204372 2.5851854342773732
    vertex 515.6114891898419 285.6965892076809 2.8349364905389494
    vertex 515.6114891898419 285.0936368204372 2.5851854342773732
  endloop
endfacet
facet normal 0.0 -0.382683432365093 0.9238795325112854
  outer loop
    vertex 515.6114891898419 285.6965892076809 2.8349364905389494
    vertex 525.6114891898418 285.0936368204372 2.5851854342773732
    vertex 525.6114891898418 285.6965892076809 2.8349364905389494
  endloop
endfacet
facet normal 0.0 -0.13052619222005515 0.9914448613738099
  outer loop
    vertex 525.6114891898418 284.4465892076809 2.5000000000000435
    vertex 515.6114891898419 285.0936368204372 2.5851854342773732
    vertex 515.6114891898419 284.4465892076809 2.5000000000000435
  endloop
endfacet
facet normal 0.0 -0.13052619222005515 0.9914448613738099
  outer loop
    vertex 515.6114891898419 285.0936368204372 2.5851854342773732
    vertex 525.6114891898418 284.4465892076809 2.5000000000000435
    vertex 525.6114891898418 285.0936368204372 2.5851854342773732
  endloop
endfacet
facet normal 0.0 0.13052619222005465 0.9914448613738102
  outer loop
    vertex 525.6114891898418 283.7995415949246 2.5851854342773732
    vertex 515.6114891898419 284.4465892076809 2.5000000000000435
    vertex 515.6114891898419 283.7995415949246 2.5851854342773732
  endloop
endfacet
facet normal 0.0 0.13052619222005465 0.9914448613738102
  outer loop
    vertex 515.6114891898419 284.4465892076809 2.5000000000000435
    vertex 525.6114891898418 283.7995415949246 2.5851854342773732
    vertex 525.6114891898418 284.4465892076809 2.5000000000000435
  endloop
endfacet
facet normal 0.0 0.382683432365093 0.9238795325112854
  outer loop
    vertex 525.6114891898418 283.1965892076809 2.834936490538949
    vertex 515.6114891898419 283.7995415949246 2.5851854342773732
    vertex 515.6114891898419 283.1965892076809 2.834936490538949
  endloop
endfacet
facet normal 0.0 0.382683432365093 0.9238795325112854
  outer loop
    vertex 515.6114891898419 283.7995415949246 2.5851854342773732
    vertex 525.6114891898418 283.1965892076809 2.834936490538949
    vertex 525.6114891898418 283.7995415949246 2.5851854342773732
  endloop
endfacet
facet normal 0.0 0.6087614290086935 0.793353340291256
  outer loop
    vertex 525.6114891898418 282.67882225471453 3.2322330470336795
    vertex 515.6114891898419 283.1965892076809 2.834936490538949
    vertex 515.6114891898419 282.67882225471453 3.2322330470336795
  endloop
endfacet
facet normal 0.0 0.6087614290086935 0.793353340291256
  outer loop
    vertex 515.6114891898419 283.1965892076809 2.834936490538949
    vertex 525.6114891898418 282.67882225471453 3.2322330470336795
    vertex 525.6114891898418 283.1965892076809 2.834936490538949
  endloop
endfacet
facet normal 0.0 0.7933533402912502 0.6087614290087012
  outer loop
    vertex 515.6114891898419 282.2815256982198 3.7500000000000524
    vertex 525.6114891898418 282.67882225471453 3.2322330470336795
    vertex 515.6114891898419 282.67882225471453 3.2322330470336795
  endloop
endfacet
facet normal 0.0 0.7933533402912502 0.6087614290087012
  outer loop
    vertex 525.6114891898418 282.67882225471453 3.2322330470336795
    vertex 515.6114891898419 282.2815256982198 3.7500000000000524
    vertex 525.6114891898418 282.2815256982198 3.7500000000000524
  endloop
endfacet
facet normal 0.0 0.9238795325112849 0.3826834323650946
  outer loop
    vertex 515.6114891898419 282.03177464195824 4.3529523872437546
    vertex 525.6114891898418 282.2815256982198 3.7500000000000524
    vertex 515.6114891898419 282.2815256982198 3.7500000000000524
  endloop
endfacet
facet normal 0.0 0.9238795325112849 0.3826834323650946
  outer loop
    vertex 525.6114891898418 282.2815256982198 3.7500000000000524
    vertex 515.6114891898419 282.03177464195824 4.3529523872437546
    vertex 525.6114891898418 282.03177464195824 4.3529523872437546
  endloop
endfacet
facet normal 0.0 0.99144486137381 0.13052619222005515
  outer loop
    vertex 515.6114891898419 281.9465892076809 5.00000000000006
    vertex 525.6114891898418 282.03177464195824 4.3529523872437546
    vertex 515.6114891898419 282.03177464195824 4.3529523872437546
  endloop
endfacet
facet normal 0.0 0.99144486137381 0.13052619222005515
  outer loop
    vertex 525.6114891898418 282.03177464195824 4.3529523872437546
    vertex 515.6114891898419 281.9465892076809 5.00000000000006
    vertex 525.6114891898418 281.9465892076809 5.00000000000006
  endloop
endfacet
facet normal 0.0 0.99144486137381 -0.1305261922200547
  outer loop
    vertex 515.6114891898419 282.03177464195824 5.647047612756369
    vertex 525.6114891898418 281.9465892076809 5.00000000000006
    vertex 515.6114891898419 281.9465892076809 5.00000000000006
  endloop
endfacet
facet normal 0.0 0.99144486137381 -0.1305261922200547
  outer loop
    vertex 525.6114891898418 281.9465892076809 5.00000000000006
    vertex 515.6114891898419 282.03177464195824 5.647047612756369
    vertex 525.6114891898418 282.03177464195824 5.647047612756369
  endloop
endfacet
facet normal 0.0 0.9238795325112849 -0.3826834323650946
  outer loop
    vertex 515.6114891898419 282.2815256982198 6.250000000000071
    vertex 525.6114891898418 282.03177464195824 5.647047612756369
    vertex 515.6114891898419 282.03177464195824 5.647047612756369
  endloop
endfacet
facet normal 0.0 0.9238795325112849 -0.3826834323650946
  outer loop
    vertex 525.6114891898418 282.03177464195824 5.647047612756369
    vertex 515.6114891898419 282.2815256982198 6.250000000000071
    vertex 525.6114891898418 282.2815256982198 6.250000000000071
  endloop
endfacet
facet normal 0.0 0.7933533402912496 -0.6087614290087017
  outer loop
    vertex 515.6114891898419 282.67882225471453 6.767766952966443
    vertex 525.6114891898418 282.2815256982198 6.250000000000071
    vertex 515.6114891898419 282.2815256982198 6.250000000000071
  endloop
endfacet
facet normal 0.0 0.7933533402912496 -0.6087614290087017
  outer loop
    vertex 525.6114891898418 282.2815256982198 6.250000000000071
    vertex 515.6114891898419 282.67882225471453 6.767766952966443
    vertex 525.6114891898418 282.67882225471453 6.767766952966443
  endloop
endfacet
facet normal 0.0 0.6087614290086931 -0.7933533402912564
  outer loop
    vertex 525.6114891898418 283.1965892076809 7.165063509461174
    vertex 515.6114891898419 282.67882225471453 6.767766952966443
    vertex 515.6114891898419 283.1965892076809 7.165063509461174
  endloop
endfacet
facet normal 0.0 0.6087614290086931 -0.7933533402912564
  outer loop
    vertex 515.6114891898419 282.67882225471453 6.767766952966443
    vertex 525.6114891898418 283.1965892076809 7.165063509461174
    vertex 525.6114891898418 282.67882225471453 6.767766952966443
  endloop
endfacet
facet normal 0.0 0.38268343236509395 -0.9238795325112851
  outer loop
    vertex 525.6114891898418 283.7995415949246 7.41481456572275
    vertex 515.6114891898419 283.1965892076809 7.165063509461174
    vertex 515.6114891898419 283.7995415949246 7.41481456572275
  endloop
endfacet
facet normal 0.0 0.38268343236509395 -0.9238795325112851
  outer loop
    vertex 515.6114891898419 283.1965892076809 7.165063509461174
    vertex 525.6114891898418 283.7995415949246 7.41481456572275
    vertex 525.6114891898418 283.1965892076809 7.165063509461174
  endloop
endfacet
facet normal 0.0 0.1305261922200541 -0.9914448613738102
  outer loop
    vertex 525.6114891898418 284.4465892076809 7.500000000000079
    vertex 515.6114891898419 283.7995415949246 7.41481456572275
    vertex 515.6114891898419 284.4465892076809 7.500000000000079
  endloop
endfacet
facet normal 0.0 0.1305261922200541 -0.9914448613738102
  outer loop
    vertex 515.6114891898419 283.7995415949246 7.41481456572275
    vertex 525.6114891898418 284.4465892076809 7.500000000000079
    vertex 525.6114891898418 283.7995415949246 7.41481456572275
  endloop
endfacet
facet normal -0.0 -0.1305261922200541 -0.9914448613738102
  outer loop
    vertex 525.6114891898418 285.0936368204372 7.41481456572275
    vertex 515.6114891898419 284.4465892076809 7.500000000000079
    vertex 515.6114891898419 285.0936368204372 7.41481456572275
  endloop
endfacet
facet normal -0.0 -0.1305261922200541 -0.9914448613738102
  outer loop
    vertex 515.6114891898419 284.4465892076809 7.500000000000079
    vertex 525.6114891898418 285.0936368204372 7.41481456572275
    vertex 525.6114891898418 284.4465892076809 7.500000000000079
  endloop
endfacet
facet normal -0.0 -0.38268343236506946 -0.9238795325112952
  outer loop
    vertex 525.6114891898418 285.696589207681 7.165063509461174
    vertex 515.6114891898419 285.0936368204372 7.41481456572275
    vertex 515.6114891898419 285.696589207681 7.165063509461174
  endloop
endfacet
facet normal -0.0 -0.38268343236506946 -0.9238795325112952
  outer loop
    vertex 515.6114891898419 285.0936368204372 7.41481456572275
    vertex 525.6114891898418 285.696589207681 7.165063509461174
    vertex 525.6114891898418 285.0936368204372 7.41481456572275
  endloop
endfacet
facet normal -0.0 -0.6087614290087265 -0.7933533402912308
  outer loop
    vertex 525.6114891898418 286.2143561606473 6.767766952966443
    vertex 515.6114891898419 285.696589207681 7.165063509461174
    vertex 515.6114891898419 286.2143561606473 6.767766952966443
  endloop
endfacet
facet normal -0.0 -0.6087614290087265 -0.7933533402912308
  outer loop
    vertex 515.6114891898419 285.696589207681 7.165063509461174
    vertex 525.6114891898418 286.2143561606473 6.767766952966443
    vertex 525.6114891898418 285.696589207681 7.165063509461174
  endloop
endfacet
facet normal -0.0 -0.7933533402912502 -0.6087614290087012
  outer loop
    vertex 525.6114891898418 286.2143561606473 6.767766952966443
    vertex 515.6114891898419 286.611652717142 6.25000000000007
    vertex 525.6114891898418 286.611652717142 6.25000000000007
  endloop
endfacet
facet normal -0.0 -0.7933533402912502 -0.6087614290087012
  outer loop
    vertex 515.6114891898419 286.611652717142 6.25000000000007
    vertex 525.6114891898418 286.2143561606473 6.767766952966443
    vertex 515.6114891898419 286.2143561606473 6.767766952966443
  endloop
endfacet
facet normal -0.0 -0.9238795325112851 -0.3826834323650942
  outer loop
    vertex 525.6114891898418 286.611652717142 6.25000000000007
    vertex 515.6114891898419 286.8614037734036 5.647047612756367
    vertex 525.6114891898418 286.8614037734036 5.647047612756367
  endloop
endfacet
facet normal -0.0 -0.9238795325112851 -0.3826834323650942
  outer loop
    vertex 515.6114891898419 286.8614037734036 5.647047612756367
    vertex 525.6114891898418 286.611652717142 6.25000000000007
    vertex 515.6114891898419 286.611652717142 6.25000000000007
  endloop
endfacet
facet normal -1.0 0.0 0.0
  outer loop
    vertex 525.6114891898418 233.53177464195826 5.647047612756364
    vertex 525.6114891898418 233.53177464195826 4.352952387243749
    vertex 525.6114891898418 233.44658920768094 5.000000000000055
  endloop
endfacet
facet normal -1.0 0.0 0.0
  outer loop
    vertex 525.6114891898418 233.53177464195826 4.352952387243749
    vertex 525.6114891898418 233.53177464195826 5.647047612756364
    vertex 525.6114891898418 233.78152569821984 6.250000000000066
  endloop
endfacet
facet normal -1.0 0.0 0.0
  outer loop
    vertex 525.6114891898418 233.53177464195826 4.352952387243749
    vertex 525.6114891898418 233.78152569821984 6.250000000000066
    vertex 525.6114891898418 233.78152569821984 3.7500000000000466
  endloop
endfacet
facet normal -1.0 0.0 0.0
  outer loop
    vertex 525.6114891898418 233.78152569821984 3.7500000000000466
    vertex 525.6114891898418 233.78152569821984 6.250000000000066
    vertex 525.6114891898418 234.17882225471456 6.767766952966437
  endloop
endfacet
facet normal -1.0 0.0 0.0
  outer loop
    vertex 525.6114891898418 233.78152569821984 3.7500000000000466
    vertex 525.6114891898418 234.17882225471456 6.767766952966437
    vertex 525.6114891898418 234.17882225471456 3.232233047033674
  endloop
endfacet
facet normal -1.0 0.0 0.0
  outer loop
    vertex 525.6114891898418 234.17882225471456 3.232233047033674
    vertex 525.6114891898418 234.17882225471456 6.767766952966437
    vertex 525.6114891898418 234.69658920768097 7.165063509461167
  endloop
endfacet
facet normal -1.0 0.0 0.0
  outer loop
    vertex 525.6114891898418 234.17882225471456 3.232233047033674
    vertex 525.6114891898418 234.69658920768097 7.165063509461167
    vertex 525.6114891898418 234.69658920768097 2.834936490538943
  endloop
endfacet
facet normal -1.0 0.0 0.0
  outer loop
    vertex 525.6114891898418 234.69658920768097 2.834936490538943
    vertex 525.6114891898418 234.69658920768097 7.165063509461167
    vertex 525.6114891898418 235.29954159492465 7.414814565722744
  endloop
endfacet
facet normal -1.0 0.0 0.0
  outer loop
    vertex 525.6114891898418 234.69658920768097 2.834936490538943
    vertex 525.6114891898418 235.29954159492465 7.414814565722744
    vertex 525.6114891898418 235.29954159492465 2.5851854342773675
  endloop
endfacet
facet normal -1.0 0.0 0.0
  outer loop
    vertex 525.6114891898418 235.29954159492465 2.5851854342773675
    vertex 525.6114891898418 235.29954159492465 7.414814565722744
    vertex 525.6114891898418 235.94658920768094 7.500000000000074
  endloop
endfacet
facet normal -1.0 0.0 0.0
  outer loop
    vertex 525.6114891898418 235.29954159492465 2.5851854342773675
    vertex 525.6114891898418 235.94658920768094 7.500000000000074
    vertex 525.6114891898418 235.94658920768094 2.5000000000000377
  endloop
endfacet
facet normal -1.0 0.0 0.0
  outer loop
    vertex 525.6114891898418 235.94658920768094 2.5000000000000377
    vertex 525.6114891898418 235.94658920768094 7.500000000000074
    vertex 525.6114891898418 236.59363682043724 7.414814565722744
  endloop
endfacet
facet normal -1.0 0.0 0.0
  outer loop
    vertex 525.6114891898418 235.94658920768094 2.5000000000000377
    vertex 525.6114891898418 236.59363682043724 7.414814565722744
    vertex 525.6114891898418 236.59363682043724 2.585185434277368
  endloop
endfacet
facet normal -1.0 0.0 0.0
  outer loop
    vertex 525.6114891898418 236.59363682043724 2.585185434277368
    vertex 525.6114891898418 236.59363682043724 7.414814565722744
    vertex 525.6114891898418 237.19658920768097 7.165063509461167
  endloop
endfacet
facet normal -1.0 0.0 0.0
  outer loop
    vertex 525.6114891898418 236.59363682043724 2.585185434277368
    vertex 525.6114891898418 237.19658920768097 7.165063509461167
    vertex 525.6114891898418 237.19658920768094 2.8349364905389436
  endloop
endfacet
facet normal -1.0 0.0 0.0
  outer loop
    vertex 525.6114891898418 237.19658920768094 2.8349364905389436
    vertex 525.6114891898418 237.19658920768097 7.165063509461167
    vertex 525.6114891898418 237.71435616064736 3.232233047033674
  endloop
endfacet
facet normal -1.0 0.0 0.0
  outer loop
    vertex 525.6114891898418 237.71435616064736 3.232233047033674
    vertex 525.6114891898418 237.19658920768097 7.165063509461167
    vertex 525.6114891898418 237.71435616064736 6.767766952966437
  endloop
endfacet
facet normal -1.0 0.0 0.0
  outer loop
    vertex 525.6114891898418 237.71435616064736 3.232233047033674
    vertex 525.6114891898418 237.71435616064736 6.767766952966437
    vertex 525.6114891898418 238.11165271714205 6.250000000000065
  endloop
endfacet
facet normal -1.0 0.0 0.0
  outer loop
    vertex 525.6114891898418 237.71435616064736 3.232233047033674
    vertex 525.6114891898418 238.11165271714205 6.250000000000065
    vertex 525.6114891898418 238.11165271714205 3.7500000000000466
  endloop
endfacet
facet normal -1.0 0.0 0.0
  outer loop
    vertex 525.6114891898418 238.11165271714205 3.7500000000000466
    vertex 525.6114891898418 238.11165271714205 6.250000000000065
    vertex 525.6114891898418 238.36140377340362 5.647047612756362
  endloop
endfacet
facet normal -1.0 0.0 0.0
  outer loop
    vertex 525.6114891898418 238.11165271714205 3.7500000000000466
    vertex 525.6114891898418 238.36140377340362 5.647047612756362
    vertex 525.6114891898418 238.36140377340362 4.352952387243749
  endloop
endfacet
facet normal -1.0 0.0 0.0
  outer loop
    vertex 525.6114891898418 238.36140377340362 4.352952387243749
    vertex 525.6114891898418 238.36140377340362 5.647047612756362
    vertex 525.6114891898418 238.44658920768097 5.000000000000057
  endloop
endfacet
facet normal 0.0 0.1305261922200541 -0.9914448613738102
  outer loop
    vertex 525.6114891898418 235.94658920768094 7.500000000000074
    vertex 515.6114891898419 235.29954159492465 7.414814565722744
    vertex 515.6114891898419 235.94658920768094 7.500000000000074
  endloop
endfacet
facet normal 0.0 0.1305261922200541 -0.9914448613738102
  outer loop
    vertex 515.6114891898419 235.29954159492465 7.414814565722744
    vertex 525.6114891898418 235.94658920768094 7.500000000000074
    vertex 525.6114891898418 235.29954159492465 7.414814565722744
  endloop
endfacet
facet normal -0.0 -0.1305261922200541 -0.9914448613738102
  outer loop
    vertex 525.6114891898418 236.59363682043724 7.414814565722744
    vertex 515.6114891898419 235.94658920768094 7.500000000000074
    vertex 515.6114891898419 236.59363682043724 7.414814565722744
  endloop
endfacet
facet normal -0.0 -0.1305261922200541 -0.9914448613738102
  outer loop
    vertex 515.6114891898419 235.94658920768094 7.500000000000074
    vertex 525.6114891898418 236.59363682043724 7.414814565722744
    vertex 525.6114891898418 235.94658920768094 7.500000000000074
  endloop
endfacet
facet normal -0.0 -0.38268343236506946 -0.9238795325112952
  outer loop
    vertex 525.6114891898418 237.19658920768097 7.165063509461167
    vertex 515.6114891898419 236.59363682043724 7.414814565722744
    vertex 515.6114891898419 237.19658920768097 7.165063509461167
  endloop
endfacet
facet normal -0.0 -0.38268343236506946 -0.9238795325112952
  outer loop
    vertex 515.6114891898419 236.59363682043724 7.414814565722744
    vertex 525.6114891898418 237.19658920768097 7.165063509461167
    vertex 525.6114891898418 236.59363682043724 7.414814565722744
  endloop
endfacet
facet normal -0.0 -0.6087614290087265 -0.7933533402912308
  outer loop
    vertex 525.6114891898418 237.71435616064736 6.767766952966437
    vertex 515.6114891898419 237.19658920768097 7.165063509461167
    vertex 515.6114891898419 237.71435616064736 6.767766952966437
  endloop
endfacet
facet normal -0.0 -0.6087614290087265 -0.7933533402912308
  outer loop
    vertex 515.6114891898419 237.19658920768097 7.165063509461167
    vertex 525.6114891898418 237.71435616064736 6.767766952966437
    vertex 525.6114891898418 237.19658920768097 7.165063509461167
  endloop
endfacet
facet normal -0.0 -0.7933533402912502 -0.6087614290087012
  outer loop
    vertex 525.6114891898418 237.71435616064736 6.767766952966437
    vertex 515.6114891898419 238.11165271714205 6.250000000000065
    vertex 525.6114891898418 238.11165271714205 6.250000000000065
  endloop
endfacet
facet normal -0.0 -0.7933533402912502 -0.6087614290087012
  outer loop
    vertex 515.6114891898419 238.11165271714205 6.250000000000065
    vertex 525.6114891898418 237.71435616064736 6.767766952966437
    vertex 515.6114891898419 237.71435616064736 6.767766952966437
  endloop
endfacet
facet normal -0.0 -0.9238795325112851 -0.3826834323650942
  outer loop
    vertex 525.6114891898418 238.11165271714205 6.250000000000065
    vertex 515.6114891898419 238.36140377340362 5.647047612756362
    vertex 525.6114891898418 238.36140377340362 5.647047612756362
  endloop
endfacet
facet normal -0.0 -0.9238795325112851 -0.3826834323650942
  outer loop
    vertex 515.6114891898419 238.36140377340362 5.647047612756362
    vertex 525.6114891898418 238.11165271714205 6.250000000000065
    vertex 515.6114891898419 238.11165271714205 6.250000000000065
  endloop
endfacet
facet normal -0.0 -0.99144486137381 -0.1305261922200553
  outer loop
    vertex 525.6114891898418 238.36140377340362 5.647047612756362
    vertex 515.6114891898419 238.44658920768097 5.000000000000057
    vertex 525.6114891898418 238.44658920768097 5.000000000000057
  endloop
endfacet
facet normal -0.0 -0.99144486137381 -0.1305261922200553
  outer loop
    vertex 515.6114891898419 238.44658920768097 5.000000000000057
    vertex 525.6114891898418 238.36140377340362 5.647047612756362
    vertex 515.6114891898419 238.36140377340362 5.647047612756362
  endloop
endfacet
facet normal 0.0 -0.99144486137381 0.13052619222005502
  outer loop
    vertex 525.6114891898418 238.44658920768097 5.000000000000057
    vertex 515.6114891898419 238.36140377340362 4.352952387243749
    vertex 525.6114891898418 238.36140377340362 4.352952387243749
  endloop
endfacet
facet normal 0.0 -0.99144486137381 0.13052619222005502
  outer loop
    vertex 515.6114891898419 238.36140377340362 4.352952387243749
    vertex 525.6114891898418 238.44658920768097 5.000000000000057
    vertex 515.6114891898419 238.44658920768097 5.000000000000057
  endloop
endfacet
facet normal 0.0 -0.9238795325112851 0.3826834323650942
  outer loop
    vertex 525.6114891898418 238.36140377340362 4.352952387243749
    vertex 515.6114891898419 238.11165271714205 3.7500000000000466
    vertex 525.6114891898418 238.11165271714205 3.7500000000000466
  endloop
endfacet
facet normal 0.0 -0.9238795325112851 0.3826834323650942
  outer loop
    vertex 515.6114891898419 238.11165271714205 3.7500000000000466
    vertex 525.6114891898418 238.36140377340362 4.352952387243749
    vertex 515.6114891898419 238.36140377340362 4.352952387243749
  endloop
endfacet
facet normal 0.0 -0.7933533402912502 0.6087614290087012
  outer loop
    vertex 525.6114891898418 238.11165271714205 3.7500000000000466
    vertex 515.6114891898419 237.71435616064736 3.232233047033674
    vertex 525.6114891898418 237.71435616064736 3.232233047033674
  endloop
endfacet
facet normal 0.0 -0.7933533402912502 0.6087614290087012
  outer loop
    vertex 515.6114891898419 237.71435616064736 3.232233047033674
    vertex 525.6114891898418 238.11165271714205 3.7500000000000466
    vertex 515.6114891898419 238.11165271714205 3.7500000000000466
  endloop
endfacet
facet normal 0.0 -0.6087614290086931 0.7933533402912564
  outer loop
    vertex 525.6114891898418 237.19658920768094 2.8349364905389436
    vertex 515.6114891898419 237.71435616064736 3.232233047033674
    vertex 515.6114891898419 237.19658920768094 2.8349364905389436
  endloop
endfacet
facet normal 0.0 -0.6087614290086931 0.7933533402912564
  outer loop
    vertex 515.6114891898419 237.71435616064736 3.232233047033674
    vertex 525.6114891898418 237.19658920768094 2.8349364905389436
    vertex 525.6114891898418 237.71435616064736 3.232233047033674
  endloop
endfacet
facet normal 0.0 -0.382683432365093 0.9238795325112854
  outer loop
    vertex 525.6114891898418 236.59363682043724 2.585185434277368
    vertex 515.6114891898419 237.19658920768094 2.8349364905389436
    vertex 515.6114891898419 236.59363682043724 2.585185434277368
  endloop
endfacet
facet normal 0.0 -0.382683432365093 0.9238795325112854
  outer loop
    vertex 515.6114891898419 237.19658920768094 2.8349364905389436
    vertex 525.6114891898418 236.59363682043724 2.585185434277368
    vertex 525.6114891898418 237.19658920768094 2.8349364905389436
  endloop
endfacet
facet normal 0.0 -0.13052619222005515 0.9914448613738099
  outer loop
    vertex 525.6114891898418 235.94658920768094 2.5000000000000377
    vertex 515.6114891898419 236.59363682043724 2.585185434277368
    vertex 515.6114891898419 235.94658920768094 2.5000000000000377
  endloop
endfacet
facet normal 0.0 -0.13052619222005515 0.9914448613738099
  outer loop
    vertex 515.6114891898419 236.59363682043724 2.585185434277368
    vertex 525.6114891898418 235.94658920768094 2.5000000000000377
    vertex 525.6114891898418 236.59363682043724 2.585185434277368
  endloop
endfacet
facet normal 0.0 0.13052619222005465 0.9914448613738102
  outer loop
    vertex 525.6114891898418 235.29954159492465 2.5851854342773675
    vertex 515.6114891898419 235.94658920768094 2.5000000000000377
    vertex 515.6114891898419 235.29954159492465 2.5851854342773675
  endloop
endfacet
facet normal 0.0 0.13052619222005465 0.9914448613738102
  outer loop
    vertex 515.6114891898419 235.94658920768094 2.5000000000000377
    vertex 525.6114891898418 235.29954159492465 2.5851854342773675
    vertex 525.6114891898418 235.94658920768094 2.5000000000000377
  endloop
endfacet
facet normal 0.0 0.382683432365093 0.9238795325112854
  outer loop
    vertex 525.6114891898418 234.69658920768097 2.834936490538943
    vertex 515.6114891898419 235.29954159492465 2.5851854342773675
    vertex 515.6114891898419 234.69658920768097 2.834936490538943
  endloop
endfacet
facet normal 0.0 0.382683432365093 0.9238795325112854
  outer loop
    vertex 515.6114891898419 235.29954159492465 2.5851854342773675
    vertex 525.6114891898418 234.69658920768097 2.834936490538943
    vertex 525.6114891898418 235.29954159492465 2.5851854342773675
  endloop
endfacet
facet normal 0.0 0.6087614290086935 0.793353340291256
  outer loop
    vertex 525.6114891898418 234.17882225471456 3.232233047033674
    vertex 515.6114891898419 234.69658920768097 2.834936490538943
    vertex 515.6114891898419 234.17882225471456 3.232233047033674
  endloop
endfacet
facet normal 0.0 0.6087614290086935 0.793353340291256
  outer loop
    vertex 515.6114891898419 234.69658920768097 2.834936490538943
    vertex 525.6114891898418 234.17882225471456 3.232233047033674
    vertex 525.6114891898418 234.69658920768097 2.834936490538943
  endloop
endfacet
facet normal 0.0 0.7933533402912502 0.6087614290087012
  outer loop
    vertex 515.6114891898419 233.78152569821984 3.7500000000000466
    vertex 525.6114891898418 234.17882225471456 3.232233047033674
    vertex 515.6114891898419 234.17882225471456 3.232233047033674
  endloop
endfacet
facet normal 0.0 0.7933533402912502 0.6087614290087012
  outer loop
    vertex 525.6114891898418 234.17882225471456 3.232233047033674
    vertex 515.6114891898419 233.78152569821984 3.7500000000000466
    vertex 525.6114891898418 233.78152569821984 3.7500000000000466
  endloop
endfacet
facet normal 0.0 0.9238795325112849 0.3826834323650946
  outer loop
    vertex 515.6114891898419 233.53177464195826 4.352952387243749
    vertex 525.6114891898418 233.78152569821984 3.7500000000000466
    vertex 515.6114891898419 233.78152569821984 3.7500000000000466
  endloop
endfacet
facet normal 0.0 0.9238795325112849 0.3826834323650946
  outer loop
    vertex 525.6114891898418 233.78152569821984 3.7500000000000466
    vertex 515.6114891898419 233.53177464195826 4.352952387243749
    vertex 525.6114891898418 233.53177464195826 4.352952387243749
  endloop
endfacet
facet normal 0.0 0.99144486137381 0.13052619222005515
  outer loop
    vertex 515.6114891898419 233.44658920768094 5.000000000000055
    vertex 525.6114891898418 233.53177464195826 4.352952387243749
    vertex 515.6114891898419 233.53177464195826 4.352952387243749
  endloop
endfacet
facet normal 0.0 0.99144486137381 0.13052619222005515
  outer loop
    vertex 525.6114891898418 233.53177464195826 4.352952387243749
    vertex 515.6114891898419 233.44658920768094 5.000000000000055
    vertex 525.6114891898418 233.44658920768094 5.000000000000055
  endloop
endfacet
facet normal 0.0 0.99144486137381 -0.1305261922200547
  outer loop
    vertex 515.6114891898419 233.53177464195826 5.647047612756364
    vertex 525.6114891898418 233.44658920768094 5.000000000000055
    vertex 515.6114891898419 233.44658920768094 5.000000000000055
  endloop
endfacet
facet normal 0.0 0.99144486137381 -0.1305261922200547
  outer loop
    vertex 525.6114891898418 233.44658920768094 5.000000000000055
    vertex 515.6114891898419 233.53177464195826 5.647047612756364
    vertex 525.6114891898418 233.53177464195826 5.647047612756364
  endloop
endfacet
facet normal 0.0 0.9238795325112849 -0.3826834323650946
  outer loop
    vertex 515.6114891898419 233.78152569821984 6.250000000000066
    vertex 525.6114891898418 233.53177464195826 5.647047612756364
    vertex 515.6114891898419 233.53177464195826 5.647047612756364
  endloop
endfacet
facet normal 0.0 0.9238795325112849 -0.3826834323650946
  outer loop
    vertex 525.6114891898418 233.53177464195826 5.647047612756364
    vertex 515.6114891898419 233.78152569821984 6.250000000000066
    vertex 525.6114891898418 233.78152569821984 6.250000000000066
  endloop
endfacet
facet normal 0.0 0.7933533402912496 -0.6087614290087017
  outer loop
    vertex 515.6114891898419 234.17882225471456 6.767766952966437
    vertex 525.6114891898418 233.78152569821984 6.250000000000066
    vertex 515.6114891898419 233.78152569821984 6.250000000000066
  endloop
endfacet
facet normal 0.0 0.7933533402912496 -0.6087614290087017
  outer loop
    vertex 525.6114891898418 233.78152569821984 6.250000000000066
    vertex 515.6114891898419 234.17882225471456 6.767766952966437
    vertex 525.6114891898418 234.17882225471456 6.767766952966437
  endloop
endfacet
facet normal 0.0 0.6087614290086931 -0.7933533402912564
  outer loop
    vertex 525.6114891898418 234.69658920768097 7.165063509461167
    vertex 515.6114891898419 234.17882225471456 6.767766952966437
    vertex 515.6114891898419 234.69658920768097 7.165063509461167
  endloop
endfacet
facet normal 0.0 0.6087614290086931 -0.7933533402912564
  outer loop
    vertex 515.6114891898419 234.17882225471456 6.767766952966437
    vertex 525.6114891898418 234.69658920768097 7.165063509461167
    vertex 525.6114891898418 234.17882225471456 6.767766952966437
  endloop
endfacet
facet normal 0.0 0.38268343236509395 -0.9238795325112851
  outer loop
    vertex 525.6114891898418 235.29954159492465 7.414814565722744
    vertex 515.6114891898419 234.69658920768097 7.165063509461167
    vertex 515.6114891898419 235.29954159492465 7.414814565722744
  endloop
endfacet
facet normal 0.0 0.38268343236509395 -0.9238795325112851
  outer loop
    vertex 515.6114891898419 234.69658920768097 7.165063509461167
    vertex 525.6114891898418 235.29954159492465 7.414814565722744
    vertex 525.6114891898418 234.69658920768097 7.165063509461167
  endloop
endfacet
endsolid BaseBoxRobotArm
