solid BaseBoxRobotArm
facet normal 2.841244242869497e-15 -5.270720265278944e-17 1.0
  outer loop
    vertex 558.4136488265472 9.999999999999977 83.49999999999999
    vertex 538.413648826547 -5.152708353198385e-16 83.50000000000004
    vertex 558.4136488265472 -2.4581611284138653e-15 83.49999999999999
  endloop
endfacet
facet normal 2.841244242869497e-15 -5.270720265278944e-17 1.0
  outer loop
    vertex 538.413648826547 -5.152708353198385e-16 83.50000000000004
    vertex 558.4136488265472 9.999999999999977 83.49999999999999
    vertex 538.413648826547 9.999999999999982 83.50000000000004
  endloop
endfacet
facet normal -2.1277760321600472e-17 5.2707202652789177e-17 -1.0
  outer loop
    vertex 558.4136488265472 7.042710307534854e-16 23.499999999999982
    vertex 578.413648826547 9.99999999999998 23.499999999999982
    vertex 578.413648826547 -1.238619262340545e-15 23.499999999999982
  endloop
endfacet
facet normal -2.1277760321600472e-17 5.2707202652789177e-17 -1.0
  outer loop
    vertex 578.413648826547 9.99999999999998 23.499999999999982
    vertex 558.4136488265472 7.042710307534854e-16 23.499999999999982
    vertex 558.4136488265472 9.99999999999998 23.499999999999982
  endloop
endfacet
facet normal -1.0 9.71445146547012e-17 2.127776032160048e-17
  outer loop
    vertex 558.4136488265472 -3.498730223022976e-16 43.49999999999997
    vertex 558.4136488265472 9.99999999999998 23.499999999999982
    vertex 558.4136488265472 7.042710307534854e-16 23.499999999999982
  endloop
endfacet
facet normal -1.0 9.71445146547012e-17 2.127776032160048e-17
  outer loop
    vertex 558.4136488265472 9.99999999999998 23.499999999999982
    vertex 558.4136488265472 -3.498730223022976e-16 43.49999999999997
    vertex 558.4136488265472 9.999999999999979 43.49999999999997
  endloop
endfacet
facet normal -1.0 9.71445146547012e-17 2.759495214703406e-18
  outer loop
    vertex 448.41364882654705 150.00000000000003 10.000000000000007
    vertex 448.41364882654705 170.00000000000006 8.080161696448338e-15
    vertex 448.41364882654705 150.00000000000003 7.026017643392556e-15
  endloop
endfacet
facet normal -1.0 9.71445146547012e-17 2.759495214703406e-18
  outer loop
    vertex 448.41364882654705 170.00000000000006 8.080161696448338e-15
    vertex 448.41364882654705 150.00000000000003 10.000000000000007
    vertex 448.41364882654705 170.00000000000006 10.000000000000005
  endloop
endfacet
facet normal -1.0 9.71445146547012e-17 2.127776032160048e-17
  outer loop
    vertex 558.4136488265472 -3.512305181469649e-15 103.49999999999999
    vertex 558.4136488265472 9.999999999999977 83.49999999999999
    vertex 558.4136488265472 -2.4581611284138653e-15 83.49999999999999
  endloop
endfacet
facet normal -1.0 9.71445146547012e-17 2.127776032160048e-17
  outer loop
    vertex 558.4136488265472 9.999999999999977 83.49999999999999
    vertex 558.4136488265472 -3.512305181469649e-15 103.49999999999999
    vertex 558.4136488265472 9.999999999999977 103.49999999999999
  endloop
endfacet
facet normal -1.4853642718711617e-16 -1.0 -5.270720265278918e-17
  outer loop
    vertex 388.4136488265471 130.00000000000003 43.50000000000003
    vertex 398.41364882654705 130.00000000000003 23.500000000000043
    vertex 398.41364882654705 130.00000000000003 43.50000000000003
  endloop
endfacet
facet normal -1.4853642718711617e-16 -1.0 -5.270720265278918e-17
  outer loop
    vertex 398.41364882654705 130.00000000000003 23.500000000000043
    vertex 388.4136488265471 130.00000000000003 43.50000000000003
    vertex 388.4136488265471 130.00000000000003 23.500000000000043
  endloop
endfacet
facet normal -2.1277760321600472e-17 5.2707202652789177e-17 -1.0
  outer loop
    vertex 538.413648826547 9.999999999999982 43.49999999999997
    vertex 558.4136488265472 -3.498730223022976e-16 43.49999999999997
    vertex 538.413648826547 1.5930172707917315e-15 43.49999999999997
  endloop
endfacet
facet normal -2.1277760321600472e-17 5.2707202652789177e-17 -1.0
  outer loop
    vertex 558.4136488265472 -3.498730223022976e-16 43.49999999999997
    vertex 538.413648826547 9.999999999999982 43.49999999999997
    vertex 558.4136488265472 9.999999999999979 43.49999999999997
  endloop
endfacet
facet normal 1.0 -9.71445146547012e-17 -2.127776032160048e-17
  outer loop
    vertex 538.413648826547 59.99999999999998 10.000000000000004
    vertex 538.413648826547 3.885780586188049e-15 4.254855022899878e-15
    vertex 538.413648826547 59.99999999999998 4.597320699519334e-15
  endloop
endfacet
facet normal 1.0 -9.71445146547012e-17 -2.127776032160048e-17
  outer loop
    vertex 538.413648826547 3.885780586188049e-15 4.254855022899878e-15
    vertex 538.413648826547 59.99999999999998 10.000000000000004
    vertex 538.413648826547 9.999999999999986 10.000000000000004
  endloop
endfacet
facet normal 1.0 -9.71445146547012e-17 -2.127776032160048e-17
  outer loop
    vertex 538.413648826547 3.885780586188049e-15 4.254855022899878e-15
    vertex 538.413648826547 9.999999999999986 10.000000000000004
    vertex 538.413648826547 1.5930172707917315e-15 43.49999999999997
  endloop
endfacet
facet normal 1.0 -9.71445146547012e-17 -2.127776032160048e-17
  outer loop
    vertex 538.413648826547 1.5930172707917315e-15 43.49999999999997
    vertex 538.413648826547 9.999999999999986 10.000000000000004
    vertex 538.413648826547 9.999999999999982 43.49999999999997
  endloop
endfacet
facet normal -9.71445146547012e-17 -1.0 -5.2707202652789177e-17
  outer loop
    vertex 538.413648826547 -5.152708353198385e-16 83.50000000000004
    vertex 558.4136488265472 -3.498730223022976e-16 43.49999999999997
    vertex 558.4136488265472 -2.4581611284138653e-15 83.49999999999999
  endloop
endfacet
facet normal -9.71445146547012e-17 -1.0 -5.2707202652789177e-17
  outer loop
    vertex 558.4136488265472 -3.498730223022976e-16 43.49999999999997
    vertex 538.413648826547 -5.152708353198385e-16 83.50000000000004
    vertex 538.413648826547 1.5930172707917315e-15 43.49999999999997
  endloop
endfacet
facet normal -9.71445146547012e-17 -1.0 -5.2707202652789177e-17
  outer loop
    vertex 558.4136488265472 -3.512305181469649e-15 103.49999999999999
    vertex 578.413648826547 -1.238619262340545e-15 23.499999999999982
    vertex 578.413648826547 -5.4551954745636795e-15 103.49999999999999
  endloop
endfacet
facet normal -9.71445146547012e-17 -1.0 -5.2707202652789177e-17
  outer loop
    vertex 578.413648826547 -1.238619262340545e-15 23.499999999999982
    vertex 558.4136488265472 -3.512305181469649e-15 103.49999999999999
    vertex 558.4136488265472 7.042710307534854e-16 23.499999999999982
  endloop
endfacet
facet normal -9.71445146547012e-17 -1.0 -5.2707202652789177e-17
  outer loop
    vertex 558.4136488265472 7.042710307534854e-16 23.499999999999982
    vertex 558.4136488265472 -3.512305181469649e-15 103.49999999999999
    vertex 558.4136488265472 -2.4581611284138653e-15 83.49999999999999
  endloop
endfacet
facet normal -9.71445146547012e-17 -1.0 -5.2707202652789177e-17
  outer loop
    vertex 558.4136488265472 7.042710307534854e-16 23.499999999999982
    vertex 558.4136488265472 -2.4581611284138653e-15 83.49999999999999
    vertex 558.4136488265472 -3.498730223022976e-16 43.49999999999997
  endloop
endfacet
facet normal 2.1277760321600472e-17 -5.2707202652789177e-17 1.0
  outer loop
    vertex 398.41364882654705 150.00000000000003 43.50000000000003
    vertex 388.4136488265471 130.00000000000003 43.50000000000003
    vertex 398.41364882654705 130.00000000000003 43.50000000000003
  endloop
endfacet
facet normal 2.1277760321600472e-17 -5.2707202652789177e-17 1.0
  outer loop
    vertex 388.4136488265471 130.00000000000003 43.50000000000003
    vertex 398.41364882654705 150.00000000000003 43.50000000000003
    vertex 388.4136488265471 150.00000000000003 43.50000000000003
  endloop
endfacet
facet normal -1.0 8.626394001870589e-17 1.0432428234604696e-18
  outer loop
    vertex 388.4136488265471 1.8457457784393227e-14 7.446519071139952e-15
    vertex 388.4136488265471 110.00000000000003 23.500000000000036
    vertex 388.4136488265471 150.00000000000003 1.5352599469058333e-14
  endloop
endfacet
facet normal -1.0 8.626394001870589e-17 1.0432428234604696e-18
  outer loop
    vertex 388.4136488265471 110.00000000000003 23.500000000000036
    vertex 388.4136488265471 1.8457457784393227e-14 7.446519071139952e-15
    vertex 388.4136488265471 1.2290715074016898e-14 116.99999999999991
  endloop
endfacet
facet normal -1.0 8.626394001870589e-17 1.0432428234604696e-18
  outer loop
    vertex 388.4136488265471 110.00000000000003 23.500000000000036
    vertex 388.4136488265471 1.2290715074016898e-14 116.99999999999991
    vertex 388.4136488265471 110.00000000000003 103.50000000000001
  endloop
endfacet
facet normal -1.0 8.626394001870589e-17 1.0432428234604696e-18
  outer loop
    vertex 388.4136488265471 110.00000000000003 103.50000000000001
    vertex 388.4136488265471 1.2290715074016898e-14 116.99999999999991
    vertex 388.4136488265471 130.00000000000003 103.50000000000001
  endloop
endfacet
facet normal -1.0 8.626394001870589e-17 1.0432428234604696e-18
  outer loop
    vertex 388.4136488265471 130.00000000000003 103.50000000000001
    vertex 388.4136488265471 150.00000000000003 83.50000000000004
    vertex 388.4136488265471 130.00000000000003 83.50000000000004
  endloop
endfacet
facet normal -1.0 8.626394001870589e-17 1.0432428234604696e-18
  outer loop
    vertex 388.4136488265471 150.00000000000003 83.50000000000004
    vertex 388.4136488265471 130.00000000000003 103.50000000000001
    vertex 388.4136488265471 150.00000000000003 116.99999999999997
  endloop
endfacet
facet normal -1.0 8.626394001870589e-17 1.0432428234604696e-18
  outer loop
    vertex 388.4136488265471 150.00000000000003 116.99999999999997
    vertex 388.4136488265471 130.00000000000003 103.50000000000001
    vertex 388.4136488265471 1.2290715074016898e-14 116.99999999999991
  endloop
endfacet
facet normal -1.0 8.626394001870589e-17 1.0432428234604696e-18
  outer loop
    vertex 388.4136488265471 150.00000000000003 1.5352599469058333e-14
    vertex 388.4136488265471 130.00000000000003 23.500000000000043
    vertex 388.4136488265471 150.00000000000003 43.50000000000003
  endloop
endfacet
facet normal -1.0 8.626394001870589e-17 1.0432428234604696e-18
  outer loop
    vertex 388.4136488265471 130.00000000000003 23.500000000000043
    vertex 388.4136488265471 150.00000000000003 1.5352599469058333e-14
    vertex 388.4136488265471 110.00000000000003 23.500000000000036
  endloop
endfacet
facet normal -1.0 8.626394001870589e-17 1.0432428234604696e-18
  outer loop
    vertex 388.4136488265471 150.00000000000003 43.50000000000003
    vertex 388.4136488265471 130.00000000000003 23.500000000000043
    vertex 388.4136488265471 130.00000000000003 43.50000000000003
  endloop
endfacet
facet normal -2.1277760321600472e-17 5.2707202652789177e-17 -1.0
  outer loop
    vertex 388.4136488265471 150.00000000000003 83.50000000000004
    vertex 398.41364882654705 130.00000000000003 83.50000000000004
    vertex 388.4136488265471 130.00000000000003 83.50000000000004
  endloop
endfacet
facet normal -2.1277760321600472e-17 5.2707202652789177e-17 -1.0
  outer loop
    vertex 398.41364882654705 130.00000000000003 83.50000000000004
    vertex 388.4136488265471 150.00000000000003 83.50000000000004
    vertex 398.41364882654705 150.00000000000003 83.50000000000004
  endloop
endfacet
facet normal -1.5816619878806748e-16 -4.518540136094192e-16 1.0
  outer loop
    vertex 538.413648826547 9.99999999999998 116.99999999999994
    vertex 388.4136488265471 1.2290715074016898e-14 116.99999999999991
    vertex 538.413648826547 -2.2809621241882825e-15 116.99999999999997
  endloop
endfacet
facet normal -1.5816619878806748e-16 -4.518540136094192e-16 1.0
  outer loop
    vertex 388.4136488265471 1.2290715074016898e-14 116.99999999999991
    vertex 538.413648826547 9.99999999999998 116.99999999999994
    vertex 398.41364882654705 9.999999999999991 116.99999999999991
  endloop
endfacet
facet normal -1.5816619878806748e-16 -4.518540136094192e-16 1.0
  outer loop
    vertex 398.41364882654705 9.999999999999991 116.99999999999991
    vertex 388.4136488265471 150.00000000000003 116.99999999999997
    vertex 388.4136488265471 1.2290715074016898e-14 116.99999999999991
  endloop
endfacet
facet normal -1.5816619878806748e-16 -4.518540136094192e-16 1.0
  outer loop
    vertex 388.4136488265471 150.00000000000003 116.99999999999997
    vertex 398.41364882654705 9.999999999999991 116.99999999999991
    vertex 398.41364882654705 150.00000000000003 117.00000000000009
  endloop
endfacet
facet normal 2.7594952147034028e-18 -3.127423453028631e-17 1.0
  outer loop
    vertex 538.413648826547 59.99999999999998 10.000000000000004
    vertex 518.413648826547 39.99999999999998 10.000000000000002
    vertex 538.413648826547 9.999999999999986 10.000000000000004
  endloop
endfacet
facet normal 2.7594952147034028e-18 -3.127423453028631e-17 1.0
  outer loop
    vertex 518.413648826547 39.99999999999998 10.000000000000002
    vertex 538.413648826547 59.99999999999998 10.000000000000004
    vertex 518.4136488265472 59.99999999999999 10.000000000000004
  endloop
endfacet
facet normal 2.7594952147034028e-18 -3.127423453028631e-17 1.0
  outer loop
    vertex 538.413648826547 150.0 10.000000000000004
    vertex 518.4136488265472 100.00000000000001 10.000000000000004
    vertex 538.413648826547 100.0 10.000000000000002
  endloop
endfacet
facet normal 2.7594952147034028e-18 -3.127423453028631e-17 1.0
  outer loop
    vertex 518.4136488265472 100.00000000000001 10.000000000000004
    vertex 538.413648826547 150.0 10.000000000000004
    vertex 518.4136488265472 119.99999999999996 10.000000000000005
  endloop
endfacet
facet normal 2.7594952147034028e-18 -3.127423453028631e-17 1.0
  outer loop
    vertex 518.4136488265472 119.99999999999996 10.000000000000005
    vertex 538.413648826547 150.0 10.000000000000004
    vertex 498.41364882654705 119.99999999999996 10.000000000000009
  endloop
endfacet
facet normal 2.7594952147034028e-18 -3.127423453028631e-17 1.0
  outer loop
    vertex 508.4136488265471 190.0 10.000000000000007
    vertex 488.41364882654705 170.0 10.000000000000007
    vertex 508.4136488265471 170.0 10.000000000000004
  endloop
endfacet
facet normal 2.7594952147034028e-18 -3.127423453028631e-17 1.0
  outer loop
    vertex 488.41364882654705 170.0 10.000000000000007
    vertex 508.4136488265471 190.0 10.000000000000007
    vertex 448.41364882654705 170.00000000000006 10.000000000000005
  endloop
endfacet
facet normal 2.7594952147034028e-18 -3.127423453028631e-17 1.0
  outer loop
    vertex 448.41364882654705 170.00000000000006 10.000000000000005
    vertex 508.4136488265471 190.0 10.000000000000007
    vertex 428.4136488265471 170.00000000000006 10.000000000000009
  endloop
endfacet
facet normal 2.7594952147034028e-18 -3.127423453028631e-17 1.0
  outer loop
    vertex 428.4136488265471 170.00000000000006 10.000000000000009
    vertex 508.4136488265471 190.0 10.000000000000007
    vertex 428.4136488265471 190.00000000000006 10.000000000000007
  endloop
endfacet
facet normal 2.7594952147034028e-18 -3.127423453028631e-17 1.0
  outer loop
    vertex 488.41364882654705 170.0 10.000000000000007
    vertex 448.41364882654705 150.00000000000003 10.000000000000007
    vertex 488.41364882654705 150.0 10.000000000000005
  endloop
endfacet
facet normal 2.7594952147034028e-18 -3.127423453028631e-17 1.0
  outer loop
    vertex 448.41364882654705 150.00000000000003 10.000000000000007
    vertex 488.41364882654705 170.0 10.000000000000007
    vertex 448.41364882654705 170.00000000000006 10.000000000000005
  endloop
endfacet
facet normal 2.7594952147034028e-18 -3.127423453028631e-17 1.0
  outer loop
    vertex 398.41364882654705 9.999999999999996 10.0
    vertex 498.41364882654705 39.99999999999998 10.000000000000004
    vertex 398.41364882654705 150.00000000000003 10.000000000000005
  endloop
endfacet
facet normal 2.7594952147034028e-18 -3.127423453028631e-17 1.0
  outer loop
    vertex 498.41364882654705 39.99999999999998 10.000000000000004
    vertex 398.41364882654705 9.999999999999996 10.0
    vertex 538.413648826547 9.999999999999986 10.000000000000004
  endloop
endfacet
facet normal 2.7594952147034028e-18 -3.127423453028631e-17 1.0
  outer loop
    vertex 498.41364882654705 39.99999999999998 10.000000000000004
    vertex 538.413648826547 9.999999999999986 10.000000000000004
    vertex 518.413648826547 39.99999999999998 10.000000000000002
  endloop
endfacet
facet normal 2.7594952147034028e-18 -3.127423453028631e-17 1.0
  outer loop
    vertex 398.41364882654705 150.00000000000003 10.000000000000005
    vertex 498.41364882654705 39.99999999999998 10.000000000000004
    vertex 498.41364882654705 119.99999999999996 10.000000000000009
  endloop
endfacet
facet normal 2.7594952147034028e-18 -3.127423453028631e-17 1.0
  outer loop
    vertex 398.41364882654705 150.00000000000003 10.000000000000005
    vertex 498.41364882654705 119.99999999999996 10.000000000000009
    vertex 488.41364882654705 150.0 10.000000000000005
  endloop
endfacet
facet normal 2.7594952147034028e-18 -3.127423453028631e-17 1.0
  outer loop
    vertex 488.41364882654705 150.0 10.000000000000005
    vertex 498.41364882654705 119.99999999999996 10.000000000000009
    vertex 538.413648826547 150.0 10.000000000000004
  endloop
endfacet
facet normal 2.7594952147034028e-18 -3.127423453028631e-17 1.0
  outer loop
    vertex 398.41364882654705 150.00000000000003 10.000000000000005
    vertex 488.41364882654705 150.0 10.000000000000005
    vertex 448.41364882654705 150.00000000000003 10.000000000000007
  endloop
endfacet
facet normal 9.71445146547012e-17 1.0 5.2707202652789177e-17
  outer loop
    vertex 388.4136488265471 150.00000000000003 83.50000000000004
    vertex 398.41364882654705 150.00000000000003 117.00000000000009
    vertex 398.41364882654705 150.00000000000003 83.50000000000004
  endloop
endfacet
facet normal 9.71445146547012e-17 1.0 5.2707202652789177e-17
  outer loop
    vertex 398.41364882654705 150.00000000000003 117.00000000000009
    vertex 388.4136488265471 150.00000000000003 83.50000000000004
    vertex 388.4136488265471 150.00000000000003 116.99999999999997
  endloop
endfacet
facet normal 9.71445146547012e-17 1.0 5.2707202652789177e-17
  outer loop
    vertex 388.4136488265471 150.00000000000003 1.5352599469058333e-14
    vertex 448.41364882654705 150.00000000000003 10.000000000000007
    vertex 448.41364882654705 150.00000000000003 7.026017643392556e-15
  endloop
endfacet
facet normal 9.71445146547012e-17 1.0 5.2707202652789177e-17
  outer loop
    vertex 448.41364882654705 150.00000000000003 10.000000000000007
    vertex 388.4136488265471 150.00000000000003 1.5352599469058333e-14
    vertex 398.41364882654705 150.00000000000003 10.000000000000005
  endloop
endfacet
facet normal 9.71445146547012e-17 1.0 5.2707202652789177e-17
  outer loop
    vertex 398.41364882654705 150.00000000000003 10.000000000000005
    vertex 388.4136488265471 150.00000000000003 1.5352599469058333e-14
    vertex 398.41364882654705 150.00000000000003 43.50000000000003
  endloop
endfacet
facet normal 9.71445146547012e-17 1.0 5.2707202652789177e-17
  outer loop
    vertex 398.41364882654705 150.00000000000003 43.50000000000003
    vertex 388.4136488265471 150.00000000000003 1.5352599469058333e-14
    vertex 388.4136488265471 150.00000000000003 43.50000000000003
  endloop
endfacet
facet normal 2.127776032160048e-17 -5.2707202652789177e-17 1.0
  outer loop
    vertex 398.41364882654705 130.00000000000003 23.500000000000043
    vertex 388.4136488265471 110.00000000000003 23.500000000000036
    vertex 398.41364882654705 110.00000000000003 23.500000000000036
  endloop
endfacet
facet normal 2.127776032160048e-17 -5.2707202652789177e-17 1.0
  outer loop
    vertex 388.4136488265471 110.00000000000003 23.500000000000036
    vertex 398.41364882654705 130.00000000000003 23.500000000000043
    vertex 388.4136488265471 130.00000000000003 23.500000000000043
  endloop
endfacet
facet normal -2.127776032160048e-17 5.2707202652789177e-17 -1.0
  outer loop
    vertex 388.4136488265471 130.00000000000003 103.50000000000001
    vertex 398.41364882654705 110.00000000000003 103.50000000000001
    vertex 388.4136488265471 110.00000000000003 103.50000000000001
  endloop
endfacet
facet normal -2.127776032160048e-17 5.2707202652789177e-17 -1.0
  outer loop
    vertex 398.41364882654705 110.00000000000003 103.50000000000001
    vertex 388.4136488265471 130.00000000000003 103.50000000000001
    vertex 398.41364882654705 130.00000000000003 103.50000000000001
  endloop
endfacet
facet normal -1.4853642718711617e-16 -1.0 -5.270720265278918e-17
  outer loop
    vertex 388.4136488265471 130.00000000000003 103.50000000000001
    vertex 398.41364882654705 130.00000000000003 83.50000000000004
    vertex 398.41364882654705 130.00000000000003 103.50000000000001
  endloop
endfacet
facet normal -1.4853642718711617e-16 -1.0 -5.270720265278918e-17
  outer loop
    vertex 398.41364882654705 130.00000000000003 83.50000000000004
    vertex 388.4136488265471 130.00000000000003 103.50000000000001
    vertex 388.4136488265471 130.00000000000003 83.50000000000004
  endloop
endfacet
facet normal 1.0 -9.71445146547012e-17 -2.127776032160048e-17
  outer loop
    vertex 538.413648826547 9.99999999999998 116.99999999999994
    vertex 538.413648826547 -5.152708353198385e-16 83.50000000000004
    vertex 538.413648826547 9.999999999999982 83.50000000000004
  endloop
endfacet
facet normal 1.0 -9.71445146547012e-17 -2.127776032160048e-17
  outer loop
    vertex 538.413648826547 -5.152708353198385e-16 83.50000000000004
    vertex 538.413648826547 9.99999999999998 116.99999999999994
    vertex 538.413648826547 -2.2809621241882825e-15 116.99999999999997
  endloop
endfacet
facet normal 2.1277760321600472e-17 -5.2707202652789177e-17 1.0
  outer loop
    vertex 578.413648826547 9.999999999999977 103.49999999999999
    vertex 558.4136488265472 -3.512305181469649e-15 103.49999999999999
    vertex 578.413648826547 -5.4551954745636795e-15 103.49999999999999
  endloop
endfacet
facet normal 2.1277760321600472e-17 -5.2707202652789177e-17 1.0
  outer loop
    vertex 558.4136488265472 -3.512305181469649e-15 103.49999999999999
    vertex 578.413648826547 9.999999999999977 103.49999999999999
    vertex 558.4136488265472 9.999999999999977 103.49999999999999
  endloop
endfacet
facet normal 1.0 -9.71445146547012e-17 -2.127776032160048e-17
  outer loop
    vertex 578.413648826547 9.999999999999977 103.49999999999999
    vertex 578.413648826547 -1.238619262340545e-15 23.499999999999982
    vertex 578.413648826547 9.99999999999998 23.499999999999982
  endloop
endfacet
facet normal 1.0 -9.71445146547012e-17 -2.127776032160048e-17
  outer loop
    vertex 578.413648826547 -1.238619262340545e-15 23.499999999999982
    vertex 578.413648826547 9.999999999999977 103.49999999999999
    vertex 578.413648826547 -5.4551954745636795e-15 103.49999999999999
  endloop
endfacet
facet normal -9.71445146547012e-17 -1.0 -5.2707202652789177e-17
  outer loop
    vertex 388.4136488265471 1.2290715074016898e-14 116.99999999999991
    vertex 538.413648826547 -5.152708353198385e-16 83.50000000000004
    vertex 538.413648826547 -2.2809621241882825e-15 116.99999999999997
  endloop
endfacet
facet normal -9.71445146547012e-17 -1.0 -5.2707202652789177e-17
  outer loop
    vertex 538.413648826547 -5.152708353198385e-16 83.50000000000004
    vertex 388.4136488265471 1.2290715074016898e-14 116.99999999999991
    vertex 538.413648826547 1.5930172707917315e-15 43.49999999999997
  endloop
endfacet
facet normal -9.71445146547012e-17 -1.0 -5.2707202652789177e-17
  outer loop
    vertex 538.413648826547 1.5930172707917315e-15 43.49999999999997
    vertex 388.4136488265471 1.2290715074016898e-14 116.99999999999991
    vertex 538.413648826547 3.885780586188049e-15 4.254855022899878e-15
  endloop
endfacet
facet normal -9.71445146547012e-17 -1.0 -5.2707202652789177e-17
  outer loop
    vertex 538.413648826547 3.885780586188049e-15 4.254855022899878e-15
    vertex 388.4136488265471 1.2290715074016898e-14 116.99999999999991
    vertex 388.4136488265471 1.8457457784393227e-14 7.446519071139952e-15
  endloop
endfacet
facet normal 1.4853642718711617e-16 1.0 5.270720265278918e-17
  outer loop
    vertex 388.4136488265471 110.00000000000003 23.500000000000036
    vertex 398.41364882654705 110.00000000000003 103.50000000000001
    vertex 398.41364882654705 110.00000000000003 23.500000000000036
  endloop
endfacet
facet normal 1.4853642718711617e-16 1.0 5.270720265278918e-17
  outer loop
    vertex 398.41364882654705 110.00000000000003 103.50000000000001
    vertex 388.4136488265471 110.00000000000003 23.500000000000036
    vertex 388.4136488265471 110.00000000000003 103.50000000000001
  endloop
endfacet
facet normal 1.0 -5.0088853851419915e-17 -9.642081869008126e-18
  outer loop
    vertex 398.41364882654705 150.00000000000003 10.000000000000005
    vertex 398.41364882654705 130.00000000000003 23.500000000000043
    vertex 398.41364882654705 9.999999999999996 10.0
  endloop
endfacet
facet normal 1.0 -5.0088853851419915e-17 -9.642081869008126e-18
  outer loop
    vertex 398.41364882654705 130.00000000000003 23.500000000000043
    vertex 398.41364882654705 150.00000000000003 10.000000000000005
    vertex 398.41364882654705 150.00000000000003 43.50000000000003
  endloop
endfacet
facet normal 1.0 -5.0088853851419915e-17 -9.642081869008126e-18
  outer loop
    vertex 398.41364882654705 9.999999999999996 10.0
    vertex 398.41364882654705 130.00000000000003 23.500000000000043
    vertex 398.41364882654705 110.00000000000003 23.500000000000036
  endloop
endfacet
facet normal 1.0 -5.0088853851419915e-17 -9.642081869008126e-18
  outer loop
    vertex 398.41364882654705 130.00000000000003 23.500000000000043
    vertex 398.41364882654705 150.00000000000003 43.50000000000003
    vertex 398.41364882654705 130.00000000000003 43.50000000000003
  endloop
endfacet
facet normal 1.0 -5.0088853851419915e-17 -9.642081869008126e-18
  outer loop
    vertex 398.41364882654705 150.00000000000003 117.00000000000009
    vertex 398.41364882654705 130.00000000000003 83.50000000000004
    vertex 398.41364882654705 150.00000000000003 83.50000000000004
  endloop
endfacet
facet normal 1.0 -5.0088853851419915e-17 -9.642081869008126e-18
  outer loop
    vertex 398.41364882654705 130.00000000000003 83.50000000000004
    vertex 398.41364882654705 150.00000000000003 117.00000000000009
    vertex 398.41364882654705 130.00000000000003 103.50000000000001
  endloop
endfacet
facet normal 1.0 -5.0088853851419915e-17 -9.642081869008126e-18
  outer loop
    vertex 398.41364882654705 130.00000000000003 103.50000000000001
    vertex 398.41364882654705 150.00000000000003 117.00000000000009
    vertex 398.41364882654705 110.00000000000003 103.50000000000001
  endloop
endfacet
facet normal 1.0 -5.0088853851419915e-17 -9.642081869008126e-18
  outer loop
    vertex 398.41364882654705 110.00000000000003 103.50000000000001
    vertex 398.41364882654705 150.00000000000003 117.00000000000009
    vertex 398.41364882654705 9.999999999999991 116.99999999999991
  endloop
endfacet
facet normal 1.0 -5.0088853851419915e-17 -9.642081869008126e-18
  outer loop
    vertex 398.41364882654705 110.00000000000003 23.500000000000036
    vertex 398.41364882654705 9.999999999999991 116.99999999999991
    vertex 398.41364882654705 9.999999999999996 10.0
  endloop
endfacet
facet normal 1.0 -5.0088853851419915e-17 -9.642081869008126e-18
  outer loop
    vertex 398.41364882654705 9.999999999999991 116.99999999999991
    vertex 398.41364882654705 110.00000000000003 23.500000000000036
    vertex 398.41364882654705 110.00000000000003 103.50000000000001
  endloop
endfacet
facet normal -9.71445146547012e-17 -1.0 -3.127423453028631e-17
  outer loop
    vertex 488.41364882654705 170.0 10.000000000000007
    vertex 508.4136488265471 170.0 6.8034960771523124e-15
    vertex 508.4136488265471 170.0 10.000000000000004
  endloop
endfacet
facet normal -9.71445146547012e-17 -1.0 -3.127423453028631e-17
  outer loop
    vertex 508.4136488265471 170.0 6.8034960771523124e-15
    vertex 488.41364882654705 170.0 10.000000000000007
    vertex 488.41364882654705 170.0 7.229051283584322e-15
  endloop
endfacet
facet normal -1.0 9.71445146547012e-17 2.759495214703409e-18
  outer loop
    vertex 518.4136488265472 100.00000000000001 10.000000000000004
    vertex 518.4136488265472 119.99999999999996 8.185308065118691e-15
    vertex 518.4136488265472 100.00000000000001 4.31119752951501e-15
  endloop
endfacet
facet normal -1.0 9.71445146547012e-17 2.759495214703409e-18
  outer loop
    vertex 518.4136488265472 119.99999999999996 8.185308065118691e-15
    vertex 518.4136488265472 100.00000000000001 10.000000000000004
    vertex 518.4136488265472 119.99999999999996 10.000000000000005
  endloop
endfacet
facet normal -1.0 9.71445146547012e-17 2.759495214703406e-18
  outer loop
    vertex 428.4136488265471 170.00000000000006 10.000000000000009
    vertex 428.4136488265471 190.00000000000006 9.559860955936133e-15
    vertex 428.4136488265471 170.00000000000006 8.505716902880348e-15
  endloop
endfacet
facet normal -1.0 9.71445146547012e-17 2.759495214703406e-18
  outer loop
    vertex 428.4136488265471 190.00000000000006 9.559860955936133e-15
    vertex 428.4136488265471 170.00000000000006 10.000000000000009
    vertex 428.4136488265471 190.00000000000006 10.000000000000007
  endloop
endfacet
facet normal -9.71445146547012e-17 -1.0 -3.127423453028631e-17
  outer loop
    vertex 518.4136488265472 100.00000000000001 10.000000000000004
    vertex 538.413648826547 100.0 3.885642323083e-15
    vertex 538.413648826547 100.0 10.000000000000002
  endloop
endfacet
facet normal -9.71445146547012e-17 -1.0 -3.127423453028631e-17
  outer loop
    vertex 538.413648826547 100.0 3.885642323083e-15
    vertex 518.4136488265472 100.00000000000001 10.000000000000004
    vertex 518.4136488265472 100.00000000000001 4.31119752951501e-15
  endloop
endfacet
facet normal 9.71445146547012e-17 1.0 3.127423453028631e-17
  outer loop
    vertex 498.41364882654705 39.99999999999998 4.394287059327569e-15
    vertex 518.413648826547 39.99999999999998 10.000000000000002
    vertex 518.413648826547 39.99999999999998 3.9687318528955595e-15
  endloop
endfacet
facet normal 9.71445146547012e-17 1.0 3.127423453028631e-17
  outer loop
    vertex 518.413648826547 39.99999999999998 10.000000000000002
    vertex 498.41364882654705 39.99999999999998 4.394287059327569e-15
    vertex 498.41364882654705 39.99999999999998 10.000000000000004
  endloop
endfacet
facet normal 9.71445146547012e-17 1.0 3.127423453028631e-17
  outer loop
    vertex 488.41364882654705 150.0 6.174907230528538e-15
    vertex 538.413648826547 150.0 10.000000000000004
    vertex 538.413648826547 150.0 5.111019214448514e-15
  endloop
endfacet
facet normal 9.71445146547012e-17 1.0 3.127423453028631e-17
  outer loop
    vertex 538.413648826547 150.0 10.000000000000004
    vertex 488.41364882654705 150.0 6.174907230528538e-15
    vertex 488.41364882654705 150.0 10.000000000000005
  endloop
endfacet
facet normal 9.71445146547012e-17 1.0 5.2707202652789177e-17
  outer loop
    vertex 398.41364882654705 9.999999999999996 10.0
    vertex 538.413648826547 9.999999999999982 43.49999999999997
    vertex 538.413648826547 9.999999999999986 10.000000000000004
  endloop
endfacet
facet normal 9.71445146547012e-17 1.0 5.2707202652789177e-17
  outer loop
    vertex 538.413648826547 9.999999999999982 43.49999999999997
    vertex 398.41364882654705 9.999999999999996 10.0
    vertex 538.413648826547 9.999999999999982 83.50000000000004
  endloop
endfacet
facet normal 9.71445146547012e-17 1.0 5.2707202652789177e-17
  outer loop
    vertex 538.413648826547 9.999999999999982 83.50000000000004
    vertex 398.41364882654705 9.999999999999996 10.0
    vertex 538.413648826547 9.99999999999998 116.99999999999994
  endloop
endfacet
facet normal 9.71445146547012e-17 1.0 5.2707202652789177e-17
  outer loop
    vertex 538.413648826547 9.99999999999998 116.99999999999994
    vertex 398.41364882654705 9.999999999999996 10.0
    vertex 398.41364882654705 9.999999999999991 116.99999999999991
  endloop
endfacet
facet normal 9.71445146547012e-17 1.0 5.2707202652789177e-17
  outer loop
    vertex 538.413648826547 9.999999999999982 43.49999999999997
    vertex 558.4136488265472 9.999999999999977 83.49999999999999
    vertex 558.4136488265472 9.999999999999979 43.49999999999997
  endloop
endfacet
facet normal 9.71445146547012e-17 1.0 5.2707202652789177e-17
  outer loop
    vertex 558.4136488265472 9.999999999999977 83.49999999999999
    vertex 538.413648826547 9.999999999999982 43.49999999999997
    vertex 538.413648826547 9.999999999999982 83.50000000000004
  endloop
endfacet
facet normal 9.71445146547012e-17 1.0 5.2707202652789177e-17
  outer loop
    vertex 558.4136488265472 9.99999999999998 23.499999999999982
    vertex 578.413648826547 9.999999999999977 103.49999999999999
    vertex 578.413648826547 9.99999999999998 23.499999999999982
  endloop
endfacet
facet normal 9.71445146547012e-17 1.0 5.2707202652789177e-17
  outer loop
    vertex 578.413648826547 9.999999999999977 103.49999999999999
    vertex 558.4136488265472 9.99999999999998 23.499999999999982
    vertex 558.4136488265472 9.999999999999977 103.49999999999999
  endloop
endfacet
facet normal 9.71445146547012e-17 1.0 5.2707202652789177e-17
  outer loop
    vertex 558.4136488265472 9.999999999999977 103.49999999999999
    vertex 558.4136488265472 9.99999999999998 23.499999999999982
    vertex 558.4136488265472 9.999999999999979 43.49999999999997
  endloop
endfacet
facet normal 9.71445146547012e-17 1.0 5.2707202652789177e-17
  outer loop
    vertex 558.4136488265472 9.999999999999977 103.49999999999999
    vertex 558.4136488265472 9.999999999999979 43.49999999999997
    vertex 558.4136488265472 9.999999999999977 83.49999999999999
  endloop
endfacet
facet normal 1.0 -9.71445146547012e-17 -2.759495214703406e-18
  outer loop
    vertex 488.41364882654705 170.0 10.000000000000007
    vertex 488.41364882654705 150.0 6.174907230528538e-15
    vertex 488.41364882654705 170.0 7.229051283584322e-15
  endloop
endfacet
facet normal 1.0 -9.71445146547012e-17 -2.759495214703406e-18
  outer loop
    vertex 488.41364882654705 150.0 6.174907230528538e-15
    vertex 488.41364882654705 170.0 10.000000000000007
    vertex 488.41364882654705 150.0 10.000000000000005
  endloop
endfacet
facet normal -9.71445146547012e-17 -1.0 -3.127423453028631e-17
  outer loop
    vertex 428.4136488265471 170.00000000000006 10.000000000000009
    vertex 448.41364882654705 170.00000000000006 8.080161696448338e-15
    vertex 448.41364882654705 170.00000000000006 10.000000000000005
  endloop
endfacet
facet normal -9.71445146547012e-17 -1.0 -3.127423453028631e-17
  outer loop
    vertex 448.41364882654705 170.00000000000006 8.080161696448338e-15
    vertex 428.4136488265471 170.00000000000006 10.000000000000009
    vertex 428.4136488265471 170.00000000000006 8.505716902880348e-15
  endloop
endfacet
facet normal 9.71445146547012e-17 1.0 3.127423453028631e-17
  outer loop
    vertex 428.4136488265471 190.00000000000006 9.559860955936133e-15
    vertex 508.4136488265471 190.0 10.000000000000007
    vertex 508.4136488265471 190.0 7.857640130208096e-15
  endloop
endfacet
facet normal 9.71445146547012e-17 1.0 3.127423453028631e-17
  outer loop
    vertex 508.4136488265471 190.0 10.000000000000007
    vertex 428.4136488265471 190.00000000000006 9.559860955936133e-15
    vertex 428.4136488265471 190.00000000000006 10.000000000000007
  endloop
endfacet
facet normal -9.71445146547012e-17 -1.0 -3.127423453028631e-17
  outer loop
    vertex 498.41364882654705 119.99999999999996 10.000000000000009
    vertex 518.4136488265472 119.99999999999996 8.185308065118691e-15
    vertex 518.4136488265472 119.99999999999996 10.000000000000005
  endloop
endfacet
facet normal -9.71445146547012e-17 -1.0 -3.127423453028631e-17
  outer loop
    vertex 518.4136488265472 119.99999999999996 8.185308065118691e-15
    vertex 498.41364882654705 119.99999999999996 10.000000000000009
    vertex 498.41364882654705 119.99999999999996 8.6108632715507e-15
  endloop
endfacet
facet normal 1.0 -9.71445146547012e-17 -2.759495214703406e-18
  outer loop
    vertex 498.41364882654705 119.99999999999996 10.000000000000009
    vertex 498.41364882654705 39.99999999999998 4.394287059327569e-15
    vertex 498.41364882654705 119.99999999999996 8.6108632715507e-15
  endloop
endfacet
facet normal 1.0 -9.71445146547012e-17 -2.759495214703406e-18
  outer loop
    vertex 498.41364882654705 39.99999999999998 4.394287059327569e-15
    vertex 498.41364882654705 119.99999999999996 10.000000000000009
    vertex 498.41364882654705 39.99999999999998 10.000000000000004
  endloop
endfacet
facet normal -3.699248148719483e-17 1.571472116559435e-17 -1.0
  outer loop
    vertex 428.4136488265471 190.00000000000006 9.559860955936133e-15
    vertex 448.41364882654705 170.00000000000006 8.080161696448338e-15
    vertex 428.4136488265471 170.00000000000006 8.505716902880348e-15
  endloop
endfacet
facet normal -3.699248148719483e-17 1.571472116559435e-17 -1.0
  outer loop
    vertex 448.41364882654705 170.00000000000006 8.080161696448338e-15
    vertex 428.4136488265471 190.00000000000006 9.559860955936133e-15
    vertex 508.4136488265471 190.0 7.857640130208096e-15
  endloop
endfacet
facet normal -3.699248148719483e-17 1.571472116559435e-17 -1.0
  outer loop
    vertex 388.4136488265471 1.8457457784393227e-14 7.446519071139952e-15
    vertex 498.41364882654705 39.99999999999998 4.394287059327569e-15
    vertex 538.413648826547 3.885780586188049e-15 4.254855022899878e-15
  endloop
endfacet
facet normal -3.699248148719483e-17 1.571472116559435e-17 -1.0
  outer loop
    vertex 498.41364882654705 39.99999999999998 4.394287059327569e-15
    vertex 388.4136488265471 1.8457457784393227e-14 7.446519071139952e-15
    vertex 388.4136488265471 150.00000000000003 1.5352599469058333e-14
  endloop
endfacet
facet normal -3.699248148719483e-17 1.571472116559435e-17 -1.0
  outer loop
    vertex 498.41364882654705 39.99999999999998 4.394287059327569e-15
    vertex 388.4136488265471 150.00000000000003 1.5352599469058333e-14
    vertex 498.41364882654705 119.99999999999996 8.6108632715507e-15
  endloop
endfacet
facet normal -3.699248148719483e-17 1.571472116559435e-17 -1.0
  outer loop
    vertex 498.41364882654705 119.99999999999996 8.6108632715507e-15
    vertex 388.4136488265471 150.00000000000003 1.5352599469058333e-14
    vertex 518.4136488265472 119.99999999999996 8.185308065118691e-15
  endloop
endfacet
facet normal -3.699248148719483e-17 1.571472116559435e-17 -1.0
  outer loop
    vertex 518.4136488265472 119.99999999999996 8.185308065118691e-15
    vertex 388.4136488265471 150.00000000000003 1.5352599469058333e-14
    vertex 488.41364882654705 150.0 6.174907230528538e-15
  endloop
endfacet
facet normal -3.699248148719483e-17 1.571472116559435e-17 -1.0
  outer loop
    vertex 488.41364882654705 150.0 6.174907230528538e-15
    vertex 388.4136488265471 150.00000000000003 1.5352599469058333e-14
    vertex 448.41364882654705 150.00000000000003 7.026017643392556e-15
  endloop
endfacet
facet normal -3.699248148719483e-17 1.571472116559435e-17 -1.0
  outer loop
    vertex 488.41364882654705 150.0 6.174907230528538e-15
    vertex 448.41364882654705 150.00000000000003 7.026017643392556e-15
    vertex 488.41364882654705 170.0 7.229051283584322e-15
  endloop
endfacet
facet normal -3.699248148719483e-17 1.571472116559435e-17 -1.0
  outer loop
    vertex 488.41364882654705 170.0 7.229051283584322e-15
    vertex 448.41364882654705 150.00000000000003 7.026017643392556e-15
    vertex 448.41364882654705 170.00000000000006 8.080161696448338e-15
  endloop
endfacet
facet normal -3.699248148719483e-17 1.571472116559435e-17 -1.0
  outer loop
    vertex 488.41364882654705 170.0 7.229051283584322e-15
    vertex 448.41364882654705 170.00000000000006 8.080161696448338e-15
    vertex 508.4136488265471 170.0 6.8034960771523124e-15
  endloop
endfacet
facet normal -3.699248148719483e-17 1.571472116559435e-17 -1.0
  outer loop
    vertex 508.4136488265471 170.0 6.8034960771523124e-15
    vertex 448.41364882654705 170.00000000000006 8.080161696448338e-15
    vertex 508.4136488265471 190.0 7.857640130208096e-15
  endloop
endfacet
facet normal -3.699248148719483e-17 1.571472116559435e-17 -1.0
  outer loop
    vertex 518.4136488265472 119.99999999999996 8.185308065118691e-15
    vertex 538.413648826547 100.0 3.885642323083e-15
    vertex 518.4136488265472 100.00000000000001 4.31119752951501e-15
  endloop
endfacet
facet normal -3.699248148719483e-17 1.571472116559435e-17 -1.0
  outer loop
    vertex 538.413648826547 100.0 3.885642323083e-15
    vertex 518.4136488265472 119.99999999999996 8.185308065118691e-15
    vertex 538.413648826547 150.0 5.111019214448514e-15
  endloop
endfacet
facet normal -3.699248148719483e-17 1.571472116559435e-17 -1.0
  outer loop
    vertex 538.413648826547 150.0 5.111019214448514e-15
    vertex 518.4136488265472 119.99999999999996 8.185308065118691e-15
    vertex 488.41364882654705 150.0 6.174907230528538e-15
  endloop
endfacet
facet normal -3.699248148719483e-17 1.571472116559435e-17 -1.0
  outer loop
    vertex 538.413648826547 3.885780586188049e-15 4.254855022899878e-15
    vertex 518.413648826547 39.99999999999998 3.9687318528955595e-15
    vertex 538.413648826547 59.99999999999998 4.597320699519334e-15
  endloop
endfacet
facet normal -3.699248148719483e-17 1.571472116559435e-17 -1.0
  outer loop
    vertex 518.413648826547 39.99999999999998 3.9687318528955595e-15
    vertex 538.413648826547 3.885780586188049e-15 4.254855022899878e-15
    vertex 498.41364882654705 39.99999999999998 4.394287059327569e-15
  endloop
endfacet
facet normal -3.699248148719483e-17 1.571472116559435e-17 -1.0
  outer loop
    vertex 538.413648826547 59.99999999999998 4.597320699519334e-15
    vertex 518.413648826547 39.99999999999998 3.9687318528955595e-15
    vertex 518.4136488265472 59.99999999999999 5.022875905951342e-15
  endloop
endfacet
facet normal 1.0 -9.71445146547012e-17 -2.7594952147034028e-18
  outer loop
    vertex 538.413648826547 150.0 10.000000000000004
    vertex 538.413648826547 100.0 3.885642323083e-15
    vertex 538.413648826547 150.0 5.111019214448514e-15
  endloop
endfacet
facet normal 1.0 -9.71445146547012e-17 -2.7594952147034028e-18
  outer loop
    vertex 538.413648826547 100.0 3.885642323083e-15
    vertex 538.413648826547 150.0 10.000000000000004
    vertex 538.413648826547 100.0 10.000000000000002
  endloop
endfacet
facet normal 1.0 -9.71445146547012e-17 -2.759495214703406e-18
  outer loop
    vertex 508.4136488265471 190.0 10.000000000000007
    vertex 508.4136488265471 170.0 6.8034960771523124e-15
    vertex 508.4136488265471 190.0 7.857640130208096e-15
  endloop
endfacet
facet normal 1.0 -9.71445146547012e-17 -2.759495214703406e-18
  outer loop
    vertex 508.4136488265471 170.0 6.8034960771523124e-15
    vertex 508.4136488265471 190.0 10.000000000000007
    vertex 508.4136488265471 170.0 10.000000000000004
  endloop
endfacet
facet normal -1.0 9.71445146547012e-17 2.759495214703406e-18
  outer loop
    vertex 518.413648826547 39.99999999999998 10.000000000000002
    vertex 518.4136488265472 59.99999999999999 5.022875905951342e-15
    vertex 518.413648826547 39.99999999999998 3.9687318528955595e-15
  endloop
endfacet
facet normal -1.0 9.71445146547012e-17 2.759495214703406e-18
  outer loop
    vertex 518.4136488265472 59.99999999999999 5.022875905951342e-15
    vertex 518.413648826547 39.99999999999998 10.000000000000002
    vertex 518.4136488265472 59.99999999999999 10.000000000000004
  endloop
endfacet
facet normal 9.71445146547012e-17 1.0 3.127423453028631e-17
  outer loop
    vertex 518.4136488265472 59.99999999999999 5.022875905951342e-15
    vertex 538.413648826547 59.99999999999998 10.000000000000004
    vertex 538.413648826547 59.99999999999998 4.597320699519334e-15
  endloop
endfacet
facet normal 9.71445146547012e-17 1.0 3.127423453028631e-17
  outer loop
    vertex 538.413648826547 59.99999999999998 10.000000000000004
    vertex 518.4136488265472 59.99999999999999 5.022875905951342e-15
    vertex 518.4136488265472 59.99999999999999 10.000000000000004
  endloop
endfacet
endsolid BaseBoxRobotArm
